<?xml version="1.0" encoding="UTF-8" standalone="no"?>
<svg
   xmlns:dc="http://purl.org/dc/elements/1.1/"
   xmlns:cc="http://creativecommons.org/ns#"
   xmlns:rdf="http://www.w3.org/1999/02/22-rdf-syntax-ns#"
   xmlns:svg="http://www.w3.org/2000/svg"
   xmlns="http://www.w3.org/2000/svg"
   viewBox="0 0 3283.96 2766.7866"
   height="2766.7866"
   width="3283.96"
   xml:space="preserve"
   id="svg2"
   version="1.1"><metadata
     id="metadata8"><rdf:RDF><cc:Work
         rdf:about=""><dc:format>image/svg+xml</dc:format><dc:type
           rdf:resource="http://purl.org/dc/dcmitype/StillImage" /></cc:Work></rdf:RDF></metadata><defs
     id="defs6" /><g
     transform="matrix(1.3333333,0,0,-1.3333333,0,2766.7867)"
     id="g10"><g
       transform="scale(0.1)"
       id="g12"><g
         transform="scale(10)"
         id="g14"><text
           id="text18"
           style="font-variant:normal;font-weight:bold;font-size:993.5380249px;font-family:'Courier New';-inkscape-font-specification:Courier-Bold;writing-mode:lr-tb;fill:#28292b;fill-opacity:1;fill-rule:nonzero;stroke:none"
           transform="matrix(1,0,0,-1,0,700.46)"><tspan
             id="tspan16"
             y="0"
             x="0 596.12622">Ha</tspan></text>
<text
           id="text22"
           style="font-variant:normal;font-weight:bold;font-size:745.15301514px;font-family:'Courier New';-inkscape-font-specification:Courier-Bold;writing-mode:lr-tb;fill:#28292b;fill-opacity:1;fill-rule:nonzero;stroke:none"
           transform="matrix(0,1,1,0,2162.43,8.96016)"><tspan
             id="tspan20"
             y="0"
             x="0 1618.9641">MN</tspan></text>
</g><g
         transform="scale(1.23095)"
         id="g24"><path
           id="path26"
           style="fill:#fff200;fill-opacity:1;fill-rule:nonzero;stroke:none"
           d="M 16300,9607.21 V 7024.89" /></g><g
         transform="scale(1.24322)"
         id="g28"><path
           id="path30"
           style="fill:#28292b;fill-opacity:1;fill-rule:nonzero;stroke:none"
           d="m 16300,6955.56 h -321.7 V 9512.39 H 16300 V 6955.56" /></g><g
         transform="scale(1.3239)"
         id="g32"><path
           id="path34"
           style="fill:#fff200;fill-opacity:1;fill-rule:nonzero;stroke:none"
           d="m 13028,4056.35 -382.7,18.73 -367.7,56.35 -356.5,90.03 -341.5,127.58 -326.4,153.86 -307.7,187.55 -285.2,213.92 -266.4,240.12 -240.1,266.41 -213.94,285.22 -187.63,307.65 -153.78,326.46 -127.58,341.49 -90.12,356.45 -56.27,367.7 -18.73,382.73 18.73,379.02 56.27,371.48 90.12,356.46 127.58,341.47 153.78,326.44 187.63,303.94 213.94,288.89 240.1,262.7 266.4,240.1 285.2,213.9 307.7,187.6 326.4,157.6 341.5,123.9 356.5,93.8 367.7,56.3 382.7,18.7 379,-18.7 371.5,-56.3 356.5,-93.8 341.4,-123.9 326.4,-157.6 307.8,-187.6 285.1,-213.9 266.4,-240.1 240.2,-262.7 213.9,-288.89 183.8,-303.94 -3272,-1774.87 3272,-1774.83 -183.8,-307.65 -213.9,-285.22 -240.2,-266.41 -266.4,-240.12 -285.1,-213.92 -307.8,-187.55 -326.4,-153.86 -341.4,-127.58 -356.5,-90.03 -371.5,-56.35 -379,-18.73" /></g><g
         transform="scale(1.33663)"
         id="g36"><path
           id="path38"
           style="fill:#28292b;fill-opacity:1;fill-rule:nonzero;stroke:none"
           d="m 12539.9,4185.39 364.1,-17.88 360.4,17.88 353.3,53.49 338,85.44 324.7,121.28 310.5,146.34 291.8,177.91 271.3,203.49 253.1,228.12 228.2,253.1 203,270.83 98.1,164.07 -3103.7,1683.57 c -48.3,26.18 -78.3,76.68 -78.3,131.52 0,54.91 30,105.41 78.3,131.53 l 3102.9,1683.2 -97.3,160.87 -203,274.36 -227.8,249.09 -253.5,228.5 -271.3,203.5 -292.4,178.3 -309.9,149.6 -324.7,117.7 -338.7,89.2 -352.6,53.4 -360.4,17.8 -364.1,-17.8 -348.8,-53.4 -338.9,-89.2 -324.6,-117.7 -309.9,-149.6 -292.4,-178.3 -271.3,-203.5 -253.5,-228.5 -227.7,-249.1 -203.52,-274.89 -178.13,-288.49 -146.12,-310.11 -121.27,-324.68 -85.44,-338.04 -53.49,-353.27 -17.88,-360.47 17.88,-364.05 53.49,-349.54 85.44,-338.09 121.27,-324.69 146.34,-310.49 177.91,-291.78 203.52,-271.35 228.1,-253.1 253.1,-228.12 271.3,-203.49 291.8,-177.91 310.5,-146.34 324.6,-121.28 338.2,-85.44 z M 12904,3868.1 c -2.4,0 -4.9,0.07 -7.3,0.15 l -379.1,18.63 c -5.1,0.22 -10.3,0.75 -15.3,1.49 l -364.3,55.82 c -4.7,0.67 -9.3,1.64 -14,2.76 l -353,89.26 c -5.3,1.34 -10.6,2.99 -15.7,4.86 l -338.3,126.36 c -3.9,1.5 -7.7,3.07 -11.4,4.87 l -323.4,152.32 c -4.8,2.32 -9.5,4.87 -14,7.63 l -304.8,185.84 c -4.1,2.47 -8,5.17 -11.8,8.01 l -282.6,211.88 c -3.5,2.69 -7,5.53 -10.4,8.52 l -263.8,237.92 c -3.8,3.44 -7.5,7.1 -11,10.92 l -237.86,263.87 c -2.99,3.37 -5.84,6.81 -8.53,10.4 l -211.88,282.51 c -2.84,3.81 -5.53,7.78 -8.07,11.89 l -185.77,304.72 c -2.85,4.57 -5.31,9.28 -7.63,14.14 l -152.4,323.36 c -1.72,3.74 -3.37,7.48 -4.79,11.37 l -126.36,338.24 c -1.95,5.16 -3.59,10.4 -4.94,15.71 l -89.18,353.05 c -1.12,4.64 -2.1,9.28 -2.84,13.99 l -55.74,364.28 c -0.75,5.08 -1.27,10.17 -1.5,15.33 l -18.63,379.09 c -0.22,4.87 -0.22,9.8 0,14.67 l 18.63,375.4 c 0.23,5.03 0.75,10.04 1.5,15.02 l 55.74,367.94 c 0.74,4.79 1.64,9.54 2.84,14.23 l 89.18,353.08 c 1.35,5.33 2.99,10.57 4.94,15.71 l 126.36,338.22 c 1.42,3.87 3.07,7.68 4.79,11.41 l 152.4,323.35 c 2.39,5.08 5.08,10.02 8,14.81 l 185.84,301.04 c 2.25,3.57 4.57,7.06 7.11,10.43 l 211.8,286.2 c 3.07,4.1 6.36,8.1 9.88,11.9 l 237.81,260.2 c 3.2,3.5 6.7,6.9 10.3,10.2 l 263.8,237.8 c 3.4,3 6.9,5.9 10.4,8.6 l 282.6,211.8 c 3.8,2.9 7.7,5.6 11.8,8.1 l 304.8,185.8 c 4.1,2.5 8.4,4.9 12.8,7 l 323.4,156.1 c 4.6,2.2 9.2,4.2 14,5.9 l 338.2,122.7 c 4.2,1.5 8.5,2.9 13,4 l 353,92.9 c 5.1,1.4 10.3,2.4 15.4,3.2 l 364.3,55.8 c 5,0.7 10.2,1.3 15.3,1.5 l 379.1,18.6 c 4.9,0.2 9.8,0.2 14.7,0 l 375.3,-18.6 c 5.1,-0.2 10.1,-0.7 15.1,-1.5 l 367.9,-55.7 c 5.3,-0.8 10.6,-1.9 15.7,-3.3 l 353.1,-92.9 c 4.3,-1.1 8.7,-2.5 12.9,-4 l 338.2,-122.7 c 4.8,-1.7 9.5,-3.7 14.1,-5.9 l 323.3,-156.1 c 4.4,-2.1 8.7,-4.5 12.9,-7 l 304.7,-185.8 c 4.1,-2.5 8.1,-5.2 11.9,-8.1 l 282.4,-211.8 c 3.6,-2.7 7.1,-5.6 10.4,-8.6 l 263.9,-237.8 c 3.6,-3.3 7,-6.7 10.2,-10.2 l 238,-260.2 c 3.4,-3.8 6.7,-7.8 9.8,-11.9 l 211.8,-286.2 c 2.8,-3.74 5.3,-7.6 7.7,-11.57 l 182.2,-301.05 c 21.2,-35 27.1,-77.15 16.4,-116.62 -10.7,-39.48 -37.1,-72.85 -73.1,-92.35 L 13217.8,7704.55 16216.2,6078.14 c 35.8,-19.38 62.2,-52.59 73,-91.95 10.7,-39.27 5,-81.32 -15.9,-116.33 l -182.1,-304.73 c -2.7,-4.49 -5.6,-8.83 -8.8,-13.01 l -211.8,-282.51 c -2.7,-3.59 -5.6,-7.03 -8.6,-10.4 l -237.8,-263.87 c -3.4,-3.82 -7.1,-7.48 -11,-10.92 l -263.9,-237.92 c -3.3,-2.99 -6.8,-5.83 -10.4,-8.52 l -282.4,-211.88 c -3.8,-2.84 -7.8,-5.54 -11.9,-8.01 l -304.7,-185.84 c -4.6,-2.76 -9.3,-5.31 -14.2,-7.63 l -323.3,-152.32 c -3.8,-1.8 -7.6,-3.37 -11.5,-4.87 l -338.1,-126.36 c -5.2,-1.87 -10.4,-3.52 -15.7,-4.86 l -353.1,-89.26 c -4.7,-1.12 -9.5,-2.09 -14.3,-2.84 l -367.9,-55.74 c -5,-0.74 -10,-1.27 -15.1,-1.49 l -375.3,-18.63 c -2.5,-0.08 -4.9,-0.15 -7.4,-0.15" /></g></g></g></svg>