<?xml version="1.0" encoding="UTF-8" standalone="no"?>
<!-- Created with Inkscape (http://www.inkscape.org/) -->

<svg
   xmlns:dc="http://purl.org/dc/elements/1.1/"
   xmlns:cc="http://creativecommons.org/ns#"
   xmlns:rdf="http://www.w3.org/1999/02/22-rdf-syntax-ns#"
   xmlns:svg="http://www.w3.org/2000/svg"
   xmlns="http://www.w3.org/2000/svg"
   xmlns:sodipodi="http://sodipodi.sourceforge.net/DTD/sodipodi-0.dtd"
   xmlns:inkscape="http://www.inkscape.org/namespaces/inkscape"
   width="7795.2754"
   height="2125.9841"
   id="svg2"
   version="1.1"
   inkscape:version="0.48.4 r9939"
   sodipodi:docname="New document 1">
  <defs
     id="defs4" />
  <sodipodi:namedview
     id="base"
     pagecolor="#ffffff"
     bordercolor="#666666"
     borderopacity="1.0"
     inkscape:pageopacity="0.0"
     inkscape:pageshadow="2"
     inkscape:zoom="0.04"
     inkscape:cx="2016.5253"
     inkscape:cy="-240.75225"
     inkscape:document-units="mm"
     inkscape:current-layer="layer1"
     showgrid="false"
     units="mm"
     inkscape:window-width="658"
     inkscape:window-height="415"
     inkscape:window-x="1979"
     inkscape:window-y="192"
     inkscape:window-maximized="0" />
  <metadata
     id="metadata7">
    <rdf:RDF>
      <cc:Work
         rdf:about="">
        <dc:format>image/svg+xml</dc:format>
        <dc:type
           rdf:resource="http://purl.org/dc/dcmitype/StillImage" />
        <dc:title></dc:title>
      </cc:Work>
    </rdf:RDF>
  </metadata>
  <g
     inkscape:label="Layer 1"
     inkscape:groupmode="layer"
     id="layer1"
     transform="translate(0,1073.6222)">
    <g
       id="g3067"
       transform="translate(47.517563,540.65289)">
      <g
         id="g3087"
         transform="matrix(2.8408514,2.2068397,2.2068397,-2.8408514,-74.060622,-665.49857)">
        <g
           id="g3234"
           style="fill:#000000"
           transform="translate(-77.25266,-275.30654)"
           inkscape:export-filename="/Users/parag0n/Documents/svn.hacman.org.uk/Logos/PNG/1024/hackspace-black.png"
           inkscape:export-xdpi="170.00293"
           inkscape:export-ydpi="170.00293">
          <g
             transform="matrix(1,0,0,-1,78,421.4)"
             style="fill:#000000"
             id="text3236">
            <path
               d="m 81.8,-48.2 0,28.2 -3,0 c -4.799995,0 -6.600002,0.200001 -8.4,1.4 -2.999997,1.799998 -4.8,5.200003 -4.8,8.6 0,2.999997 1.600003,6.200002 4.2,8.2 1.799998,1.1999988 4.200005,1.8 9,1.8 L 103,0 c 4.2,0 6.8,-0.400001 8.4,-1.4 3,-1.7999982 4.8,-5.2000034 4.8,-8.6 0,-3.199997 -1.6,-6.200002 -4.2,-8.2 -1.8,-1.399999 -3.60001,-1.8 -9,-1.8 l -1.2,0 0,-76.6 c 6.59999,-0.599999 10.4,-4.20001 10.4,-10 0,-3.2 -1.6,-6.2 -4,-8.2 -2,-1.4 -3.80001,-1.8 -9.2,-1.8 l -20.2,0 c -4.999995,0 -6.600002,0.2 -8.4,1.4 -2.999997,1.8 -4.8,5.2 -4.8,8.6 0,3.2 1.600003,6.2 4.2,8.2 1.999998,1.399999 3.800005,1.8 9,1.8 l 3,0 0,28.4 -42.8,0 0,-28.4 3,0 c 4.799995,0 6.600002,-0.400001 8.4,-1.4 2.999997,-1.799998 4.8,-5.2 4.8,-8.6 0,-3.2 -1.600003,-6.2 -4.2,-8.2 -1.799998,-1.4 -3.600005,-1.8 -9,-1.8 l -20.2,0 c -4.999995,0 -6.600002,0.2 -8.4,1.4 -2.999997,1.8 -4.8,5.2 -4.8,8.6 0,5.79999 3.800007,9.400001 10.4,10 l 0,76.6 -1.2,0 c -4.999995,0 -6.600002,0.200001 -8.4,1.4 -2.999997,1.799998 -4.8,5.200003 -4.8,8.6 0,2.999997 1.6000024,6.200002 4,8.2 1.799998,1.1999988 4.400005,1.8 9.2,1.8 L 42,0 c 4.199996,0 6.800002,-0.400001 8.4,-1.4 2.999997,-1.7999982 4.8,-5.2000034 4.8,-8.6 0,-3.199997 -1.600003,-6.200002 -4.2,-8.2 -1.799998,-1.399999 -3.800005,-1.8 -9,-1.8 l -3,0 0,-28.2 42.8,0"
               style="font-size:200px;font-variant:normal;font-weight:bold;writing-mode:lr-tb;fill:#000000;fill-opacity:1;fill-rule:nonzero;stroke:none;font-family:Courier;-inkscape-font-specification:Courier-Bold"
               id="path3077"
               inkscape:connector-curvature="0" />
            <path
               d="M 197.6,0 221,0 c 4.2,0 7,-0.400001 8.4,-1.4 3,-1.7999982 4.8,-5.2000034 4.8,-8.6 0,-3.199997 -1.6,-6.200002 -4,-8.2 -2,-1.399999 -3.80001,-1.8 -9.2,-1.8 l -3.2,0 0,-40.4 c 0,-18.599981 -14.80002,-29.6 -39.4,-29.6 -9.99999,0 -24.80001,2.600003 -34.4,6 -4,1.399999 -6,4.200004 -6,8.4 0,5.799994 4.20001,10.2 9.8,10.2 1.8,0 4.6,-0.400001 8,-1.2 9.19999,-2.399998 16.60001,-3.4 23.2,-3.4 12.79999,0 18.6,3.000007 18.6,9.8 l 0,4.6 c -8.19999,-1.399999 -14.40001,-2 -20.8,-2 -17.79998,0 -31.60001,5.20001 -40.6,15.2 -4.8,5.399995 -7.8,12.400006 -7.8,18.6 0,14.7999852 16.20002,27 36,27 11.79999,0 23.60001,-2.800005 33.2,-7.8 l 0,4.6 m 0.2,-27 c -10.99999,6.799993 -22.20001,10.2 -33,10.2 -8.59999,0 -15.2,-3.400004 -15.2,-7.8 0,-7.599992 12.40001,-14.6 26,-14.6 6.79999,0 14.20001,0.800001 22.2,2.2 l 0,10"
               style="font-size:200px;font-variant:normal;font-weight:bold;writing-mode:lr-tb;fill:#000000;fill-opacity:1;fill-rule:nonzero;stroke:none;font-family:Courier;-inkscape-font-specification:Courier-Bold"
               id="path3079"
               inkscape:connector-curvature="0" />
          </g>
        </g>
        <g
           id="g3240"
           style="stroke:#000000;stroke-opacity:1"
           transform="translate(-77.25266,-275.30654)"
           inkscape:export-filename="/Users/parag0n/Documents/svn.hacman.org.uk/Logos/PNG/1024/hackspace-black.png"
           inkscape:export-xdpi="170.00293"
           inkscape:export-ydpi="170.00293">
          <path
             inkscape:connector-curvature="0"
             d="m 481.9,530.2 0,-70.9"
             style="fill:none;stroke:#000000;stroke-width:14.14999008;stroke-linecap:butt;stroke-linejoin:round;stroke-miterlimit:10;stroke-opacity:1;stroke-dasharray:none"
             id="path3242" />
        </g>
        <g
           id="g3244"
           style="fill:#000000"
           transform="translate(-77.25266,-275.30654)"
           inkscape:export-filename="/Users/parag0n/Documents/svn.hacman.org.uk/Logos/PNG/1024/hackspace-black.png"
           inkscape:export-xdpi="170.00293"
           inkscape:export-ydpi="170.00293">
          <g
             transform="matrix(0,1,1,0,513.3,282.2)"
             style="fill:#000000"
             id="text3246">
            <path
               d="m 21.3,-58.35 17.7,37.65 13.65,0 16.65,-37.65 0,43.35 -5.25,0 c -3.899996,0 -4.950001,0.150001 -6.3,1.05 -2.249998,1.349999 -3.6,3.900003 -3.6,6.45 0,2.2499977 1.200002,4.6500013 3.15,6 1.199999,1.04999895 3.300003,1.5 6.75,1.5 l 19.5,0 c 2.999997,0 5.250001,-0.4500006 6.3,-1.05 2.249998,-1.4999985 3.6,-3.9000026 3.6,-6.45 0,-4.799995 -3.300006,-7.5 -9.15,-7.5 l 0,-57.45 c 4.949995,-0.45 7.8,-3.150004 7.8,-7.5 0,-2.399998 -1.200002,-4.650002 -3,-6.15 -1.499998,-1.049999 -2.850004,-1.35 -6.9,-1.35 l -16.5,0 -20.25,44.55 -20.7,-44.55 -16.35,0 C 8.2500002,-87.6 8.0999997,-87.6 7.8,-87.6 c -1.7999982,0 -4.9500008,0.6 -5.7,1.05 -2.24999775,1.499998 -3.6,4.050002 -3.6,6.45 0,4.499995 2.850005,7.2 7.8,7.65 l 0,57.45 c -5.84999415,0 -9.15,2.700005 -9.15,7.5 0,2.3999976 1.200002,4.6500013 3.15,6 C 1.6499986,-0.45000105 3.6000036,0 7.2,0 l 19.35,0 c 2.999997,0 5.250001,-0.4500006 6.3,-1.05 2.249998,-1.4999985 3.6,-3.9000026 3.6,-6.45 0,-2.3999976 -1.050002,-4.650002 -3,-6.15 -1.649998,-1.049999 -2.850004,-1.35 -6.9,-1.35 l -5.25,0 0,-43.35"
               style="font-size:150px;font-variant:normal;font-weight:bold;writing-mode:lr-tb;fill:#000000;fill-opacity:1;fill-rule:nonzero;stroke:none;font-family:Courier;-inkscape-font-specification:Courier-Bold"
               id="path3085"
               inkscape:connector-curvature="0" />
          </g>
        </g>
        <g
           id="g3250"
           style="fill:#000000;fill-opacity:1;stroke:none"
           transform="translate(-77.25266,-275.30654)"
           inkscape:export-filename="/Users/parag0n/Documents/svn.hacman.org.uk/Logos/PNG/1024/hackspace-black.png"
           inkscape:export-xdpi="170.00293"
           inkscape:export-ydpi="170.00293">
          <g
             transform="matrix(0,1,1,0,513.3,608.1)"
             style="fill:#000000"
             id="text3252">
            <path
               d="M 25.95,-59.1 64.8,0 l 14.85,0 0,-72.45 c 5.999994,0 9.15,-2.700005 9.15,-7.5 0,-2.399998 -1.200002,-4.650002 -3.15,-6.15 -1.499998,-1.049999 -2.700004,-1.35 -6.75,-1.35 l -19.5,0 c -3.899996,0 -4.950001,0.150001 -6.3,1.05 -2.249998,1.349999 -3.6,3.900003 -3.6,6.45 0,2.399998 1.200002,4.650002 3.15,6.15 1.349999,1.049999 3.000004,1.35 6.75,1.35 l 5.25,0 0,43.8 -38.7,-58.8 -17.25,0 c -3.8999961,0 -4.9500014,0.150001 -6.3,1.05 -2.24999775,1.349999 -3.6,3.900003 -3.6,6.45 0,2.399998 1.20000195,4.650002 3.15,6.15 1.3499986,1.049999 3.0000038,1.35 6.75,1.35 l 2.25,0 0,57.45 c -5.8499941,0 -9.15,2.700005 -9.15,7.5 0,2.3999976 1.2000019,4.6500013 3.15,6 1.3499986,1.04999895 3.3000036,1.5 6.9,1.5 L 31.2,0 c 2.999997,0 5.250001,-0.4500006 6.3,-1.05 2.249998,-1.4999985 3.6,-3.9000026 3.6,-6.45 0,-2.3999976 -1.050002,-4.650002 -3,-6.15 C 36.600001,-14.699999 35.249996,-15 31.2,-15 l -5.25,0 0,-44.1"
               style="font-size:150px;font-variant:normal;font-weight:bold;writing-mode:lr-tb;fill:#000000;fill-rule:nonzero;font-family:Courier;-inkscape-font-specification:Courier-Bold"
               id="path3082"
               inkscape:connector-curvature="0" />
          </g>
        </g>
        <path
           inkscape:connector-curvature="0"
           d="m 347.94734,113.19346 -10.2,0.5 -9.8,1.5 -9.5,2.4 -9.1,3.4 -8.7,4.1 -8.2,5 -7.6,5.7 -7.1,6.4 -6.4,7.1 -5.7,7.6 -5,8.2 -4.1,8.7 -3.4,9.1 -2.4,9.5 -1.5,9.8 -0.5,10.2 0.5,10.1 1.5,9.9 2.4,9.5 3.4,9.1 4.1,8.7 5,8.1 5.7,7.7 6.4,7 7.1,6.4 7.6,5.7 8.2,5 8.7,4.2 9.1,3.3 9.5,2.5 9.8,1.5 10.2,0.5 10.1,-0.5 9.9,-1.5 9.5,-2.5 9.1,-3.3 8.7,-4.2 8.2,-5 7.6,-5.7 7.1,-6.4 6.4,-7 5.7,-7.7 4.9,-8.1 -87.2,-47.3 87.2,-47.3 -4.9,-8.2 -5.7,-7.6 -6.4,-7.1 -7.1,-6.4 -7.6,-5.7 -8.2,-5 -8.7,-4.1 -9.1,-3.4 -9.5,-2.4 -9.9,-1.5 -10.1,-0.5 z"
           style="fill:#e6e64c;fill-opacity:1;fill-rule:evenodd;stroke:none"
           id="path3256"
           inkscape:export-filename="/Users/parag0n/Documents/svn.hacman.org.uk/Logos/PNG/1024/hackspace-black.png"
           inkscape:export-xdpi="170.00293"
           inkscape:export-ydpi="170.00293" />
        <g
           id="g3258"
           style="stroke:#020000;stroke-opacity:1"
           transform="translate(-77.25266,-275.30654)"
           inkscape:export-filename="/Users/parag0n/Documents/svn.hacman.org.uk/Logos/PNG/1024/hackspace-black.png"
           inkscape:export-xdpi="170.00293"
           inkscape:export-ydpi="170.00293">
          <path
             inkscape:connector-curvature="0"
             d="m 425.2,388.5 -10.2,0.5 -9.8,1.5 -9.5,2.4 -9.1,3.4 -8.7,4.1 -8.2,5 -7.6,5.7 -7.1,6.4 -6.4,7.1 -5.7,7.6 -5,8.2 -4.1,8.7 -3.4,9.1 -2.4,9.5 -1.5,9.8 -0.5,10.2 0.5,10.1 1.5,9.9 2.4,9.5 3.4,9.1 4.1,8.7 5,8.1 5.7,7.7 6.4,7 7.1,6.4 7.6,5.7 8.2,5 8.7,4.2 9.1,3.3 9.5,2.5 9.8,1.5 10.2,0.5 10.1,-0.5 9.9,-1.5 9.5,-2.5 9.1,-3.3 8.7,-4.2 8.2,-5 7.6,-5.7 7.1,-6.4 6.4,-7 5.7,-7.7 4.9,-8.1 -87.2,-47.3 87.2,-47.3 -4.9,-8.2 -5.7,-7.6 -6.4,-7.1 -7.1,-6.4 -7.6,-5.7 -8.2,-5 -8.7,-4.1 -9.1,-3.4 -9.5,-2.4 -9.9,-1.5 -10.1,-0.5 z"
             style="fill:none;stroke:#020000;stroke-width:11.31999969;stroke-linecap:butt;stroke-linejoin:round;stroke-miterlimit:10;stroke-opacity:1;stroke-dasharray:none"
             id="path3260" />
        </g>
      </g>
      <g
         id="g3118">
        <g
           id="g3111"
           transform="translate(123.5,-90.471037)">
          <text
             sodipodi:linespacing="94.999999%"
             id="text3061"
             y="-828.03302"
             x="4710.647"
             style="font-size:10px;font-style:normal;font-weight:normal;text-align:center;line-height:94.99999881%;letter-spacing:0px;word-spacing:0px;text-anchor:middle;fill:#000000;fill-opacity:1;stroke:none;font-family:Sans"
             xml:space="preserve"><tspan
               style="font-size:700px;font-style:normal;font-variant:normal;font-weight:bold;font-stretch:normal;text-align:center;line-height:94.99999881%;text-anchor:middle;font-family:Courier 10 Pitch;-inkscape-font-specification:Courier 10 Pitch"
               y="-828.03302"
               x="4710.647"
               id="tspan3063"
               sodipodi:role="line">Hackspace</tspan><tspan
               id="tspan3065"
               style="font-size:700px;font-style:normal;font-variant:normal;font-weight:bold;font-stretch:normal;text-align:center;line-height:94.99999881%;text-anchor:middle;font-family:Courier 10 Pitch;-inkscape-font-specification:Courier 10 Pitch"
               y="-163.03304"
               x="4710.647"
               sodipodi:role="line">Manchester</tspan></text>
          <text
             xml:space="preserve"
             style="font-size:10px;font-style:normal;font-weight:normal;text-align:end;line-height:125%;letter-spacing:0px;word-spacing:0px;text-anchor:end;fill:#000000;fill-opacity:1;stroke:none;font-family:Sans"
             x="7312.7314"
             y="295.20905"
             id="text3088"
             sodipodi:linespacing="125%"><tspan
               sodipodi:role="line"
               id="tspan3090"
               x="7312.7314"
               y="295.20905"
               style="font-size:300px;font-style:normal;font-variant:normal;font-weight:normal;font-stretch:normal;text-align:end;text-anchor:end;font-family:Courier 10 Pitch;-inkscape-font-specification:Courier 10 Pitch">hacman.org.uk  @hacmanchester</tspan></text>
        </g>
      </g>
    </g>
  </g>
</svg>
