<?xml version="1.0" encoding="UTF-8" standalone="no"?>
<!-- Created with Inkscape (http://www.inkscape.org/) -->

<svg
   xmlns:dc="http://purl.org/dc/elements/1.1/"
   xmlns:cc="http://creativecommons.org/ns#"
   xmlns:rdf="http://www.w3.org/1999/02/22-rdf-syntax-ns#"
   xmlns:svg="http://www.w3.org/2000/svg"
   xmlns="http://www.w3.org/2000/svg"
   xmlns:xlink="http://www.w3.org/1999/xlink"
   xmlns:sodipodi="http://sodipodi.sourceforge.net/DTD/sodipodi-0.dtd"
   xmlns:inkscape="http://www.inkscape.org/namespaces/inkscape"
   width="500"
   height="150"
   id="svg2"
   version="1.1"
   inkscape:version="0.47pre4 r22446"
   sodipodi:docname="showandtell.svg"
   inkscape:export-filename="/home/parag0n/Documents/HACMan/Branding/Banners/showandtell.png"
   inkscape:export-xdpi="90"
   inkscape:export-ydpi="90">
  <defs
     id="defs4"><linearGradient
   id="linearGradient3877">
  <stop
     style="stop-color:#7ab1ff;stop-opacity:1;"
     offset="0"
     id="stop3879" />
  <stop
     style="stop-color:#d1e7ff;stop-opacity:1;"
     offset="1"
     id="stop3881" />
</linearGradient>
<inkscape:perspective
   sodipodi:type="inkscape:persp3d"
   inkscape:vp_x="0 : 526.18109 : 1"
   inkscape:vp_y="0 : 1000 : 0"
   inkscape:vp_z="744.09448 : 526.18109 : 1"
   inkscape:persp3d-origin="372.04724 : 350.78739 : 1"
   id="perspective10" />

<clipPath
   id="clipPath17"
   clipPathUnits="userSpaceOnUse">
  <path
     id="path19"
     clip-rule="evenodd"
     d="M 0,0 L 595.3,0 L 595.3,842 L 0,842 L 0,0 z" />
</clipPath>
<inkscape:perspective
   id="perspective9"
   inkscape:persp3d-origin="372.04724 : 350.78739 : 1"
   inkscape:vp_z="744.09448 : 526.18109 : 1"
   inkscape:vp_y="0 : 1000 : 0"
   inkscape:vp_x="0 : 526.18109 : 1"
   sodipodi:type="inkscape:persp3d" />
<linearGradient
   inkscape:collect="always"
   xlink:href="#linearGradient3877"
   id="linearGradient3883"
   x1="850.51318"
   y1="380.78638"
   x2="850.51318"
   y2="580.78638"
   gradientUnits="userSpaceOnUse"
   gradientTransform="matrix(0.83333333,0,0,0.60000006,125.08552,202.31454)" />
</defs>
  <sodipodi:namedview
     id="base"
     pagecolor="#ffffff"
     bordercolor="#666666"
     borderopacity="1.0"
     inkscape:pageopacity="0.0"
     inkscape:pageshadow="2"
     inkscape:zoom="0.7"
     inkscape:cx="261.88792"
     inkscape:cy="190.40132"
     inkscape:document-units="px"
     inkscape:current-layer="g3019"
     showgrid="true"
     inkscape:window-width="698"
     inkscape:window-height="835"
     inkscape:window-x="0"
     inkscape:window-y="25"
     inkscape:window-maximized="0">
    <inkscape:grid
       type="xygrid"
       id="grid2816"
       empspacing="10"
       visible="true"
       enabled="true"
       snapvisiblegridlinesonly="true"
       spacingx="5px"
       spacingy="5px" />
  </sodipodi:namedview>
  <metadata
     id="metadata7">
    <rdf:RDF>
      <cc:Work
         rdf:about="">
        <dc:format>image/svg+xml</dc:format>
        <dc:type
           rdf:resource="http://purl.org/dc/dcmitype/StillImage" />
        <dc:title></dc:title>
      </cc:Work>
    </rdf:RDF>
  </metadata>
  <g
     inkscape:label="Layer 1"
     inkscape:groupmode="layer"
     id="layer1"
     transform="translate(0,-902.36218)">
    <g
       id="g3019"
       transform="translate(-500.51317,471.57579)">
      <rect
         style="fill:url(#linearGradient3883);fill-opacity:1;stroke:none"
         id="rect3875"
         width="500"
         height="150.00002"
         x="500.51318"
         y="430.78638" />
      <g
         transform="matrix(0.74042327,0,0,-0.74042327,340.88486,682.04745)"
         inkscape:label="hacman1"
         id="g11"><text
   transform="scale(1,-1)"
   id="text2422"
   y="-718.52557"
   x="449.52679"
   style="font-size:32px;font-style:normal;font-weight:normal;fill:#000000;fill-opacity:1;stroke:none;font-family:Bitstream Vera Sans"
   xml:space="preserve"><tspan
     y="-718.52557"
     x="449.52679"
     id="tspan2424"
     sodipodi:role="line" /></text>


<g
   inkscape:export-ydpi="170.00293"
   inkscape:export-xdpi="170.00293"
   inkscape:export-filename="/Users/parag0n/Documents/svn.hacman.org.uk/Logos/PNG/1024/hackspace-black.png"
   transform="translate(-77.25266,-275.30654)"
   style="stroke:#000000;stroke-opacity:1"
   id="g3240">
  <path
     id="path3242"
     style="fill:none;stroke:#000000;stroke-width:14.14999008;stroke-linecap:butt;stroke-linejoin:round;stroke-miterlimit:10;stroke-opacity:1;stroke-dasharray:none"
     d="m 481.9,530.2 0,-70.9" />
</g>
<path
   inkscape:export-ydpi="170.00293"
   inkscape:export-xdpi="170.00293"
   inkscape:export-filename="/Users/parag0n/Documents/svn.hacman.org.uk/Logos/PNG/1024/hackspace-black.png"
   id="path3256"
   style="fill:#e6e64c;fill-opacity:1;fill-rule:evenodd;stroke:none"
   d="m 347.94734,113.19346 -10.2,0.5 -9.8,1.5 -9.5,2.4 -9.1,3.4 -8.7,4.1 -8.2,5 -7.6,5.7 -7.1,6.4 -6.4,7.1 -5.7,7.6 -5,8.2 -4.1,8.7 -3.4,9.1 -2.4,9.5 -1.5,9.8 -0.5,10.2 0.5,10.1 1.5,9.9 2.4,9.5 3.4,9.1 4.1,8.7 5,8.1 5.7,7.7 6.4,7 7.1,6.4 7.6,5.7 8.2,5 8.7,4.2 9.1,3.3 9.5,2.5 9.8,1.5 10.2,0.5 10.1,-0.5 9.9,-1.5 9.5,-2.5 9.1,-3.3 8.7,-4.2 8.2,-5 7.6,-5.7 7.1,-6.4 6.4,-7 5.7,-7.7 4.9,-8.1 -87.2,-47.3 87.2,-47.3 -4.9,-8.2 -5.7,-7.6 -6.4,-7.1 -7.1,-6.4 -7.6,-5.7 -8.2,-5 -8.7,-4.1 -9.1,-3.4 -9.5,-2.4 -9.9,-1.5 -10.1,-0.5 z" />
<g
   inkscape:export-ydpi="170.00293"
   inkscape:export-xdpi="170.00293"
   inkscape:export-filename="/Users/parag0n/Documents/svn.hacman.org.uk/Logos/PNG/1024/hackspace-black.png"
   transform="translate(-77.25266,-275.30654)"
   style="stroke:#020000;stroke-opacity:1"
   id="g3258">
  <path
     id="path3260"
     style="fill:none;stroke:#020000;stroke-width:11.31999969;stroke-linecap:butt;stroke-linejoin:round;stroke-miterlimit:10;stroke-opacity:1;stroke-dasharray:none"
     d="m 425.2,388.5 -10.2,0.5 -9.8,1.5 -9.5,2.4 -9.1,3.4 -8.7,4.1 -8.2,5 -7.6,5.7 -7.1,6.4 -6.4,7.1 -5.7,7.6 -5,8.2 -4.1,8.7 -3.4,9.1 -2.4,9.5 -1.5,9.8 -0.5,10.2 0.5,10.1 1.5,9.9 2.4,9.5 3.4,9.1 4.1,8.7 5,8.1 5.7,7.7 6.4,7 7.1,6.4 7.6,5.7 8.2,5 8.7,4.2 9.1,3.3 9.5,2.5 9.8,1.5 10.2,0.5 10.1,-0.5 9.9,-1.5 9.5,-2.5 9.1,-3.3 8.7,-4.2 8.2,-5 7.6,-5.7 7.1,-6.4 6.4,-7 5.7,-7.7 4.9,-8.1 -87.2,-47.3 87.2,-47.3 -4.9,-8.2 -5.7,-7.6 -6.4,-7.1 -7.1,-6.4 -7.6,-5.7 -8.2,-5 -8.7,-4.1 -9.1,-3.4 -9.5,-2.4 -9.9,-1.5 -10.1,-0.5 z" />
</g>
</g>
      <path
         style="fill:none;stroke:#838322;stroke-width:9.39999962;stroke-linecap:round;stroke-linejoin:miter;stroke-miterlimit:4;stroke-opacity:1;stroke-dasharray:none"
         d="m 636.72746,562.5721 c 76.78571,-46.78571 76.78571,-46.78571 76.78571,-46.78571"
         id="path3085" />
      <path
         style="fill:none;stroke:#000000;stroke-width:5;stroke-linecap:butt;stroke-linejoin:miter;stroke-miterlimit:4;stroke-opacity:1;stroke-dasharray:none"
         d="m 788.51317,530.78639 -15,50 0,0"
         id="path3859" />
      <path
         style="fill:none;stroke:#000000;stroke-width:5;stroke-linecap:butt;stroke-linejoin:miter;stroke-miterlimit:4;stroke-opacity:1;stroke-dasharray:none"
         d="m 888.51317,530.78639 15,50 0,0 0,0"
         id="path3861" />
      <rect
         style="fill:#ffffff;fill-opacity:1;stroke:#000000;stroke-width:5;stroke-linejoin:round;stroke-miterlimit:4;stroke-opacity:1;stroke-dasharray:none"
         id="rect3083"
         width="200"
         height="125"
         x="738.51318"
         y="430.78638" />
      <flowRoot
         xml:space="preserve"
         id="flowRoot3863"
         style="font-size:28px;font-style:normal;font-variant:normal;font-weight:normal;font-stretch:normal;text-align:center;text-anchor:middle;fill:#000000;fill-opacity:1;stroke:none;font-family:Trebuchet MS;-inkscape-font-specification:Trebuchet MS"
         transform="translate(538.51317,430.78639)"><flowRegion
           id="flowRegion3865"><rect
             id="rect3867"
             width="183.57143"
             height="111.07143"
             x="209.64285"
             y="7.8571424"
             style="font-size:28px;font-style:normal;font-variant:normal;font-weight:normal;font-stretch:normal;text-align:center;text-anchor:middle;font-family:Trebuchet MS;-inkscape-font-specification:Trebuchet MS" /></flowRegion><flowPara
           id="flowPara3869">Show</flowPara><flowPara
           id="flowPara3871">&amp;</flowPara><flowPara
           id="flowPara3873">Tell</flowPara></flowRoot>    </g>
  </g>
</svg>
