<?xml version="1.0" encoding="UTF-8" standalone="no"?>
<!-- Created with Inkscape (http://www.inkscape.org/) -->

<svg
   xmlns:dc="http://purl.org/dc/elements/1.1/"
   xmlns:cc="http://creativecommons.org/ns#"
   xmlns:rdf="http://www.w3.org/1999/02/22-rdf-syntax-ns#"
   xmlns:svg="http://www.w3.org/2000/svg"
   xmlns="http://www.w3.org/2000/svg"
   xmlns:sodipodi="http://sodipodi.sourceforge.net/DTD/sodipodi-0.dtd"
   xmlns:inkscape="http://www.inkscape.org/namespaces/inkscape"
   width="1052.3622"
   height="744.09448"
   id="svg2"
   version="1.1"
   inkscape:version="0.48.1 r9760"
   sodipodi:docname="New document 1">
  <defs
     id="defs4">
<clipPath
   id="clipPath17"
   clipPathUnits="userSpaceOnUse">
  <path
     id="path19"
     clip-rule="evenodd"
     d="M 0,0 L 595.3,0 L 595.3,842 L 0,842 L 0,0 z" />
</clipPath>
<inkscape:perspective
   id="perspective9"
   inkscape:persp3d-origin="372.04724 : 350.78739 : 1"
   inkscape:vp_z="744.09448 : 526.18109 : 1"
   inkscape:vp_y="0 : 1000 : 0"
   inkscape:vp_x="0 : 526.18109 : 1"
   sodipodi:type="inkscape:persp3d" />
<inkscape:perspective
   sodipodi:type="inkscape:persp3d"
   inkscape:vp_x="0 : 526.18109 : 1"
   inkscape:vp_y="0 : 1000 : 0"
   inkscape:vp_z="744.09448 : 526.18109 : 1"
   inkscape:persp3d-origin="372.04724 : 350.78739 : 1"
   id="perspective9-6" />
<clipPath
   clipPathUnits="userSpaceOnUse"
   id="clipPath17-8">
  <path
     d="M 0,0 L 595.3,0 L 595.3,842 L 0,842 L 0,0 z"
     clip-rule="evenodd"
     id="path19-6" />
</clipPath>
</defs>
  <sodipodi:namedview
     id="base"
     pagecolor="#ffffff"
     bordercolor="#666666"
     borderopacity="1.0"
     inkscape:pageopacity="0.0"
     inkscape:pageshadow="2"
     inkscape:zoom="0.7"
     inkscape:cx="418.74732"
     inkscape:cy="388.46993"
     inkscape:document-units="px"
     inkscape:current-layer="g3194"
     showgrid="false"
     inkscape:window-width="1680"
     inkscape:window-height="975"
     inkscape:window-x="1024"
     inkscape:window-y="25"
     inkscape:window-maximized="1" />
  <metadata
     id="metadata7">
    <rdf:RDF>
      <cc:Work
         rdf:about="">
        <dc:format>image/svg+xml</dc:format>
        <dc:type
           rdf:resource="http://purl.org/dc/dcmitype/StillImage" />
        <dc:title></dc:title>
      </cc:Work>
    </rdf:RDF>
  </metadata>
  <g
     inkscape:label="Layer 1"
     inkscape:groupmode="layer"
     id="layer1"
     transform="translate(0,-308.2677)">
    <g
       id="g3194"
       transform="translate(-935.97843,-341.3922)">
      <flowRoot
         xml:space="preserve"
         id="flowRoot3258"
         style="font-size:84px;font-style:normal;font-variant:normal;font-weight:bold;font-stretch:normal;text-align:center;line-height:125%;letter-spacing:0px;word-spacing:0px;writing-mode:lr-tb;text-anchor:middle;fill:#000000;fill-opacity:1;stroke:none;font-family:FreeMono;-inkscape-font-specification:FreeMono Bold"
         transform="translate(938.77974,678.59865)"><flowRegion
           id="flowRegion3260"><rect
             id="rect3262"
             width="965.71429"
             height="277.14285"
             x="40"
             y="44.094482"
             style="font-size:84px;font-style:normal;font-variant:normal;font-weight:bold;font-stretch:normal;text-align:center;line-height:125%;writing-mode:lr-tb;text-anchor:middle;font-family:FreeMono;-inkscape-font-specification:FreeMono Bold" /></flowRegion><flowPara
           id="flowPara3264">Clean Bench Policy</flowPara></flowRoot>      <flowRoot
         xml:space="preserve"
         id="flowRoot3266"
         style="fill:black;stroke:none;stroke-opacity:1;stroke-width:1px;stroke-linejoin:miter;stroke-linecap:butt;fill-opacity:1;font-family:Sans;font-style:normal;font-weight:normal;font-size:56px;line-height:125%;letter-spacing:0px;word-spacing:0px;text-anchor:start;text-align:justify"><flowRegion
           id="flowRegion3268"><rect
             id="rect3270"
             width="565.71429"
             height="520"
             x="434.28571"
             y="192.66591"
             style="text-anchor:start;text-align:justify;font-size:56px" /></flowRegion><flowPara
           id="flowPara3272"></flowPara></flowRoot>      <flowRoot
         xml:space="preserve"
         id="flowRoot3274"
         style="font-size:32px;font-style:normal;font-weight:normal;text-align:justify;line-height:125%;letter-spacing:0px;word-spacing:0px;text-anchor:start;fill:#000000;fill-opacity:1;stroke:none;font-family:Sans"
         transform="translate(627.66733,683.09297)"><flowRegion
           id="flowRegion3276"><rect
             id="rect3278"
             width="854.53088"
             height="311.57947"
             x="405.71429"
             y="198.3802"
             style="font-size:32px;text-align:justify;text-anchor:start" /></flowRegion><flowPara
           id="flowPara3280">Non-tool items left on this bench will be either put into the teardown boxes or binned.</flowPara><flowPara
           id="flowPara3282" /><flowPara
           id="flowPara3284">If you want to keep something, this is a bad place to leave it!</flowPara><flowPara
           id="flowPara3286" /><flowPara
           id="flowPara3288">Lets all work together to try and keep this area tidy and usable for all of us.</flowPara></flowRoot>      <g
         transform="matrix(0.79393295,0,0,0.79393295,1779.5881,501.94671)"
         id="layer1-7"
         inkscape:label="Layer 1">
        <path
           transform="matrix(0.91863518,0,0,0.89830321,7.8740129,885.31819)"
           d="m 174.64285,87.343918 c 0,49.015272 -38.85528,88.750002 -86.78571,88.750002 -47.930426,0 -86.7857136,-39.73473 -86.7857136,-88.750002 0,-49.015272 38.8552876,-88.7500002 86.7857136,-88.7500002 47.93043,0 86.78571,39.7347282 86.78571,88.7500002 z"
           sodipodi:ry="88.75"
           sodipodi:rx="86.785713"
           sodipodi:cy="87.343918"
           sodipodi:cx="87.85714"
           id="path2993"
           style="fill:#000000;fill-opacity:1"
           sodipodi:type="arc" />
        <path
           transform="matrix(0.81656461,0,0,0.79849174,16.841641,894.03612)"
           d="m 174.64285,87.343918 c 0,49.015272 -38.85528,88.750002 -86.78571,88.750002 -47.930426,0 -86.7857136,-39.73473 -86.7857136,-88.750002 0,-49.015272 38.8552876,-88.7500002 86.7857136,-88.7500002 47.93043,0 86.78571,39.7347282 86.78571,88.7500002 z"
           sodipodi:ry="88.75"
           sodipodi:rx="86.785713"
           sodipodi:cy="87.343918"
           sodipodi:cx="87.85714"
           id="path2993-5"
           style="fill:none;stroke:none"
           sodipodi:type="arc" />
        <g
           id="text3781"
           style="font-size:9px;font-style:normal;font-variant:normal;font-weight:normal;font-stretch:normal;text-align:start;line-height:125%;letter-spacing:0px;word-spacing:0px;writing-mode:lr-tb;text-anchor:start;fill:#ffffff;fill-opacity:1;stroke:none;font-family:Sans;-inkscape-font-specification:Sans"
           transform="matrix(-1,0,0,-1,176.9868,1927.2736)">
          <path
             id="path3008"
             d="m 166.04082,964.97304 -0.0417,0.88672 -2.68648,-0.12643 -0.15163,3.22202 2.68648,0.12643 -0.0417,0.88671 -6.55378,-0.30843 0.0417,-0.88671 3.12106,0.14688 0.15163,-3.22202 -3.12106,-0.14688 0.0417,-0.88672 6.55378,0.30843"
             inkscape:connector-curvature="0" />
          <path
             id="path3010"
             d="m 164.40852,974.36671 -3.07082,-1.63739 -0.32844,2.39014 3.39926,-0.75275 m 0.93457,-0.37726 -0.137,0.99698 -6.84036,1.58402 0.12563,-0.91426 1.7488,-0.36296 0.40263,-2.92999 -1.58608,-0.82122 0.12743,-0.92732 6.15895,3.37475"
             inkscape:connector-curvature="0" />
          <path
             id="path3012"
             d="m 163.0036,983.48321 -0.91274,-0.20753 c 0.33765,-0.22969 0.61128,-0.49496 0.8209,-0.79581 0.20896,-0.29801 0.35567,-0.6327 0.44011,-1.00407 0.16628,-0.73134 0.0693,-1.34226 -0.29083,-1.83275 -0.35732,-0.48986 -0.95878,-0.83092 -1.80439,-1.02318 -0.84275,-0.19162 -1.53255,-0.14416 -2.0694,0.14239 -0.53399,0.28718 -0.88413,0.79645 -1.05042,1.52778 -0.0844,0.37138 -0.0969,0.7366 -0.0373,1.09566 0.0589,0.36191 0.19095,0.71942 0.39609,1.07252 l -0.90417,-0.20558 c -0.13684,-0.34959 -0.21803,-0.70606 -0.24358,-1.06939 -0.0262,-0.36049 0.004,-0.72928 0.0893,-1.10637 0.2202,-0.96844 0.6893,-1.66397 1.40732,-2.08659 0.72087,-0.42196 1.59409,-0.51635 2.61968,-0.28316 1.02843,0.23384 1.77499,0.69652 2.23969,1.38805 0.46754,0.69217 0.59121,1.52248 0.37102,2.49093 -0.087,0.38281 -0.22031,0.73107 -0.39979,1.04479 -0.17729,0.31721 -0.40113,0.60132 -0.67151,0.85231"
             inkscape:connector-curvature="0" />
          <path
             id="path3014"
             d="m 157.70419,983.94249 -0.26506,0.88855 -1.06964,-0.31908 0.26507,-0.88855 1.06963,0.31908 m 3.38998,1.01126 -0.26506,0.88855 -1.06964,-0.31908 0.26507,-0.88855 1.06963,0.31908"
             inkscape:connector-curvature="0" />
          <path
             id="path3016"
             d="m 161.95973,988.736 -0.47433,1.23478 -4.7683,-0.0381 3.56436,3.17222 -0.47433,1.23478 -6.12469,-2.35272 0.31044,-0.80815 5.37808,2.06592 -3.59403,-3.19303 0.3199,-0.83276 4.80742,0.0343 -5.37808,-2.06592 0.30887,-0.80405 6.12469,2.35273"
             inkscape:connector-curvature="0" />
          <path
             id="path3018"
             d="m 154.15829,996.65817 c 0.29065,-0.5851 0.42512,-1.02371 0.4034,-1.31583 -0.0217,-0.29212 -0.19395,-0.51834 -0.51667,-0.67865 -0.25713,-0.12774 -0.5035,-0.14544 -0.73909,-0.0531 -0.23428,0.0962 -0.42375,0.28999 -0.56843,0.58124 -0.19942,0.40143 -0.2174,0.79323 -0.0539,1.17539 0.16477,0.38607 0.4833,0.69642 0.95558,0.93103 l 0.16137,0.0802 0.35778,-0.72023 m -0.41841,1.59298 -2.5149,-1.2493 0.35974,-0.72416 0.66907,0.33236 c -0.18552,-0.29824 -0.2813,-0.60262 -0.28734,-0.91311 -0.003,-0.30921 0.0835,-0.64222 0.26075,-0.99905 0.22419,-0.4513 0.52869,-0.74819 0.91352,-0.89069 0.38615,-0.13858 0.79175,-0.10229 1.21681,0.10886 0.49589,0.24634 0.78767,0.59737 0.87532,1.0531 0.0863,0.45834 -0.0341,1.0168 -0.36119,1.67537 l -0.50442,1.01541 0.0708,0.0352 c 0.33321,0.16552 0.64509,0.18306 0.93561,0.0526 0.29185,-0.12654 0.53618,-0.38791 0.73299,-0.78409 0.12512,-0.25189 0.21682,-0.5122 0.27508,-0.78094 0.0583,-0.26875 0.0818,-0.5433 0.0706,-0.82365 l 0.66907,0.33237 c -0.0293,0.31583 -0.081,0.61076 -0.15493,0.88479 -0.0713,0.27532 -0.16568,0.53105 -0.28298,0.7672 -0.31673,0.63757 -0.71859,1.03167 -1.20559,1.18231 -0.48701,0.15062 -1.06635,0.0591 -1.73804,-0.27457"
             inkscape:connector-curvature="0" />
          <path
             id="path3020"
             d="m 150.86686,1003.5062 -2.54729,-1.5285 0.41606,-0.6934 2.52467,1.515 c 0.39942,0.2397 0.7451,0.3412 1.03701,0.3045 0.29192,-0.037 0.53134,-0.2107 0.71826,-0.5222 0.22461,-0.3743 0.28241,-0.7411 0.1734,-1.1003 -0.10901,-0.3593 -0.36951,-0.6625 -0.7815,-0.9097 l -2.38524,-1.43136 0.41831,-0.69711 4.22035,2.53247 -0.41832,0.6971 -0.65566,-0.3934 c 0.15423,0.318 0.22707,0.6265 0.21851,0.9255 -0.0101,0.3014 -0.10328,0.5991 -0.27965,0.8931 -0.29093,0.4848 -0.66175,0.7611 -1.11243,0.8289 -0.44818,0.069 -0.96368,-0.071 -1.54648,-0.4206"
             inkscape:connector-curvature="0" />
          <path
             id="path3022"
             d="m 149.23684,1008.9524 -0.61708,-0.4365 c 0.23482,-0.1138 0.44417,-0.2474 0.62805,-0.4009 0.18459,-0.1493 0.34456,-0.3196 0.47991,-0.511 0.30284,-0.4281 0.40169,-0.857 0.29652,-1.2867 -0.10277,-0.4279 -0.39932,-0.8153 -0.88963,-1.1622 -0.49032,-0.3468 -0.95555,-0.4983 -1.39571,-0.4544 -0.43777,0.046 -0.80807,0.2825 -1.11092,0.7106 -0.13535,0.1914 -0.2439,0.3981 -0.32564,0.6202 -0.081,0.2262 -0.13612,0.4689 -0.16524,0.7282 l -0.6099,-0.4314 c 0.0442,-0.2451 0.11494,-0.4821 0.21232,-0.7111 0.0957,-0.2266 0.2222,-0.4511 0.37954,-0.6735 0.42805,-0.6051 0.95826,-0.9514 1.59064,-1.0387 0.63239,-0.087 1.27147,0.097 1.91725,0.5541 0.65534,0.4636 1.04388,1.0076 1.16561,1.632 0.12003,0.6268 -0.0416,1.2535 -0.48486,1.8801 -0.14381,0.2033 -0.30577,0.3866 -0.48586,0.5499 -0.1777,0.165 -0.3727,0.3087 -0.585,0.4313"
             inkscape:connector-curvature="0" />
          <path
             id="path3024"
             d="m 144.19854,1012.3925 -2.28994,-1.8925 0.5151,-0.6233 2.26961,1.8757 c 0.35907,0.2967 0.68567,0.4488 0.97979,0.4562 0.29411,0.01 0.55688,-0.1289 0.7883,-0.4089 0.27808,-0.3365 0.3901,-0.6905 0.33606,-1.062 -0.054,-0.3715 -0.26624,-0.7103 -0.6366,-1.0164 l -2.14428,-1.772 0.5179,-0.6267 5.27092,4.3559 -0.5179,0.6267 -2.06636,-1.7077 c 0.10491,0.3376 0.13078,0.6535 0.0776,0.9478 -0.055,0.2966 -0.19175,0.577 -0.41011,0.8412 -0.36019,0.4358 -0.76817,0.6536 -1.22393,0.6532 -0.45351,0 -0.94222,-0.2143 -1.46615,-0.6472"
             inkscape:connector-curvature="0" />
          <path
             id="path3026"
             d="m 139.80446,1016.5819 -0.28407,-0.2752 2.5869,-2.6702 c -0.42425,-0.362 -0.84555,-0.5377 -1.2639,-0.5269 -0.41828,0.015 -0.81394,0.2149 -1.18699,0.6 -0.21609,0.223 -0.39768,0.4652 -0.54479,0.7265 -0.14914,0.2634 -0.26889,0.5512 -0.35926,0.8634 l -0.54918,-0.532 c 0.11344,-0.294 0.25302,-0.5728 0.41873,-0.8364 0.16572,-0.2637 0.35764,-0.5081 0.57576,-0.7333 0.54633,-0.5639 1.14364,-0.852 1.79194,-0.8644 0.64625,-0.01 1.24924,0.2558 1.80894,0.7981 0.57864,0.5605 0.8865,1.1607 0.92356,1.8003 0.0371,0.6437 -0.20115,1.2307 -0.71486,1.761 -0.46071,0.4755 -0.97819,0.7023 -1.55244,0.6803 -0.57419,-0.018 -1.1243,-0.2816 -1.65034,-0.7912 m 0.73307,-0.4156 c 0.3218,0.3036 0.66199,0.4598 1.02056,0.4686 0.35653,0.011 0.67342,-0.1267 0.95066,-0.4128 0.31393,-0.3241 0.47416,-0.6726 0.48068,-1.0456 0.004,-0.371 -0.14523,-0.7322 -0.44915,-1.0838 l -2.00275,2.0736"
             inkscape:connector-curvature="0" />
          <path
             id="path3028"
             d="m 137.75867,1021.2813 -0.50963,-0.5701 c 0.24847,-0.065 0.48396,-0.1576 0.70648,-0.2779 0.22251,-0.1203 0.43206,-0.2684 0.62863,-0.4441 0.29922,-0.2675 0.48318,-0.5145 0.55187,-0.741 0.0665,-0.2245 0.0178,-0.4285 -0.14626,-0.6119 -0.12497,-0.1398 -0.27709,-0.2023 -0.45635,-0.1874 -0.17732,0.017 -0.45982,0.134 -0.84751,0.3509 l -0.2474,0.1387 c -0.5101,0.291 -0.92987,0.4324 -1.25932,0.4244 -0.32968,0 -0.62827,-0.1555 -0.89578,-0.4548 -0.30461,-0.3407 -0.41034,-0.7315 -0.3172,-1.1724 0.091,-0.4389 0.37232,-0.8692 0.84409,-1.291 0.19657,-0.1757 0.41945,-0.3396 0.66864,-0.4917 0.24505,-0.1522 0.51969,-0.2956 0.82392,-0.43 l 0.55649,0.6224 c -0.32626,0.083 -0.62387,0.1923 -0.89282,0.3267 -0.26699,0.1365 -0.50642,0.2994 -0.71828,0.4889 -0.28393,0.2538 -0.45939,0.4971 -0.52636,0.7299 -0.065,0.235 -0.0185,0.4409 0.13971,0.6178 0.14645,0.1638 0.31442,0.2396 0.50391,0.2274 0.18731,-0.01 0.50383,-0.1419 0.94956,-0.395 l 0.25361,-0.1383 c 0.44378,-0.2553 0.82091,-0.3763 1.1314,-0.3631 0.31243,0.015 0.59557,0.1651 0.84942,0.449 0.30851,0.3451 0.42442,0.7209 0.34772,1.1274 -0.0767,0.4066 -0.34001,0.8109 -0.78993,1.2132 -0.22278,0.1991 -0.4471,0.3702 -0.67296,0.5132 -0.22586,0.143 -0.45108,0.2559 -0.67565,0.3388"
             inkscape:connector-curvature="0" />
          <path
             id="path3030"
             d="m 136.67885,1024.1516 -0.86973,-1.0939 -1.30366,1.0366 -0.3911,-0.4919 1.30365,-1.0365 -1.66288,-2.0914 c -0.24979,-0.3142 -0.45267,-0.4822 -0.60863,-0.5042 -0.15825,-0.02 -0.36923,0.075 -0.63294,0.2843 l -0.65011,0.5169 -0.42119,-0.5297 0.65011,-0.5169 c 0.48844,-0.3884 0.89756,-0.5658 1.22734,-0.5324 0.33162,0.036 0.68887,0.2945 1.07177,0.776 l 1.66288,2.0914 0.46436,-0.3692 0.39111,0.4918 -0.46436,0.3693 0.86973,1.0938 -0.63635,0.506"
             inkscape:connector-curvature="0" />
          <path
             id="path3032"
             d="m 128.65767,1025.4804 -0.22592,-0.3247 3.05154,-2.1236 c -0.34682,-0.4369 -0.72654,-0.6901 -1.13917,-0.7599 -0.41336,-0.066 -0.84006,0.055 -1.28012,0.3608 -0.2549,0.1774 -0.47962,0.3802 -0.67418,0.6084 -0.19695,0.2299 -0.36975,0.4893 -0.51839,0.7784 l -0.43678,-0.6276 c 0.16778,-0.2667 0.3583,-0.5135 0.57157,-0.7405 0.21327,-0.2269 0.44856,-0.4299 0.70586,-0.609 0.64445,-0.4485 1.28598,-0.6165 1.92458,-0.5041 0.63619,0.114 1.17687,0.4909 1.62201,1.1305 0.46021,0.6613 0.64709,1.3094 0.56063,1.9442 -0.0872,0.6389 -0.43378,1.1692 -1.03976,1.5909 -0.54346,0.3782 -1.09486,0.5014 -1.6542,0.3696 -0.56007,-0.1278 -1.0493,-0.4923 -1.46767,-1.0934 m 0.79924,-0.2672 c 0.25751,0.3598 0.56137,0.5784 0.91157,0.656 0.3478,0.079 0.68521,0 1.01225,-0.2226 0.37032,-0.2578 0.5945,-0.569 0.67254,-0.9339 0.0756,-0.3631 -0.002,-0.7464 -0.23266,-1.1498 l -2.3637,1.6503"
             inkscape:connector-curvature="0" />
          <path
             id="path3034"
             d="m 125.70952,1029.0226 c 0.10501,0 0.20997,-0.021 0.3149,-0.056 0.10393,-0.032 0.21108,-0.081 0.32145,-0.1478 0.39133,-0.2361 0.61518,-0.5456 0.67153,-0.9286 0.0554,-0.379 -0.0607,-0.8068 -0.34828,-1.2834 l -1.33934,-2.22 0.69612,-0.42 2.54248,4.2143 -0.69612,0.42 -0.39499,-0.6547 c 0.009,0.3436 -0.0663,0.6473 -0.22541,0.9109 -0.15762,0.2662 -0.40325,0.4999 -0.73689,0.7012 -0.0477,0.029 -0.10261,0.057 -0.16485,0.084 -0.0607,0.03 -0.12998,0.06 -0.20779,0.089 l -0.43281,-0.7089"
             inkscape:connector-curvature="0" />
          <path
             id="path3036"
             d="m 119.18354,1030.8469 -2.17002,0.9495 -0.2889,-0.6603 2.17002,-0.9495 0.2889,0.6603"
             inkscape:connector-curvature="0" />
          <path
             id="path3038"
             d="m 107.87654,1038.8422 -1.29315,0.2783 -2.57621,-4.0126 -0.70606,4.719 -1.29315,0.2783 -1.3804,-6.4142 0.84635,-0.1821 1.21213,5.6322 0.70725,-4.7552 0.87212,-0.1877 2.6008,4.0433 -1.21213,-5.6323 0.84205,-0.1812 1.3804,6.4142"
             inkscape:connector-curvature="0" />
          <path
             id="path3040"
             d="m 96.978166,1036.645 c 0.648782,-0.077 1.089479,-0.2044 1.322095,-0.3824 0.232618,-0.1781 0.32772,-0.446 0.285308,-0.8038 -0.03379,-0.2852 -0.153783,-0.501 -0.35998,-0.6477 -0.208759,-0.1434 -0.474606,-0.196 -0.797543,-0.1577 -0.445125,0.053 -0.782897,0.2521 -1.013319,0.598 -0.23298,0.3492 -0.318438,0.7856 -0.256377,1.3093 l 0.02121,0.1789 0.79861,-0.095 m -1.562276,0.5214 -0.330498,-2.7885 0.802974,-0.095 0.08793,0.7419 c 0.148121,-0.3185 0.35047,-0.5652 0.607047,-0.7402 0.256929,-0.1721 0.583226,-0.2815 0.978891,-0.3284 0.500406,-0.059 0.915534,0.033 1.245386,0.2772 0.327288,0.2474 0.518862,0.6067 0.57472,1.078 0.06517,0.5499 -0.06898,0.9862 -0.402457,1.3089 -0.336382,0.3231 -0.869693,0.5279 -1.599936,0.6145 l -1.125909,0.1334 0.0093,0.079 c 0.04379,0.3695 0.199777,0.6401 0.467949,0.8119 0.265613,0.175 0.618072,0.2365 1.057378,0.1844 0.279297,-0.033 0.547353,-0.099 0.80417,-0.1971 0.256819,-0.098 0.499489,-0.2288 0.72801,-0.3916 l 0.08793,0.7419 c -0.280394,0.1483 -0.555508,0.2664 -0.825343,0.3545 -0.269489,0.091 -0.535153,0.1519 -0.796994,0.1829 -0.706963,0.084 -1.256728,-0.037 -1.649296,-0.3621 -0.392561,-0.3252 -0.632979,-0.8602 -0.721254,-1.605"
             inkscape:connector-curvature="0" />
          <path
             id="path3042"
             d="m 89.447601,1037.6405 -0.116708,-2.9684 0.80797,-0.032 0.115672,2.9421 c 0.0183,0.4654 0.122751,0.8102 0.31334,1.0344 0.190597,0.2241 0.467393,0.329 0.830391,0.3148 0.436189,-0.017 0.774694,-0.1698 1.015516,-0.4578 0.240826,-0.288 0.3518,-0.672 0.332923,-1.1521 l -0.109285,-2.7796 0.812361,-0.032 0.193363,4.9181 -0.812361,0.032 -0.03004,-0.7641 c -0.181584,0.3033 -0.399769,0.5332 -0.654557,0.6898 -0.257711,0.1567 -0.557822,0.2418 -0.900333,0.2553 -0.56499,0.022 -0.9993,-0.1366 -1.30293,-0.4765 -0.303507,-0.337 -0.468614,-0.8451 -0.495322,-1.5242"
             inkscape:connector-curvature="0" />
          <path
             id="path3044"
             d="m 84.003237,1039.2658 0.02627,-0.7554 c 0.224004,0.1339 0.450588,0.2356 0.679751,0.3051 0.226142,0.072 0.456327,0.1126 0.690557,0.1208 0.5241,0.018 0.936883,-0.1346 1.238351,-0.4583 0.30137,-0.3207 0.462489,-0.7812 0.483358,-1.3815 0.02087,-0.6002 -0.107822,-1.0722 -0.386082,-1.4161 -0.278357,-0.3409 -0.679585,-0.5205 -1.203685,-0.5387 -0.23423,-0.01 -0.466605,0.014 -0.697124,0.068 -0.233541,0.056 -0.466691,0.1435 -0.69945,0.2615 l 0.02596,-0.7467 c 0.229119,-0.098 0.466101,-0.1684 0.710947,-0.2127 0.241925,-0.044 0.499034,-0.062 0.771327,-0.052 0.740766,0.026 1.321183,0.279 1.741254,0.7597 0.420073,0.4807 0.616365,1.1163 0.588877,1.9069 -0.0279,0.8022 -0.269427,1.4255 -0.7246,1.87 -0.458097,0.4443 -1.070704,0.6531 -1.83782,0.6264 -0.24887,-0.01 -0.490971,-0.043 -0.726303,-0.1044 -0.235427,-0.058 -0.462621,-0.1421 -0.681584,-0.2524"
             inkscape:connector-curvature="0" />
          <path
             id="path3046"
             d="m 78.363248,1036.944 0.324431,-2.9529 0.803757,0.088 -0.321551,2.9267 c -0.05087,0.463 0.0013,0.8195 0.156609,1.0694 0.155282,0.2499 0.413475,0.3947 0.774579,0.4344 0.433916,0.048 0.791292,-0.053 1.072131,-0.3022 0.280844,-0.2492 0.4475,-0.6125 0.49997,-1.0901 l 0.303794,-2.7651 0.808126,0.089 -0.746767,6.7969 -0.808125,-0.089 0.292755,-2.6647 c -0.224515,0.273 -0.474364,0.4681 -0.749547,0.5852 -0.278089,0.1168 -0.587497,0.1565 -0.928223,0.1191 -0.562044,-0.062 -0.968022,-0.2832 -1.217937,-0.6643 -0.250225,-0.3782 -0.338225,-0.9052 -0.264002,-1.5808"
             inkscape:connector-curvature="0" />
          <path
             id="path3048"
             d="m 72.448377,1035.5691 0.07427,-0.3885 3.651641,0.6982 c 0.07,-0.5534 -0.01426,-1.002 -0.25276,-1.3459 -0.241926,-0.3415 -0.626187,-0.5626 -1.152786,-0.6633 -0.305019,-0.058 -0.607122,-0.077 -0.906308,-0.057 -0.302057,0.02 -0.608391,0.078 -0.919005,0.1733 l 0.143583,-0.7511 c 0.30799,-0.066 0.617667,-0.1026 0.929033,-0.1087 0.311375,-0.01 0.62101,0.02 0.928907,0.079 0.771192,0.1475 1.339766,0.4888 1.705724,1.0241 0.363083,0.5347 0.471457,1.1848 0.325123,1.9502 -0.151284,0.7914 -0.484151,1.378 -0.998604,1.7598 -0.517876,0.3842 -1.139389,0.507 -1.864541,0.3684 -0.650327,-0.1243 -1.123814,-0.4326 -1.420463,-0.9248 -0.300066,-0.4899 -0.381336,-1.0945 -0.243811,-1.8139 m 0.749651,0.3849 c -0.07731,0.4357 -0.0213,0.8058 0.16802,1.1104 0.186454,0.3041 0.475354,0.4936 0.8667,0.5684 0.443149,0.085 0.82246,0.027 1.137932,-0.1717 0.3126,-0.1998 0.532502,-0.5231 0.659705,-0.9701 l -2.832357,-0.537"
             inkscape:connector-curvature="0" />
          <path
             id="path3050"
             d="m 67.393629,1036.432 0.197708,-0.7387 c 0.190449,0.1723 0.396959,0.3186 0.61953,0.4388 0.22258,0.1202 0.46122,0.2144 0.715922,0.2826 0.387722,0.1038 0.695126,0.1224 0.922212,0.056 0.224262,-0.067 0.368207,-0.2199 0.431834,-0.4576 0.04848,-0.1811 0.0174,-0.3426 -0.09325,-0.4844 -0.111401,-0.1391 -0.364028,-0.3113 -0.757883,-0.5168 l -0.251534,-0.131 c -0.522873,-0.2674 -0.871181,-0.541 -1.044923,-0.8211 -0.177321,-0.2779 -0.214095,-0.6108 -0.110322,-0.9985 0.118175,-0.4415 0.387189,-0.744 0.807046,-0.9076 0.417033,-0.1644 0.931195,-0.1648 1.542486,0 0.254708,0.068 0.513916,0.1648 0.777626,0.29 0.26164,0.1216 0.532026,0.2728 0.81116,0.4537 l -0.215888,0.8065 c -0.248518,-0.2272 -0.502639,-0.4166 -0.762364,-0.568 -0.26048,-0.1485 -0.527978,-0.2596 -0.802497,-0.333 -0.367905,-0.099 -0.667576,-0.112 -0.899014,-0.041 -0.232188,0.074 -0.378963,0.2261 -0.440324,0.4553 -0.05681,0.2123 -0.0282,0.3943 0.08583,0.5462 0.111207,0.1511 0.394765,0.3437 0.850675,0.578 l 0.254643,0.1364 c 0.456673,0.2314 0.764523,0.4806 0.923551,0.7476 0.158274,0.2698 0.188173,0.5887 0.0897,0.9566 -0.119683,0.4471 -0.370581,0.75 -0.752695,0.9085 -0.38211,0.1586 -0.864662,0.1598 -1.447658,0 -0.288663,-0.077 -0.554668,-0.1712 -0.798015,-0.2819 -0.243339,-0.1106 -0.46119,-0.2371 -0.653555,-0.3796"
             inkscape:connector-curvature="0" />
          <path
             id="path3052"
             d="m 64.396653,1037.0981 0.439634,-1.3265 -1.580962,-0.524 0.197697,-0.5965 1.580962,0.524 0.840558,-2.5362 c 0.12627,-0.381 0.155929,-0.6428 0.08898,-0.7854 -0.06973,-0.1434 -0.264497,-0.2682 -0.584307,-0.3742 l -0.788395,-0.2613 0.212904,-0.6424 0.788395,0.2613 c 0.592341,0.1963 0.964733,0.4417 1.117176,0.736 0.151523,0.2972 0.13051,0.7377 -0.06304,1.3217 l -0.840558,2.5362 0.563139,0.1867 -0.197697,0.5965 -0.563139,-0.1867 -0.439634,1.3265 -0.77171,-0.2557"
             inkscape:connector-curvature="0" />
          <path
             id="path3054"
             d="m 58.894871,1031.1077 0.148351,-0.3667 3.446333,1.3945 c 0.176203,-0.5292 0.180743,-0.9856 0.01362,-1.3693 -0.170933,-0.382 -0.504894,-0.6736 -1.001886,-0.8747 -0.28787,-0.1165 -0.580523,-0.1938 -0.877961,-0.232 -0.300146,-0.039 -0.611865,-0.042 -0.935159,-0.01 l 0.286812,-0.7088 c 0.31502,-0.01 0.625837,0.019 0.932451,0.074 0.30662,0.054 0.605223,0.1406 0.89581,0.2582 0.727832,0.2945 1.219222,0.7398 1.474171,1.336 0.252236,0.5951 0.2322,1.2538 -0.06011,1.9762 -0.302195,0.7469 -0.742723,1.2576 -1.321583,1.5322 -0.582671,0.2762 -1.216196,0.2759 -1.900578,-10e-4 -0.613762,-0.2484 -1.01831,-0.6428 -1.213645,-1.1833 -0.199138,-0.5388 -0.161347,-1.1477 0.113371,-1.8266 m 0.660546,0.5232 c -0.160496,0.4123 -0.177493,0.7863 -0.05099,1.1219 0.123798,0.3345 0.370369,0.5765 0.739711,0.726 0.418235,0.1692 0.801436,0.1868 1.149605,0.053 0.345459,-0.1352 0.62401,-0.4096 0.835654,-0.8233 l -2.673982,-1.0773"
             inkscape:connector-curvature="0" />
          <path
             id="path3056"
             d="m 54.31633,1030.5725 c 0.05884,0.087 0.131957,0.1646 0.219358,0.2329 0.0835,0.07 0.183279,0.1324 0.299342,0.1885 0.411517,0.1988 0.793069,0.2173 1.144655,0.055 0.347681,-0.1607 0.642603,-0.4916 0.884769,-0.9928 l 1.127994,-2.3345 0.732018,0.3536 -2.141277,4.4317 -0.732018,-0.3537 0.332662,-0.6885 c -0.283001,0.1952 -0.578392,0.2981 -0.886175,0.3088 -0.309049,0.013 -0.638996,-0.065 -0.989842,-0.2342 -0.05012,-0.024 -0.1036,-0.055 -0.160453,-0.092 -0.05812,-0.035 -0.120923,-0.076 -0.188417,-0.1252 l 0.357384,-0.7497"
             inkscape:connector-curvature="0" />
          <path
             id="path3058"
             d="m 49.313466,1030.5694 -0.749907,-0.4751 1.439165,-2.272 -2.72491,-1.726 -1.439164,2.272 -0.749907,-0.475 3.510903,-5.5427 0.749907,0.475 -1.671971,2.6396 2.72491,1.726 1.671971,-2.6395 0.749907,0.475 -3.510904,5.5427"
             inkscape:connector-curvature="0" />
          <path
             id="path3060"
             d="m 43.912532,1021.9517 c 0.519654,0.396 0.92496,0.6109 1.215918,0.6447 0.290963,0.034 0.545646,-0.092 0.764047,-0.3791 0.174015,-0.2284 0.237946,-0.467 0.191793,-0.7158 -0.05025,-0.2482 -0.204712,-0.4709 -0.463375,-0.668 -0.356529,-0.2716 -0.737871,-0.3633 -1.144029,-0.275 -0.410256,0.089 -0.775193,0.343 -1.094812,0.7625 l -0.109202,0.1433 0.63966,0.4874 m -1.485238,-0.7119 1.70195,-2.2335 0.643155,0.4901 -0.452788,0.5942 c 0.327926,-0.1258 0.644913,-0.1624 0.950962,-0.1097 0.304279,0.055 0.614875,0.2034 0.93179,0.4448 0.400809,0.3055 0.634825,0.6606 0.702051,1.0654 0.06312,0.4054 -0.04915,0.7968 -0.3368,1.1743 -0.335594,0.4404 -0.73543,0.6606 -1.199508,0.6606 -0.466403,0 -0.992054,-0.2255 -1.576957,-0.6712 l -0.901815,-0.6872 -0.04794,0.063 c -0.2255,0.296 -0.301642,0.5989 -0.228423,0.9089 0.06912,0.3105 0.279617,0.5998 0.631484,0.8679 0.22371,0.1704 0.46201,0.3097 0.714901,0.4177 0.252898,0.1079 0.518056,0.1829 0.795475,0.2249 l -0.452788,0.5942 c -0.304603,-0.089 -0.584463,-0.1949 -0.839581,-0.3193 -0.256884,-0.1221 -0.49019,-0.263 -0.69992,-0.4228 -0.56625,-0.4315 -0.877329,-0.9006 -0.933238,-1.4073 -0.0559,-0.5067 0.143435,-1.0583 0.597993,-1.6549"
             inkscape:connector-curvature="0" />
          <path
             id="path3062"
             d="m 37.056014,1019.132 0.501058,-0.5659 c 0.08759,0.2458 0.19763,0.4685 0.330126,0.6679 0.128372,0.1998 0.280294,0.3773 0.455768,0.5327 0.392639,0.3476 0.808232,0.4926 1.24678,0.4348 0.436614,-0.056 0.853982,-0.3083 1.252106,-0.7579 0.398129,-0.4497 0.599313,-0.8957 0.603553,-1.338 0.0023,-0.4401 -0.192864,-0.834 -0.585501,-1.1817 -0.175476,-0.1553 -0.369153,-0.2857 -0.581032,-0.3911 -0.216008,-0.1052 -0.451314,-0.1864 -0.705919,-0.2435 l 0.495231,-0.5594 c 0.238817,0.071 0.466732,0.1667 0.683746,0.2885 0.214825,0.1197 0.424234,0.2699 0.628226,0.4505 0.554954,0.4914 0.841449,1.0561 0.859486,1.6942 0.01804,0.6382 -0.235122,1.2534 -0.759485,1.8456 -0.532128,0.601 -1.115158,0.9281 -1.749091,0.9811 -0.636119,0.051 -1.241527,-0.1777 -1.816226,-0.6865 -0.18644,-0.1651 -0.351021,-0.346 -0.493742,-0.5428 -0.144651,-0.1946 -0.266345,-0.4041 -0.365084,-0.6285"
             inkscape:connector-curvature="0" />
          <path
             id="path3064"
             d="m 34.306034,1019.4137 -0.568709,-0.5809 2.885979,-2.8251 -3.204472,-0.2393 -0.722414,-0.738 3.47156,0.2546 -0.03122,-3.7761 0.737785,0.7537 0.0314,3.4684 1.71777,-1.6815 0.56871,0.5809 -4.886381,4.7833"
             inkscape:connector-curvature="0" />
          <path
             id="path3066"
             d="m 29.896495,1011.5373 0.582265,-0.4956 c 0.05889,0.2499 0.145781,0.4876 0.260672,0.713 0.114903,0.2253 0.257805,0.4384 0.428709,0.6392 0.260166,0.3056 0.50261,0.4955 0.727333,0.5697 0.222833,0.072 0.427945,0.028 0.615337,-0.1313 0.142781,-0.1216 0.208917,-0.2721 0.198406,-0.4517 -0.01273,-0.1777 -0.122818,-0.4629 -0.330252,-0.8558 l -0.132605,-0.2507 c -0.278499,-0.517 -0.40972,-0.9401 -0.393662,-1.2692 0.01194,-0.3295 0.17072,-0.6243 0.47635,-0.8845 0.348024,-0.2962 0.741277,-0.3925 1.17976,-0.2886 0.436589,0.1016 0.859973,0.3933 1.270152,0.8752 0.17091,0.2008 0.329337,0.4275 0.47528,0.6804 0.146277,0.2486 0.28292,0.5267 0.409928,0.8341 l -0.635807,0.5412 c -0.07546,-0.3282 -0.177069,-0.6284 -0.304836,-0.9005 -0.129994,-0.2702 -0.287093,-0.5136 -0.471297,-0.73 -0.246866,-0.29 -0.485844,-0.4713 -0.716935,-0.5439 -0.233317,-0.071 -0.440328,-0.029 -0.621034,0.1247 -0.167314,0.1424 -0.247167,0.3085 -0.239558,0.4982 0.0057,0.1875 0.129665,0.5071 0.371845,0.9589 l 0.132107,0.2569 c 0.244417,0.4498 0.356242,0.8298 0.335476,1.1399 -0.02299,0.3119 -0.179498,0.5914 -0.469518,0.8382 -0.352478,0.3001 -0.730991,0.4068 -1.135539,0.3203 -0.404539,-0.087 -0.802407,-0.3596 -1.193603,-0.8192 -0.193691,-0.2276 -0.359261,-0.456 -0.496713,-0.6852 -0.137439,-0.2293 -0.244859,-0.4572 -0.322261,-0.6837"
             inkscape:connector-curvature="0" />
          <path
             id="path3068"
             d="m 31.500297,1007.0328 2.105994,-1.5423 0.480349,0.6559 -5.481257,4.0142 -0.480349,-0.6559 0.602725,-0.4414 c -0.336755,0.036 -0.638026,-0.01 -0.903812,-0.1334 -0.269871,-0.1255 -0.511264,-0.3336 -0.724182,-0.6244 -0.353115,-0.4822 -0.44814,-1.0135 -0.285074,-1.5941 0.161348,-0.583 0.554017,-1.103 1.17801,-1.56 0.624002,-0.4569 1.238238,-0.6744 1.842709,-0.6523 0.602746,0.02 1.080678,0.2708 1.433798,0.753 0.212913,0.2907 0.339671,0.5828 0.380273,0.8762 0.03651,0.2928 -0.01322,0.5943 -0.149184,0.9045 m -3.011668,-1.2042 c -0.479812,0.3514 -0.782927,0.7259 -0.909347,1.1235 -0.130503,0.397 -0.0694,0.768 0.183324,1.1131 0.252729,0.3451 0.588883,0.5165 1.008463,0.5143 0.415493,0 0.863146,-0.18 1.342959,-0.5314 0.479819,-0.3514 0.784982,-0.7256 0.915489,-1.1226 0.126416,-0.3976 0.06326,-0.7689 -0.189466,-1.114 -0.252722,-0.3451 -0.586828,-0.5162 -1.002321,-0.5133 -0.41958,0 -0.86928,0.179 -1.349101,0.5304"
             inkscape:connector-curvature="0" />
          <path
             id="path3070"
             d="m 25.959476,1001.9728 c 0.343156,0.556 0.644472,0.9019 0.90395,1.0378 0.259484,0.1359 0.542545,0.1093 0.849184,-0.08 0.244318,-0.1508 0.389532,-0.3506 0.435643,-0.5994 0.04208,-0.2498 -0.02228,-0.513 -0.19309,-0.7897 -0.235435,-0.3815 -0.55856,-0.6038 -0.969379,-0.6669 -0.414845,-0.064 -0.84664,0.042 -1.295388,0.3193 l -0.153321,0.095 0.422401,0.6843 m -1.131314,-1.197 2.389562,-1.4749 0.424709,0.68807 -0.635721,0.39243 c 0.351235,10e-5 0.660254,0.08 0.927057,0.2385 0.264314,0.1605 0.501108,0.4103 0.710384,0.7493 0.264674,0.4288 0.355825,0.8442 0.273452,1.2463 -0.0864,0.401 -0.331541,0.7262 -0.735412,0.9755 -0.471179,0.2908 -0.923379,0.353 -1.3566,0.1866 -0.434755,-0.1689 -0.845253,-0.5662 -1.231495,-1.1919 l -0.595516,-0.9648 -0.06731,0.042 c -0.316609,0.1954 -0.496296,0.451 -0.53906,0.7665 -0.04679,0.3147 0.046,0.6602 0.278351,1.0367 0.14773,0.2393 0.320277,0.4547 0.517643,0.6462 0.197375,0.1914 0.418029,0.3565 0.661963,0.4951 l -0.635721,0.3924 c -0.252642,-0.1918 -0.475742,-0.3915 -0.6693,-0.599 -0.196041,-0.2061 -0.36331,-0.4213 -0.501808,-0.6457 -0.373922,-0.6058 -0.496154,-1.1552 -0.366695,-1.6483 0.12947,-0.493 0.513309,-0.9365 1.151518,-1.3305"
             inkscape:connector-curvature="0" />
          <path
             id="path3072"
             d="m 20.570222,996.87966 0.6708,-0.34835 c -0.0065,0.26086 0.01631,0.50817 0.06838,0.74192 0.04812,0.2325 0.12619,0.45276 0.234202,0.66075 0.241694,0.4654 0.577573,0.74984 1.00764,0.85332 0.427475,0.10482 0.907709,0.0188 1.440705,-0.25796 0.533002,-0.27679 0.880865,-0.62085 1.043591,-1.03218 0.16013,-0.40997 0.11935,-0.84766 -0.122341,-1.31306 -0.108015,-0.20799 -0.241982,-0.39922 -0.401901,-0.57366 -0.163865,-0.1757 -0.354357,-0.33591 -0.571476,-0.48066 l 0.662999,-0.3443 c 0.197569,0.15159 0.375786,0.32314 0.534652,0.51463 0.157519,0.1889 0.299063,0.40424 0.424632,0.64604 0.341606,0.6578 0.4063,1.28774 0.194082,1.88983 -0.212216,0.60208 -0.669324,1.0854 -1.371324,1.44996 -0.712396,0.36996 -1.373961,0.46593 -1.984697,0.28792 -0.612077,-0.18062 -1.094996,-0.61153 -1.448759,-1.29273 -0.114762,-0.22099 -0.20343,-0.44895 -0.266004,-0.68385 -0.06516,-0.23355 -0.103554,-0.47276 -0.115177,-0.71762"
             inkscape:connector-curvature="0" />
          <path
             id="path3074"
             d="m 20.059155,990.59634 0.363576,-0.15569 1.463485,3.41761 c 0.497862,-0.25144 0.822633,-0.57217 0.974314,-0.9622 0.147837,-0.39156 0.116232,-0.83377 -0.09482,-1.32662 -0.122244,-0.28547 -0.275464,-0.54652 -0.45966,-0.78316 -0.185346,-0.23933 -0.404551,-0.46098 -0.657617,-0.66494 l 0.702913,-0.301 c 0.227286,0.21819 0.430523,0.45464 0.609709,0.70935 0.17919,0.25472 0.330483,0.52616 0.453881,0.81433 0.309074,0.72176 0.344076,1.38401 0.105005,1.98674 -0.240222,0.60004 -0.718522,1.05345 -1.434902,1.36021 -0.740614,0.31715 -1.413061,0.36927 -2.017345,0.15636 -0.608121,-0.21446 -1.057494,-0.66102 -1.34812,-1.33969 -0.260631,-0.60865 -0.269888,-1.17357 -0.02777,-1.69475 0.238282,-0.52272 0.694064,-0.92823 1.367346,-1.21655 m 0.100155,0.83672 c -0.404355,0.17954 -0.679866,0.43296 -0.826534,0.76028 -0.147811,0.32464 -0.143298,0.67009 0.01354,1.03635 0.177607,0.41475 0.437186,0.69719 0.778739,0.84732 0.340408,0.14743 0.731441,0.1489 1.173101,0.004 l -1.138846,-2.64834"
             inkscape:connector-curvature="0" />
          <path
             id="path3076"
             d="m 17.680591,983.96567 -0.610446,-2.28864 0.696358,-0.18574 0.610446,2.28864 -0.696358,0.18574"
             inkscape:connector-curvature="0" />
          <path
             id="path3078"
             d="m 14.802069,967.36288 2.962185,-0.22481 0.06119,0.80627 -2.935893,0.22281 c -0.464481,0.0353 -0.805241,0.1522 -1.022281,0.35083 -0.217031,0.19864 -0.311803,0.47908 -0.284316,0.84131 0.03304,0.43528 0.19785,0.768 0.494434,0.99816 0.296593,0.23018 0.684433,0.32708 1.16352,0.29072 l 2.773762,-0.21051 0.06152,0.81066 -6.818283,0.51746 -0.06152,-0.81066 2.672977,-0.20286 c -0.309678,-0.17041 -0.547417,-0.38007 -0.713218,-0.62898 -0.166013,-0.25183 -0.261991,-0.54864 -0.287936,-0.89044 -0.04278,-0.5638 0.100124,-1.00361 0.428724,-1.31943 0.325689,-0.31558 0.8274,-0.49909 1.505134,-0.55053"
             inkscape:connector-curvature="0" />
          <path
             id="path3080"
             d="m 11.403564,964.78748 1.397371,-0.0158 -0.01886,-1.66542 0.628378,-0.007 0.01886,1.66542 2.671704,-0.0303 c 0.401342,-0.005 0.658524,-0.0617 0.771546,-0.17135 0.112991,-0.11261 0.167578,-0.33736 0.163762,-0.67426 l -0.0094,-0.83051 0.676715,-0.008 0.0094,0.83051 c 0.0071,0.62398 -0.103772,1.05593 -0.332516,1.29584 -0.231672,0.23994 -0.655105,0.3634 -1.270301,0.37036 l -2.671704,0.0303 0.0067,0.59322 -0.628378,0.007 -0.0067,-0.59322 -1.397371,0.0158 -0.0092,-0.81294"
             inkscape:connector-curvature="0" />
          <path
             id="path3082"
             d="m 11.448256,960.94512 1.39647,0.0526 0.06273,-1.66434 0.627972,0.0237 -0.06273,1.66435 2.669979,0.10062 c 0.401084,0.0151 0.660755,-0.0293 0.779013,-0.13335 0.11837,-0.10694 0.183899,-0.32875 0.196587,-0.66543 l 0.03128,-0.82998 0.676277,0.0255 -0.03128,0.82998 c -0.0235,0.62358 -0.15536,1.04958 -0.395579,1.278 -0.243145,0.22831 -0.672116,0.33088 -1.286915,0.30771 l -2.66998,-0.10063 -0.02234,0.59284 -0.627972,-0.0237 0.02234,-0.59285 -1.39647,-0.0526 0.03062,-0.81242"
             inkscape:connector-curvature="0" />
          <path
             id="path3084"
             d="m 17.230887,957.59776 2.596683,0.26678 -0.08309,0.80873 -6.75837,-0.69435 0.08309,-0.80873 0.743158,0.0763 c -0.274064,-0.19897 -0.467868,-0.43387 -0.581413,-0.70471 -0.11615,-0.27405 -0.155813,-0.5903 -0.11899,-0.94877 0.06109,-0.59452 0.346701,-1.05259 0.856847,-1.37422 0.510452,-0.32452 1.15037,-0.44726 1.919755,-0.36822 0.769389,0.079 1.370982,0.32934 1.80478,0.75088 0.434098,0.41863 0.620607,0.92521 0.559526,1.51973 -0.03683,0.35847 -0.138511,0.6602 -0.305047,0.9052 -0.169152,0.2418 -0.408128,0.43224 -0.716929,0.57133 m -1.428112,-2.91218 c -0.59161,-0.0608 -1.067567,0.014 -1.42787,0.22438 -0.362913,0.20717 -0.566228,0.52349 -0.609946,0.94898 -0.04371,0.4255 0.09089,0.77802 0.403797,1.05755 0.310302,0.27633 0.761257,0.44488 1.352867,0.50566 0.591614,0.0608 1.068877,-0.0124 1.431792,-0.21957 0.360301,-0.21037 0.562309,-0.5283 0.606023,-0.9538 0.04371,-0.42549 -0.08958,-0.7764 -0.399875,-1.05272 -0.312912,-0.27954 -0.765175,-0.4497 -1.356788,-0.51048"
             inkscape:connector-curvature="0" />
          <path
             id="path3086"
             d="m 17.494435,952.39327 0.151489,-0.91479 1.101213,0.18237 -0.151489,0.91478 -1.101213,-0.18236 m -3.490067,-0.57796 0.15149,-0.91478 1.101213,0.18236 -0.151489,0.91479 -1.101214,-0.18237"
             inkscape:connector-curvature="0" />
          <path
             id="path3088"
             d="m 12.969687,947.02927 0.153695,-0.73109 6.767658,3.75786 -0.153696,0.73109 -6.767657,-3.75786"
             inkscape:connector-curvature="0" />
          <path
             id="path3090"
             d="m 13.755781,943.79928 0.185123,-0.72377 6.599071,4.0466 -0.185122,0.72377 -6.599072,-4.0466"
             inkscape:connector-curvature="0" />
          <path
             id="path3092"
             d="m 15.678767,942.74084 0.257731,-0.76642 3.962656,0.26619 -3.319731,-2.17808 0.303954,-0.90387 3.962656,0.26619 -3.319731,-2.17808 0.25773,-0.76642 4.254755,2.78924 -0.303954,0.90387 -4.161337,-0.282 3.484795,2.29385 -0.303954,0.90388 -5.07557,-0.34835"
             inkscape:connector-curvature="0" />
          <path
             id="path3094"
             d="m 18.255182,935.28945 0.33636,-0.73531 3.913188,0.67857 -3.074113,-2.51286 0.396686,-0.86719 3.913188,0.67857 -3.074114,-2.51286 0.336361,-0.73531 3.9402,3.21832 -0.396686,0.86719 -4.109132,-0.71505 3.226184,2.64525 -0.396686,0.86719 -5.011436,-0.87651"
             inkscape:connector-curvature="0" />
          <path
             id="path3096"
             d="m 21.595757,928.18354 0.406978,-0.69871 3.827585,1.05976 -2.812353,-2.80273 0.479969,-0.82402 3.827585,1.05976 -2.812353,-2.80273 0.406978,-0.69871 3.604938,3.58987 -0.479969,0.82402 -4.018998,-1.11531 2.950682,2.94942 -0.479969,0.82402 -4.901073,-1.36464"
             inkscape:connector-curvature="0" />
          <path
             id="path3098"
             d="m 28.615626,923.94574 0.518777,-0.76854 0.925163,0.6245 -0.518777,0.76854 -0.925163,-0.6245"
             inkscape:connector-curvature="0" />
          <path
             id="path3100"
             d="m 31.219163,917.23953 2.357553,1.80749 -0.491979,0.64171 -2.336628,-1.79145 c -0.369676,-0.28342 -0.701609,-0.42347 -0.995802,-0.42014 -0.294191,0.003 -0.551804,0.14915 -0.77284,0.43744 -0.265596,0.34643 -0.364606,0.70429 -0.297031,1.07358 0.06758,0.36929 0.292018,0.70011 0.673317,0.99244 l 2.207591,1.69252 -0.494653,0.64518 -5.426558,-4.16043 0.494653,-0.64519 2.127378,1.63102 c -0.117175,-0.33348 -0.154567,-0.64825 -0.112174,-0.94431 0.04418,-0.29837 0.170548,-0.58357 0.379102,-0.8556 0.344031,-0.44872 0.743781,-0.68122 1.199251,-0.6975 0.453146,-0.018 0.949419,0.1797 1.48882,0.59324"
             inkscape:connector-curvature="0" />
          <path
             id="path3102"
             d="m 34.277428,914.48537 c -0.437109,0.48555 -0.684426,0.87194 -0.741952,1.15916 -0.05753,0.28722 0.04762,0.55138 0.315437,0.79247 0.213383,0.1921 0.445942,0.27531 0.697678,0.24965 0.251518,-0.0298 0.486065,-0.16555 0.70364,-0.40724 0.299899,-0.33313 0.422437,-0.70571 0.367614,-1.11772 -0.05504,-0.41615 -0.278526,-0.80064 -0.670452,-1.15346 l -0.133909,-0.12055 -0.538056,0.59769 m 0.830832,-1.4221 2.087012,1.87878 -0.540996,0.60096 -0.55523,-0.49983 c 0.0986,0.33711 0.109122,0.65602 0.03156,0.95674 -0.07974,0.29876 -0.252898,0.5962 -0.519474,0.89232 -0.337144,0.37451 -0.710196,0.57872 -1.119156,0.61264 -0.409179,0.0298 -0.790135,-0.1141 -1.14287,-0.43164 -0.411522,-0.37046 -0.598309,-0.78695 -0.560361,-1.24948 0.03991,-0.46469 0.305861,-0.9703 0.797853,-1.51683 l 0.758571,-0.84264 -0.05879,-0.0529 c -0.276526,-0.24894 -0.572234,-0.34958 -0.887124,-0.30193 -0.315106,0.0435 -0.62065,0.22966 -0.916631,0.55844 -0.188171,0.20903 -0.346403,0.43516 -0.474697,0.67838 -0.128291,0.24323 -0.224683,0.50137 -0.289177,0.77443 l -0.55523,-0.49983 c 0.113059,-0.29636 0.242008,-0.56658 0.386847,-0.81068 0.142668,-0.24605 0.302206,-0.46706 0.478616,-0.66303 0.476313,-0.52909 0.969251,-0.8008 1.478815,-0.81511 0.509565,-0.0143 1.04305,0.22944 1.600458,0.73123"
             inkscape:connector-curvature="0" />
          <path
             id="path3104"
             d="m 37.647375,907.88216 0.523126,0.54558 c -0.252132,0.0672 -0.483017,0.15873 -0.692656,0.2745 -0.209551,0.11163 -0.398913,0.24855 -0.568087,0.41076 -0.378524,0.36295 -0.556889,0.76532 -0.535093,1.20713 0.01977,0.43969 0.237486,0.87629 0.653148,1.30979 0.415662,0.43351 0.843744,0.67043 1.284245,0.71077 0.438472,0.0382 0.846971,-0.12414 1.225498,-0.48708 0.169171,-0.16221 0.31494,-0.3446 0.437306,-0.54716 0.122449,-0.2067 0.222552,-0.4346 0.300311,-0.68369 l 0.517044,0.53924 c -0.08984,0.23226 -0.204266,0.45157 -0.343283,0.65792 -0.136908,0.20433 -0.303693,0.40078 -0.500354,0.58935 -0.535013,0.51299 -1.121256,0.75242 -1.758733,0.71831 -0.637477,-0.0341 -1.229944,-0.33666 -1.777403,-0.90762 -0.555566,-0.57941 -0.833918,-1.1872 -0.835057,-1.82335 9.8e-4,-0.63816 0.27849,-1.22287 0.832531,-1.75411 0.179748,-0.17234 0.373514,-0.3216 0.581298,-0.44778 0.205758,-0.12829 0.424478,-0.23247 0.656159,-0.31256"
             inkscape:connector-curvature="0" />
          <path
             id="path3106"
             d="m 42.486317,904.81186 c -0.06634,-0.4104 -0.04266,-0.77056 0.07106,-1.08048 0.113716,-0.30991 0.320068,-0.58283 0.619057,-0.81876 0.402481,-0.31759 0.824578,-0.42114 1.266292,-0.31067 0.439894,0.10819 0.864914,0.42217 1.275064,0.94194 l 1.84021,2.33211 -0.638224,0.5036 -1.823876,-2.3114 c -0.292187,-0.37028 -0.574603,-0.59339 -0.847249,-0.66935 -0.272652,-0.0759 -0.543521,-0.008 -0.812607,0.20457 -0.328888,0.25953 -0.502574,0.57385 -0.521058,0.94296 -0.01849,0.36912 0.121083,0.74228 0.418713,1.11946 l 1.723155,2.18375 -0.638224,0.50361 -1.823876,-2.3114 c -0.293999,-0.37258 -0.576415,-0.5957 -0.847249,-0.66935 -0.272649,-0.0759 -0.545818,-0.006 -0.819507,0.21002 -0.324285,0.25589 -0.494764,0.56954 -0.511436,0.94096 -0.01848,0.36912 0.120179,0.74112 0.415991,1.116 l 1.723155,2.18376 -0.638224,0.50361 -3.048868,-3.86384 0.638223,-0.50361 0.473664,0.60028 c -0.04203,-0.35122 -0.0063,-0.66303 0.107153,-0.93543 0.113467,-0.2724 0.309345,-0.51839 0.587632,-0.73799 0.280589,-0.2214 0.574887,-0.33793 0.882897,-0.3496 0.310309,-0.0135 0.619685,0.0783 0.928129,0.27525"
             inkscape:connector-curvature="0" />
          <path
             id="path3108"
             d="m 49.485245,901.71791 c -0.550909,0.35119 -0.892435,0.65749 -1.024578,0.91891 -0.132143,0.26143 -0.101365,0.54407 0.09234,0.84794 0.154329,0.2421 0.356218,0.3844 0.605665,0.4269 0.250341,0.0385 0.512621,-0.0297 0.786842,-0.20453 0.377975,-0.24094 0.595565,-0.56725 0.652769,-0.97895 0.0581,-0.41573 -0.05459,-0.84593 -0.338048,-1.29062 l -0.09685,-0.15193 -0.678136,0.43228 m 1.180451,-1.14855 1.509444,2.36791 -0.681842,0.43465 -0.401574,-0.62996 c 0.005,0.3512 -0.07004,0.66134 -0.225097,0.93042 -0.156633,0.26661 -0.402939,0.507 -0.738917,0.72117 -0.424917,0.27087 -0.838957,0.36804 -1.242122,0.2915 -0.40227,-0.0806 -0.730963,-0.32097 -0.986081,-0.72118 -0.297636,-0.46691 -0.366407,-0.91816 -0.206312,-1.35375 0.162565,-0.43716 0.553888,-0.85338 1.173969,-1.24866 l 0.956061,-0.60944 -0.04252,-0.0667 c -0.200001,-0.31374 -0.458089,-0.4897 -0.774266,-0.52788 -0.315283,-0.0422 -0.659442,0.0556 -1.032479,0.29336 -0.237162,0.15118 -0.450038,0.32684 -0.638628,0.52696 -0.188589,0.20013 -0.350422,0.42315 -0.485499,0.66907 l -0.401574,-0.62996 c 0.188099,-0.2554 0.384533,-0.48137 0.589303,-0.67792 0.203197,-0.19901 0.415964,-0.36938 0.638303,-0.51112 0.600317,-0.38267 1.147914,-0.51286 1.642792,-0.39056 0.494876,0.1223 0.943889,0.49967 1.347039,1.1321"
             inkscape:connector-curvature="0" />
          <path
             id="path3110"
             d="m 55.83776,897.5502 1.393325,2.62369 -0.71414,0.37925 -1.380957,-2.6004 c -0.218482,-0.4114 -0.46221,-0.67671 -0.731183,-0.79593 -0.268977,-0.11921 -0.563887,-0.0936 -0.884731,0.0768 -0.385532,0.20475 -0.624289,0.48911 -0.716273,0.85308 -0.09198,0.36399 -0.0253,0.75815 0.200051,1.18249 l 1.304696,2.45679 -0.718021,0.38131 -2.308466,-4.34693 0.71802,-0.38131 0.358637,0.67532 c 0.03199,-0.35201 0.128775,-0.65386 0.290354,-0.90553 0.164167,-0.25304 0.397617,-0.45994 0.70035,-0.62071 0.499379,-0.2652 0.959593,-0.31057 1.380643,-0.13611 0.419673,0.17188 0.788904,0.55796 1.107695,1.15824"
             inkscape:connector-curvature="0" />
          <path
             id="path3112"
             d="m 58.347557,898.43451 0.843827,-0.38438 0.462704,1.0158 -0.843827,0.38437 -0.462704,-1.01579"
             inkscape:connector-curvature="0" />
          <path
             id="path3114"
             d="m 61.531932,893.57021 c -0.404562,0.15599 -0.663251,0.43786 -0.776069,0.84558 -0.113872,0.40501 -0.06488,0.88223 0.146975,1.43166 0.211855,0.54944 0.495089,0.93791 0.849704,1.1654 0.356292,0.22372 0.738086,0.25705 1.145382,0.1 0.401825,-0.15494 0.659148,-0.43627 0.771969,-0.84401 0.112815,-0.40773 0.06382,-0.88495 -0.146975,-1.43166 -0.20975,-0.54396 -0.493297,-0.92917 -0.850643,-1.15562 -0.358403,-0.22917 -0.738517,-0.26629 -1.140343,-0.11135 m -0.246638,-0.63965 c 0.656044,-0.25295 1.253524,-0.23842 1.792444,0.0436 0.538914,0.28204 0.953826,0.80028 1.244735,1.55473 0.289848,0.75172 0.330267,1.41436 0.121258,1.98792 -0.210071,0.57083 -0.643127,0.98272 -1.299169,1.23568 -0.658781,0.25402 -1.257628,0.24001 -1.796544,-0.042 -0.537238,-0.28582 -0.950783,-0.80458 -1.240635,-1.5563 -0.290905,-0.75445 -0.332691,-1.41656 -0.125358,-1.98634 0.210068,-0.57083 0.64449,-0.98325 1.303269,-1.23727"
             inkscape:connector-curvature="0" />
          <path
             id="path3116"
             d="m 67.958451,891.59267 c -0.102436,-0.0232 -0.208876,-0.0297 -0.319321,-0.0197 -0.108529,0.006 -0.224297,0.0289 -0.347304,0.0674 -0.436123,0.13666 -0.726923,0.38436 -0.872403,0.7431 -0.143561,0.35507 -0.132119,0.79819 0.03433,1.32936 l 0.775279,2.47415 -0.775793,0.2431 -1.471715,-4.69669 0.775792,-0.2431 0.228642,0.72967 c 0.07279,-0.33596 0.217725,-0.61317 0.434796,-0.83164 0.216193,-0.22124 0.5102,-0.39012 0.882023,-0.50664 0.05312,-0.0166 0.113138,-0.0308 0.180068,-0.0426 0.06605,-0.0145 0.140405,-0.0271 0.223066,-0.0377 l 0.252545,0.79125"
             inkscape:connector-curvature="0" />
          <path
             id="path3118"
             d="m 72.43243,892.1681 c -0.138034,-0.56944 -0.363167,-0.98212 -0.675402,-1.23804 -0.309392,-0.2566 -0.676206,-0.33348 -1.100442,-0.23066 -0.421393,0.10215 -0.71229,0.33846 -0.872693,0.70894 -0.157557,0.36979 -0.167321,0.83941 -0.02929,1.40885 0.137339,0.5666 0.360704,0.9782 0.670095,1.23481 0.312236,0.25591 0.67905,0.3328 1.100443,0.23065 0.424235,-0.10283 0.715133,-0.33914 0.872693,-0.70893 0.1604,-0.37048 0.171932,-0.83901 0.0346,-1.40562 m 1.235126,1.66307 c 0.197378,0.81431 0.163236,1.46318 -0.102428,1.94659 -0.264982,0.48626 -0.770459,0.8198 -1.516431,1.00062 -0.276185,0.067 -0.541883,0.10874 -0.797095,0.12539 -0.254527,0.0195 -0.507454,0.0145 -0.758783,-0.015 l -0.185306,-0.76448 c 0.260992,0.0694 0.5112,0.1067 0.750627,0.11197 0.239423,0.005 0.475872,-0.0204 0.709348,-0.077 0.515346,-0.12491 0.868365,-0.35367 1.059055,-0.68627 0.191373,-0.32976 0.221152,-0.76654 0.08934,-1.31037 l -0.09421,-0.38865 c -0.09397,0.32122 -0.250748,0.5823 -0.470331,0.78323 -0.21959,0.20094 -0.505912,0.3442 -0.858967,0.42978 -0.586532,0.14217 -1.11335,0.0332 -1.580454,-0.32683 -0.467106,-0.36006 -0.790034,-0.9088 -0.968783,-1.64624 -0.179439,-0.74028 -0.143959,-1.3774 0.106439,-1.91138 0.250398,-0.53397 0.668862,-0.87205 1.255393,-1.01422 0.353056,-0.0856 0.673195,-0.0893 0.960419,-0.0112 0.287219,0.0781 0.546138,0.23841 0.776758,0.48094 l -0.175988,-0.72605 0.785837,-0.19048 1.015558,4.18971"
             inkscape:connector-curvature="0" />
          <path
             id="path3120"
             d="m 75.367071,893.00629 0.912769,-0.16321 0.196471,1.09879 -0.912769,0.16321 -0.196471,-1.09879"
             inkscape:connector-curvature="0" />
          <path
             id="path3122"
             d="m 77.965537,891.70952 -0.345921,-2.95935 0.803125,-0.0939 0.34235,2.92879 c 0.05408,0.46268 0.184934,0.79986 0.392559,1.01156 0.207281,0.20879 0.491334,0.2921 0.852161,0.24992 0.433569,-0.0507 0.759322,-0.22886 0.977261,-0.53455 0.220843,-0.30603 0.303374,-0.69766 0.247595,-1.17488 l -0.323983,-2.77166 0.803126,-0.0939 0.571434,4.88859 -0.803126,0.0939 -0.08776,-0.75075 c -0.160271,0.31959 -0.36139,0.56728 -0.603359,0.74304 -0.239405,0.17252 -0.529333,0.27867 -0.869786,0.31847 -0.561608,0.0657 -1.008313,-0.0591 -1.340115,-0.37429 -0.331805,-0.31517 -0.536993,-0.80884 -0.615565,-1.48102 m 1.661211,-3.31342 0,0"
             inkscape:connector-curvature="0" />
          <path
             id="path3124"
             d="m 83.654101,886.20905 0.812345,-0.0323 0.160622,4.03538 2.326271,-2.21683 1.031898,-0.0411 -2.516702,2.40474 2.822231,2.50888 -1.053853,0.0419 -2.594114,-2.30245 0.0956,2.4019 -0.812345,0.0323 -0.271957,-6.83248"
             inkscape:connector-curvature="0" />
          <path
             id="path3126"
             d="m 94.771103,890.33444 2.35705,0.23416 -0.07125,0.71717 -2.35705,-0.23415 0.07125,-0.71718"
             inkscape:connector-curvature="0" />
          <path
             id="path3128"
             d="m 109.68271,893.63032 c -0.12686,0.39928 -0.12755,0.74489 -0.002,1.03683 0.12638,0.28915 0.36268,0.48873 0.70891,0.59874 0.34342,0.10912 0.64924,0.0802 0.91744,-0.0866 0.27098,-0.16597 0.46947,-0.44719 0.59545,-0.84367 0.1242,-0.3909 0.12216,-0.73277 -0.006,-1.0256 -0.12741,-0.29562 -0.36143,-0.49755 -0.70206,-0.60578 -0.33786,-0.10735 -0.64367,-0.0785 -0.91745,0.0866 -0.27099,0.16596 -0.46903,0.44579 -0.59412,0.83948 m 1.88468,1.97753 c -0.23584,0.16176 -0.47907,0.2597 -0.72968,0.29381 -0.24693,0.0322 -0.51419,0.003 -0.80178,-0.0888 -0.48025,-0.15259 -0.81614,-0.44991 -1.00768,-0.89194 -0.18787,-0.44395 -0.19308,-0.94513 -0.0156,-1.50356 0.17743,-0.55842 0.47237,-0.96424 0.88482,-1.21744 0.41244,-0.2532 0.85739,-0.30395 1.33485,-0.15225 0.28759,0.0914 0.52342,0.22472 0.7075,0.40002 0.18495,0.17251 0.32609,0.39103 0.42341,0.65558 l 0.17432,-0.54866 0.59892,0.1903 -0.97943,3.08251 c 0.42716,0.0681 0.80446,-0.0164 1.1319,-0.25362 0.3311,-0.23908 0.57517,-0.60573 0.7322,-1.09994 0.0949,-0.29875 0.13941,-0.59356 0.13346,-0.88441 -0.003,-0.28996 -0.0586,-0.57501 -0.16633,-0.85517 -0.17417,-0.45803 -0.44006,-0.84991 -0.79765,-1.17564 -0.35394,-0.32764 -0.77661,-0.56953 -1.26802,-0.72567 -0.34343,-0.10912 -0.68754,-0.16773 -1.03233,-0.17585 -0.3439,-0.0109 -0.67826,0.0304 -1.00308,0.12394 -0.52886,0.14552 -0.99117,0.41055 -1.38694,0.79508 -0.39209,0.38263 -0.67375,0.84339 -0.84497,1.38227 -0.14106,0.44395 -0.19367,0.88526 -0.15783,1.32394 0.0386,0.43956 0.16309,0.85567 0.3734,1.24834 0.2009,0.38353 0.47006,0.7119 0.80747,0.98511 0.33652,0.27599 0.72396,0.48363 1.16233,0.62292 0.36018,0.11444 0.7329,0.16524 1.11817,0.15239 0.38716,-0.009 0.76186,-0.0807 1.12411,-0.21459 l 0.22922,0.58466 c -0.43508,0.15993 -0.88185,0.24545 -1.34033,0.25656 -0.45658,0.0148 -0.89707,-0.0453 -1.32147,-0.18011 -0.51655,-0.16413 -0.9745,-0.41108 -1.37385,-0.74085 -0.40025,-0.32699 -0.72362,-0.72177 -0.97011,-1.18434 -0.2465,-0.46257 -0.39054,-0.95253 -0.43212,-1.46988 -0.0407,-0.52014 0.0228,-1.04407 0.19048,-1.57179 0.16146,-0.50816 0.41031,-0.96243 0.74656,-1.36281 0.33625,-0.40037 0.73572,-0.71918 1.19843,-0.95641 0.47285,-0.24016 0.97493,-0.37881 1.50625,-0.41595 0.53219,-0.0399 1.06215,0.0239 1.58986,0.19161 0.59193,0.18808 1.10199,0.48386 1.53019,0.88735 0.43098,0.40439 0.74721,0.88451 0.94871,1.44037 0.12246,0.34016 0.18713,0.68809 0.19401,1.04379 0.01,0.35658 -0.0401,0.70659 -0.14919,1.05002 -0.23334,0.73433 -0.6394,1.24317 -1.21819,1.52651 -0.5788,0.28335 -1.26176,0.30919 -2.04887,0.0775 l 0.20493,-0.64498"
             inkscape:connector-curvature="0" />
          <path
             id="path3130"
             d="m 120.04587,896.93054 -1.19012,2.72189 -0.74087,-0.32394 1.17956,-2.69773 c 0.18661,-0.4268 0.24307,-0.78262 0.16937,-1.06745 -0.0737,-0.28483 -0.27699,-0.50001 -0.60984,-0.64555 -0.39997,-0.17488 -0.77113,-0.18528 -1.11347,-0.0312 -0.34236,0.15407 -0.60978,0.45122 -0.80226,0.89144 l -1.11442,2.54875 -0.7449,-0.3257 2.7394,-6.26517 0.7449,0.3257 -1.07393,2.45614 c 0.2957,-0.19365 0.59235,-0.30535 0.88994,-0.33511 0.30027,-0.0286 0.60744,0.0258 0.92151,0.16311 0.51806,0.22652 0.83955,0.55894 0.96446,0.99725 0.12607,0.43563 0.053,0.96482 -0.21933,1.58758"
             inkscape:connector-curvature="0" />
          <path
             id="path3132"
             d="m 123.45305,899.24306 c -0.5759,-0.30849 -1.01018,-0.45637 -1.30282,-0.44363 -0.29265,0.0127 -0.52405,0.17793 -0.69421,0.49557 -0.13557,0.25309 -0.16083,0.49879 -0.0758,0.73711 0.089,0.23713 0.27685,0.43246 0.56351,0.58602 0.39512,0.21166 0.78617,0.24167 1.17317,0.09 0.39096,-0.15284 0.71095,-0.46169 0.95996,-0.92654 l 0.0851,-0.15882 -0.7089,-0.37974 m 1.57937,0.46715 -1.32597,2.47533 -0.71277,-0.38182 0.35276,-0.65854 c -0.3038,0.17627 -0.61097,0.26265 -0.92151,0.25916 -0.30916,-0.006 -0.63935,-0.10319 -0.99057,-0.29133 -0.44419,-0.23794 -0.73159,-0.55143 -0.8622,-0.94045 -0.12665,-0.39022 -0.0779,-0.79452 0.14619,-1.21289 0.26146,-0.48809 0.62129,-0.76894 1.07949,-0.84256 0.46078,-0.0722 1.01528,0.0653 1.66349,0.4125 l 0.99943,0.53537 0.0374,-0.0697 c 0.17568,-0.32798 0.20279,-0.63916 0.0813,-0.93356 -0.11752,-0.2956 -0.37125,-0.54784 -0.76121,-0.75673 -0.24792,-0.1328 -0.5053,-0.23245 -0.77212,-0.29894 -0.26683,-0.0665 -0.54052,-0.0984 -0.82108,-0.0959 l 0.35276,-0.65854 c 0.31478,0.039 0.60798,0.0997 0.87961,0.18204 0.273,0.0798 0.52571,0.18191 0.75814,0.30641 0.62755,0.33616 1.00912,0.74994 1.14472,1.24134 0.13559,0.49141 0.0263,1.06767 -0.32783,1.72879"
             inkscape:connector-curvature="0" />
          <path
             id="path3134"
             d="m 130.67077,900.94181 -0.40519,0.63808 c -0.12538,-0.22885 -0.26927,-0.43127 -0.43166,-0.60728 -0.15837,-0.1769 -0.33647,-0.32818 -0.53432,-0.45382 -0.44271,-0.28111 -0.876,-0.35844 -1.29987,-0.23198 -0.42232,0.124 -0.79445,0.4395 -1.11639,0.9465 -0.32196,0.507 -0.45003,0.97921 -0.38421,1.41663 0.0674,0.43495 0.32241,0.79298 0.76512,1.0741 0.19785,0.12564 0.40972,0.22374 0.63561,0.2943 0.22993,0.0697 0.47512,0.11256 0.73556,0.12871 l -0.40047,0.63067 c -0.24698,-0.0319 -0.48724,-0.0908 -0.72078,-0.17659 -0.23107,-0.0843 -0.46161,-0.19943 -0.69161,-0.34548 -0.62572,-0.39733 -0.99798,-0.90962 -1.11677,-1.53686 -0.1188,-0.62724 0.0338,-1.27473 0.45785,-1.9425 0.43031,-0.67765 0.95424,-1.09283 1.57179,-1.24555 0.62001,-0.15114 1.254,-0.021 1.90198,0.39048 0.21022,0.1335 0.40136,0.2861 0.57342,0.45783 0.17363,0.16925 0.32694,0.35684 0.45994,0.56276"
             inkscape:connector-curvature="0" />
          <path
             id="path3136"
             d="m 134.80579,904.91129 c 0.3828,-0.16215 0.73825,-0.2249 1.06633,-0.18824 0.32807,0.0367 0.64228,0.1721 0.94261,0.40632 0.40427,0.3153 0.60535,0.7006 0.60322,1.15591 -3.5e-4,0.45301 -0.20411,0.94056 -0.61128,1.46267 l -1.8269,2.34254 -0.64108,-0.49997 1.81069,-2.32175 c 0.29006,-0.37194 0.43952,-0.69936 0.44838,-0.98225 0.009,-0.28289 -0.12188,-0.52973 -0.39217,-0.74053 -0.33036,-0.25764 -0.67699,-0.3515 -1.03989,-0.28157 -0.36291,0.0699 -0.6921,0.29433 -0.98758,0.6732 l -1.71069,2.19354 -0.64108,-0.49997 1.81069,-2.32175 c 0.29187,-0.37425 0.44133,-0.70167 0.44838,-0.98225 0.009,-0.28289 -0.12419,-0.53153 -0.39909,-0.74593 -0.32575,-0.25404 -0.67097,-0.34494 -1.03567,-0.2727 -0.36291,0.0699 -0.6912,0.29317 -0.98487,0.66973 l -1.7107,2.19354 -0.64108,-0.49997 3.02683,-3.88113 0.64108,0.49997 -0.47024,0.60296 c 0.33111,-0.12444 0.64246,-0.16399 0.93404,-0.11865 0.29157,0.0454 0.57713,0.17703 0.85667,0.39503 0.28184,0.21981 0.46509,0.4779 0.54976,0.77427 0.087,0.29818 0.0715,0.6205 -0.0464,0.96698"
             inkscape:connector-curvature="0" />
          <path
             id="path3138"
             d="m 139.47701,910.97162 c -0.47236,-0.45134 -0.85123,-0.71003 -1.13661,-0.77606 -0.28539,-0.066 -0.55255,0.0312 -0.8015,0.29176 -0.19834,0.20758 -0.28843,0.43756 -0.27025,0.68995 0.0223,0.25229 0.15103,0.49077 0.38615,0.71543 0.32408,0.30966 0.69285,0.44321 1.10631,0.40065 0.4176,-0.0427 0.80856,-0.25462 1.17287,-0.63589 l 0.12447,-0.13027 -0.58144,-0.55557 m 1.39679,0.8727 -1.93995,2.03029 -0.58462,-0.55861 0.51611,-0.54014 c -0.33989,0.0885 -0.65898,0.0896 -0.95726,0.003 -0.29626,-0.0886 -0.58843,-0.2705 -0.8765,-0.54575 -0.36433,-0.34812 -0.55737,-0.72707 -0.57912,-1.13686 -0.0176,-0.40988 0.13751,-0.7864 0.46539,-1.12954 0.38253,-0.40034 0.80438,-0.57467 1.26558,-0.523 0.4633,0.0537 0.96079,0.33454 1.49246,0.84255 l 0.81974,0.78327 0.0546,-0.0572 c 0.25704,-0.26901 0.36642,-0.5616 0.32815,-0.87777 -0.0341,-0.31625 -0.21113,-0.62719 -0.53097,-0.93281 -0.20335,-0.1943 -0.42468,-0.35918 -0.66398,-0.49464 -0.23931,-0.13546 -0.49447,-0.23947 -0.7655,-0.31205 l 0.51611,-0.54014 c 0.29286,0.12181 0.55914,0.25873 0.79883,0.41076 0.2417,0.14991 0.45787,0.31594 0.64851,0.4981 0.51472,0.49182 0.77166,0.99261 0.77083,1.50237 -8.4e-4,0.50977 -0.26032,1.03578 -0.77845,1.57803"
             inkscape:connector-curvature="0" />
          <path
             id="path3140"
             d="m 145.03939,916.14489 -2.21492,1.97969 -0.53885,-0.60288 2.19526,-1.96212 c 0.34731,-0.31043 0.54672,-0.61047 0.59825,-0.90014 0.0515,-0.28966 -0.0438,-0.56992 -0.28587,-0.84078 -0.2909,-0.32547 -0.62406,-0.48939 -0.99947,-0.49177 -0.37542,-0.002 -0.74225,0.15652 -1.10048,0.47671 l -2.07403,1.85376 -0.54178,-0.60616 3.6697,-3.27996 0.54178,0.60616 -0.57012,0.50956 c 0.34947,-0.053 0.6657,-0.0311 0.94868,0.0657 0.28493,0.099 0.5416,0.27624 0.77004,0.53181 0.37679,0.42158 0.53078,0.85763 0.46195,1.30817 -0.0667,0.44858 -0.35337,0.89934 -0.86014,1.35229"
             inkscape:connector-curvature="0" />
          <path
             id="path3142"
             d="m 149.75808,919.31402 -0.59968,0.46013 c -0.0392,-0.25799 -0.10479,-0.49752 -0.19686,-0.71859 -0.088,-0.22053 -0.2033,-0.42377 -0.34597,-0.60972 -0.31924,-0.41605 -0.69962,-0.63747 -1.14115,-0.66427 -0.43921,-0.0286 -0.89706,0.13993 -1.37354,0.50553 -0.47649,0.36561 -0.75893,0.76512 -0.84735,1.19853 -0.0861,0.43164 0.0305,0.85548 0.34972,1.27154 0.14267,0.18594 0.30797,0.35083 0.49589,0.49468 0.19202,0.14438 0.40756,0.26888 0.64662,0.37349 l -0.5927,0.45478 c -0.221,-0.11477 -0.42644,-0.25257 -0.6163,-0.41338 -0.18808,-0.1585 -0.36504,-0.34582 -0.5309,-0.56198 -0.45121,-0.58806 -0.62489,-1.19703 -0.52106,-1.82691 0.10384,-0.62989 0.46954,-1.1856 1.09711,-1.66712 0.63686,-0.48866 1.2715,-0.69867 1.90394,-0.63002 0.63421,0.071 1.18495,0.41095 1.65221,1.01992 0.15158,0.19757 0.27869,0.40654 0.38132,0.62691 0.10493,0.21859 0.1845,0.44741 0.2387,0.68648"
             inkscape:connector-curvature="0" />
          <path
             id="path3144"
             d="m 151.55168,925.14543 -2.48586,1.62653 -0.44272,-0.67662 2.46379,-1.61209 c 0.38979,-0.25505 0.6318,-0.52193 0.72602,-0.80065 0.0942,-0.27872 0.0419,-0.57007 -0.15703,-0.87406 -0.23901,-0.36528 -0.54394,-0.57714 -0.91478,-0.63559 -0.37085,-0.0584 -0.75729,0.0439 -1.15934,0.30694 l -2.32774,1.52306 -0.44513,-0.6803 5.72189,-3.7439 0.44513,0.6803 -2.24316,1.46773 c 0.35347,-2.1e-4 0.66288,0.0687 0.92822,0.20666 0.26694,0.14043 0.49425,0.35406 0.68193,0.64089 0.30958,0.47315 0.39668,0.92732 0.26131,1.36251 -0.13294,0.43358 -0.48378,0.83645 -1.05253,1.20859"
             inkscape:connector-curvature="0" />
          <path
             id="path3146"
             d="m 154.25006,930.58557 -0.34709,0.18962 -1.78239,-3.26266 c -0.47164,0.29772 -0.76439,0.64793 -0.87822,1.05063 -0.10987,0.40387 -0.0363,0.84105 0.22075,1.31156 0.14888,0.27252 0.32627,0.5178 0.53217,0.73582 0.2073,0.22058 0.44662,0.42033 0.71797,0.59926 l -0.67105,0.36659 c -0.24703,-0.19554 -0.47187,-0.41156 -0.6745,-0.64804 -0.20264,-0.2365 -0.3791,-0.49229 -0.52939,-0.76739 -0.37642,-0.68904 -0.47435,-1.34495 -0.29378,-1.96771 0.18197,-0.62019 0.61491,-1.1171 1.29881,-1.49071 0.70703,-0.38625 1.37146,-0.50219 1.99327,-0.34781 0.62579,0.15555 1.11566,0.55728 1.46961,1.20518 0.31742,0.58106 0.38045,1.14252 0.18908,1.6844 -0.18741,0.54303 -0.60249,0.99012 -1.24524,1.34126 m -0.17941,-0.82337 c 0.38542,-0.21724 0.63554,-0.49576 0.75036,-0.83556 0.11621,-0.33724 0.0788,-0.68069 -0.1122,-1.03035 -0.21631,-0.39594 -0.50161,-0.65237 -0.85591,-0.76928 -0.35291,-0.11434 -0.7423,-0.0785 -1.16819,0.10738 l 1.38594,2.52781"
             inkscape:connector-curvature="0" />
          <path
             id="path3148"
             d="m 158.12964,933.93781 -0.69582,0.31706 c 0.0119,-0.25654 -0.007,-0.50893 -0.0553,-0.75716 -0.0487,-0.24824 -0.12775,-0.49233 -0.23707,-0.73226 -0.16643,-0.36524 -0.34754,-0.61433 -0.54332,-0.74726 -0.19458,-0.13026 -0.40384,-0.14438 -0.62778,-0.0423 -0.17063,0.0777 -0.27549,0.20441 -0.31461,0.37999 -0.0365,0.17436 -0.009,0.47887 0.083,0.91352 l 0.0588,0.27745 c 0.12612,0.57355 0.13635,1.0164 0.0307,1.32854 -0.10179,0.3136 -0.3353,0.55361 -0.70054,0.72004 -0.41589,0.1895 -0.82045,0.17423 -1.21369,-0.0458 -0.39202,-0.21737 -0.71922,-0.61398 -0.98161,-1.18983 -0.10933,-0.23994 -0.19953,-0.50147 -0.27059,-0.7846 -0.0725,-0.27925 -0.12771,-0.5841 -0.16559,-0.91454 l 0.7598,-0.34621 c -0.0174,0.33631 -0.002,0.65283 0.0463,0.94956 0.0509,0.29552 0.13533,0.57257 0.25317,0.83117 0.15791,0.34658 0.33804,0.58645 0.54038,0.71962 0.205,0.13195 0.41547,0.14873 0.63142,0.0503 0.19995,-0.0911 0.32226,-0.22894 0.36695,-0.41349 0.0459,-0.18189 0.0143,-0.52325 -0.0948,-1.02408 l -0.0566,-0.28326 c -0.11175,-0.49961 -0.11515,-0.89567 -0.0102,-1.18818 0.10763,-0.29372 0.33473,-0.51954 0.68131,-0.67746 0.42121,-0.19194 0.81449,-0.19084 1.17982,0.003 0.36532,0.19412 0.67311,0.56578 0.92336,1.11497 0.1239,0.27193 0.22052,0.53697 0.28987,0.79513 0.0693,0.25816 0.11017,0.50676 0.12252,0.74582"
             inkscape:connector-curvature="0" />
          <path
             id="path3150"
             d="m 160.54928,935.82673 -1.30332,0.50423 0.60096,1.55333 -0.58608,0.22675 -0.60096,-1.55333 -2.49189,0.96407 c -0.37433,0.14482 -0.59521,0.28839 -0.66266,0.43072 -0.0664,0.14505 -0.0388,0.37469 0.0828,0.68891 l 0.29969,0.77461 -0.63117,0.24419 -0.29969,-0.77462 c -0.22516,-0.58198 -0.27262,-1.02539 -0.14239,-1.33022 0.13296,-0.30588 0.48633,-0.56982 1.06012,-0.79181 l 2.49188,-0.96407 -0.21406,-0.5533 0.58609,-0.22675 0.21406,0.5533 1.30332,-0.50423 0.29334,0.75822"
             inkscape:connector-curvature="0" />
          <path
             id="path3152"
             d="m 159.42468,943.88228 -0.3773,0.11864 -1.11522,-3.54656 c -0.52047,0.20051 -0.87561,0.48724 -1.06545,0.86019 -0.18616,0.37486 -0.19883,0.81802 -0.038,1.32946 0.0932,0.29624 0.21957,0.57128 0.37924,0.82512 0.16054,0.25662 0.35654,0.49903 0.58799,0.72722 l -0.72943,0.22938 c -0.20439,-0.23978 -0.38302,-0.49533 -0.5359,-0.76664 -0.15288,-0.27133 -0.27634,-0.55651 -0.37038,-0.85555 -0.23552,-0.749 -0.20428,-1.41144 0.0937,-1.98731 0.29889,-0.57308 0.82004,-0.9765 1.56345,-1.21027 0.76856,-0.24167 1.44285,-0.22645 2.02288,0.0457 0.58369,0.27405 0.98627,0.76322 1.20774,1.4675 0.1986,0.63162 0.15146,1.19464 -0.14145,1.68906 -0.28924,0.49634 -0.78321,0.85436 -1.48189,1.07407 m -0.0162,-0.84254 c 0.42025,-0.1383 0.71967,-0.36297 0.89826,-0.67403 0.17946,-0.30827 0.20943,-0.65244 0.0899,-1.03253 -0.13535,-0.4304 -0.36545,-0.73732 -0.69033,-0.92078 -0.324,-0.18066 -0.71293,-0.22113 -1.16681,-0.1214 l 0.86896,2.74874"
             inkscape:connector-curvature="0" />
          <path
             id="path3154"
             d="m 161.92278,947.75704 c 0.0297,-0.10072 0.0432,-0.20651 0.0403,-0.31738 6.5e-4,-0.10871 -0.0143,-0.22569 -0.0448,-0.35093 -0.10817,-0.44405 -0.33654,-0.75027 -0.68512,-0.91865 -0.34504,-0.16623 -0.78797,-0.18348 -1.3288,-0.0517 l -2.51912,0.6136 -0.1924,-0.78989 4.78206,-1.16481 0.1924,0.78989 -0.74293,0.18097 c 0.33055,0.0944 0.59781,0.25693 0.80177,0.48768 0.2068,0.23005 0.35631,0.53437 0.44853,0.91295 0.0132,0.0541 0.0234,0.1149 0.0309,0.18245 0.0103,0.0668 0.018,0.14186 0.0232,0.22503 l -0.80593,0.20083"
             inkscape:connector-curvature="0" />
          <path
             id="path3156"
             d="m 161.7089,954.52985 0.25661,2.35471 -0.71646,0.0781 -0.25662,-2.35471 0.71647,-0.0781"
             inkscape:connector-curvature="0" />
        </g>
        <g
           transform="translate(128.40408,68.696323)"
           id="g4072">
          <path
             sodipodi:type="arc"
             style="fill:#000000;fill-opacity:1;stroke:none"
             id="path4070"
             sodipodi:cx="-68.75"
             sodipodi:cy="7.7010584"
             sodipodi:rx="54.107143"
             sodipodi:ry="51.964287"
             d="m -14.642857,7.7010584 c 0,28.6990836 -24.224593,51.9642866 -54.107143,51.9642866 -29.88255,0 -54.10714,-23.265203 -54.10714,-51.9642866 0,-28.6990834 24.22459,-51.9642864 54.10714,-51.9642864 29.88255,0 54.107143,23.265203 54.107143,51.9642864 z"
             transform="matrix(1.059406,0,0,1.059406,33.01273,886.92465)" />
          <g
             id="g4006"
             transform="matrix(0.86907753,0,0,0.86907753,-657.33721,390.18811)">
            <g
               style="display:inline"
               inkscape:label="hacmanwhite"
               id="layer4"
               transform="matrix(0.1952863,0,0,0.1952863,615.47306,527.21621)">
              <g
                 inkscape:export-ydpi="20.968761"
                 inkscape:export-xdpi="20.968761"
                 inkscape:export-filename="/Users/parag0n/Documents/svn.hacman.org.uk/Logos/PNG/126/hackspace-white.png"
                 transform="matrix(1.25,0,0,-1.25,54.022365,879.75952)"
                 style="fill:#ffffff"
                 id="g23">
                <g
                   id="text25"
                   style="fill:#ffffff"
                   transform="matrix(1,0,0,-1,78,421.4)">
                  <path
                     id="path3083"
                     style="font-size:200px;font-variant:normal;font-weight:bold;writing-mode:lr-tb;fill:#ffffff;fill-opacity:1;fill-rule:nonzero;stroke:none;font-family:Courier;-inkscape-font-specification:Courier-Bold"
                     d="m 81.8,-48.2 0,28.2 -3,0 c -4.799995,0 -6.600002,0.200001 -8.4,1.4 -2.999997,1.799998 -4.8,5.200003 -4.8,8.6 0,2.999997 1.600003,6.200002 4.2,8.2 1.799998,1.1999988 4.200005,1.8 9,1.8 L 103,0 c 4.2,0 6.8,-0.400001 8.4,-1.4 3,-1.7999982 4.8,-5.2000034 4.8,-8.6 0,-3.199997 -1.6,-6.200002 -4.2,-8.2 -1.8,-1.399999 -3.60001,-1.8 -9,-1.8 l -1.2,0 0,-76.6 c 6.59999,-0.599999 10.4,-4.20001 10.4,-10 0,-3.2 -1.6,-6.2 -4,-8.2 -2,-1.4 -3.80001,-1.8 -9.2,-1.8 l -20.2,0 c -4.999995,0 -6.600002,0.2 -8.4,1.4 -2.999997,1.8 -4.8,5.2 -4.8,8.6 0,3.2 1.600003,6.2 4.2,8.2 1.999998,1.399999 3.800005,1.8 9,1.8 l 3,0 0,28.4 -42.8,0 0,-28.4 3,0 c 4.799995,0 6.600002,-0.400001 8.4,-1.4 2.999997,-1.799998 4.8,-5.2 4.8,-8.6 0,-3.2 -1.600003,-6.2 -4.2,-8.2 -1.799998,-1.4 -3.600005,-1.8 -9,-1.8 l -20.2,0 c -4.999995,0 -6.600002,0.2 -8.4,1.4 -2.999997,1.8 -4.8,5.2 -4.8,8.6 0,5.79999 3.800007,9.400001 10.4,10 l 0,76.6 -1.2,0 c -4.999995,0 -6.600002,0.200001 -8.4,1.4 -2.999997,1.799998 -4.8,5.200003 -4.8,8.6 0,2.999997 1.6000024,6.200002 4,8.2 1.799998,1.1999988 4.400005,1.8 9.2,1.8 L 42,0 c 4.199996,0 6.800002,-0.400001 8.4,-1.4 2.999997,-1.7999982 4.8,-5.2000034 4.8,-8.6 0,-3.199997 -1.600003,-6.200002 -4.2,-8.2 -1.799998,-1.399999 -3.800005,-1.8 -9,-1.8 l -3,0 0,-28.2 42.8,0"
                     inkscape:connector-curvature="0" />
                  <path
                     id="path3085"
                     style="font-size:200px;font-variant:normal;font-weight:bold;writing-mode:lr-tb;fill:#ffffff;fill-opacity:1;fill-rule:nonzero;stroke:none;font-family:Courier;-inkscape-font-specification:Courier-Bold"
                     d="M 197.6,0 221,0 c 4.2,0 7,-0.400001 8.4,-1.4 3,-1.7999982 4.8,-5.2000034 4.8,-8.6 0,-3.199997 -1.6,-6.200002 -4,-8.2 -2,-1.399999 -3.80001,-1.8 -9.2,-1.8 l -3.2,0 0,-40.4 c 0,-18.599981 -14.80002,-29.6 -39.4,-29.6 -9.99999,0 -24.80001,2.600003 -34.4,6 -4,1.399999 -6,4.200004 -6,8.4 0,5.799994 4.20001,10.2 9.8,10.2 1.8,0 4.6,-0.400001 8,-1.2 9.19999,-2.399998 16.60001,-3.4 23.2,-3.4 12.79999,0 18.6,3.000007 18.6,9.8 l 0,4.6 c -8.19999,-1.399999 -14.40001,-2 -20.8,-2 -17.79998,0 -31.60001,5.20001 -40.6,15.2 -4.8,5.399995 -7.8,12.400006 -7.8,18.6 0,14.7999852 16.20002,27 36,27 11.79999,0 23.60001,-2.800005 33.2,-7.8 l 0,4.6 m 0.2,-27 c -10.99999,6.799993 -22.20001,10.2 -33,10.2 -8.59999,0 -15.2,-3.400004 -15.2,-7.8 0,-7.599992 12.40001,-14.6 26,-14.6 6.79999,0 14.20001,0.800001 22.2,2.2 l 0,10"
                     inkscape:connector-curvature="0" />
                </g>
              </g>
              <g
                 inkscape:export-ydpi="20.968761"
                 inkscape:export-xdpi="20.968761"
                 inkscape:export-filename="/Users/parag0n/Documents/svn.hacman.org.uk/Logos/PNG/126/hackspace-white.png"
                 transform="matrix(1.25,0,0,-1.25,54.022365,879.75952)"
                 style="stroke:#ffffff;stroke-opacity:1"
                 id="g29">
                <path
                   id="path31"
                   style="fill:none;stroke:#ffffff;stroke-width:14.14999008;stroke-linecap:butt;stroke-linejoin:round;stroke-miterlimit:10;stroke-opacity:1;stroke-dasharray:none"
                   d="m 481.9,530.2 0,-70.9"
                   inkscape:connector-curvature="0" />
              </g>
              <g
                 inkscape:export-ydpi="20.968761"
                 inkscape:export-xdpi="20.968761"
                 inkscape:export-filename="/Users/parag0n/Documents/svn.hacman.org.uk/Logos/PNG/126/hackspace-white.png"
                 transform="matrix(1.25,0,0,-1.25,54.022365,879.75952)"
                 style="fill:#ffffff"
                 id="g33">
                <g
                   id="text35"
                   style="fill:#ffffff"
                   transform="matrix(0,1,1,0,513.3,282.2)">
                  <path
                     id="path3093"
                     style="font-size:150px;font-variant:normal;font-weight:bold;writing-mode:lr-tb;fill:#ffffff;fill-opacity:1;fill-rule:nonzero;stroke:none;font-family:Courier;-inkscape-font-specification:Courier-Bold"
                     d="m 21.3,-58.35 17.7,37.65 13.65,0 16.65,-37.65 0,43.35 -5.25,0 c -3.899996,0 -4.950001,0.150001 -6.3,1.05 -2.249998,1.349999 -3.6,3.900003 -3.6,6.45 0,2.2499977 1.200002,4.6500013 3.15,6 1.199999,1.04999895 3.300003,1.5 6.75,1.5 l 19.5,0 c 2.999997,0 5.250001,-0.4500006 6.3,-1.05 2.249998,-1.4999985 3.6,-3.9000026 3.6,-6.45 0,-4.799995 -3.300006,-7.5 -9.15,-7.5 l 0,-57.45 c 4.949995,-0.45 7.8,-3.150004 7.8,-7.5 0,-2.399998 -1.200002,-4.650002 -3,-6.15 -1.499998,-1.049999 -2.850004,-1.35 -6.9,-1.35 l -16.5,0 -20.25,44.55 -20.7,-44.55 -16.35,0 C 8.2500002,-87.6 8.0999997,-87.6 7.8,-87.6 c -1.7999982,0 -4.9500008,0.6 -5.7,1.05 -2.24999775,1.499998 -3.6,4.050002 -3.6,6.45 0,4.499995 2.850005,7.2 7.8,7.65 l 0,57.45 c -5.84999415,0 -9.15,2.700005 -9.15,7.5 0,2.3999976 1.200002,4.6500013 3.15,6 C 1.6499986,-0.45000105 3.6000036,0 7.2,0 l 19.35,0 c 2.999997,0 5.250001,-0.4500006 6.3,-1.05 2.249998,-1.4999985 3.6,-3.9000026 3.6,-6.45 0,-2.3999976 -1.050002,-4.650002 -3,-6.15 -1.649998,-1.049999 -2.850004,-1.35 -6.9,-1.35 l -5.25,0 0,-43.35"
                     inkscape:connector-curvature="0" />
                </g>
              </g>
              <g
                 inkscape:export-ydpi="20.968761"
                 inkscape:export-xdpi="20.968761"
                 inkscape:export-filename="/Users/parag0n/Documents/svn.hacman.org.uk/Logos/PNG/126/hackspace-white.png"
                 transform="matrix(1.25,0,0,-1.25,54.022365,879.75952)"
                 style="fill:#ffffff;fill-opacity:1;stroke:none"
                 id="g39">
                <g
                   id="text41"
                   style="fill:#ffffff"
                   transform="matrix(0,1,1,0,513.3,608.1)">
                  <path
                     id="path3089"
                     style="font-size:150px;font-variant:normal;font-weight:bold;writing-mode:lr-tb;fill:#ffffff;fill-rule:nonzero;font-family:Courier;-inkscape-font-specification:Courier-Bold"
                     d="M 25.95,-59.1 64.8,0 l 14.85,0 0,-72.45 c 5.999994,0 9.15,-2.700005 9.15,-7.5 0,-2.399998 -1.200002,-4.650002 -3.15,-6.15 -1.499998,-1.049999 -2.700004,-1.35 -6.75,-1.35 l -19.5,0 c -3.899996,0 -4.950001,0.150001 -6.3,1.05 -2.249998,1.349999 -3.6,3.900003 -3.6,6.45 0,2.399998 1.200002,4.650002 3.15,6.15 1.349999,1.049999 3.000004,1.35 6.75,1.35 l 5.25,0 0,43.8 -38.7,-58.8 -17.25,0 c -3.8999961,0 -4.9500014,0.150001 -6.3,1.05 -2.24999775,1.349999 -3.6,3.900003 -3.6,6.45 0,2.399998 1.20000195,4.650002 3.15,6.15 1.3499986,1.049999 3.0000038,1.35 6.75,1.35 l 2.25,0 0,57.45 c -5.8499941,0 -9.15,2.700005 -9.15,7.5 0,2.3999976 1.2000019,4.6500013 3.15,6 1.3499986,1.04999895 3.3000036,1.5 6.9,1.5 L 31.2,0 c 2.999997,0 5.250001,-0.4500006 6.3,-1.05 2.249998,-1.4999985 3.6,-3.9000026 3.6,-6.45 0,-2.3999976 -1.050002,-4.650002 -3,-6.15 C 36.600001,-14.699999 35.249996,-15 31.2,-15 l -5.25,0 0,-44.1"
                     inkscape:connector-curvature="0" />
                </g>
              </g>
              <path
                 inkscape:export-ydpi="20.968761"
                 inkscape:export-xdpi="20.968761"
                 inkscape:export-filename="/Users/parag0n/Documents/svn.hacman.org.uk/Logos/PNG/126/hackspace-white.png"
                 id="path45"
                 style="fill:#e6e64c;fill-opacity:1;fill-rule:evenodd;stroke:none"
                 d="m 585.52236,394.13449 -12.75,-0.625 -12.25,-1.875 -11.875,-3 -11.375,-4.25 -10.875,-5.125 -10.25,-6.25 -9.5,-7.125 -8.875,-8 -8,-8.87501 -7.125,-9.5 -6.25,-10.25 -5.125,-10.875 -4.25,-11.375 -3,-11.875 -1.875,-12.25 -0.625,-12.75 0.625,-12.625 1.875,-12.375 3,-11.875 4.25,-11.375 5.125,-10.875 6.25,-10.125 7.125,-9.625 8,-8.75 8.875,-8 9.5,-7.125 10.25,-6.25 10.875,-5.25 11.375,-4.125 11.875,-3.125 12.25,-1.875 12.75,-0.625 12.625,0.625 12.375,1.875 11.875,3.125 11.375,4.125 10.875,5.25 10.25,6.25 9.5,7.125 8.875,8 8,8.75 7.125,9.625 6.125,10.125 -109,59.125 109,59.125 -6.125,10.25 -7.125,9.5 -8,8.87501 -8.875,8 -9.5,7.125 -10.25,6.25 -10.875,5.125 -11.375,4.25 -11.875,3 -12.375,1.875 -12.625,0.625 z"
                 inkscape:connector-curvature="0" />
              <g
                 inkscape:export-ydpi="20.968761"
                 inkscape:export-xdpi="20.968761"
                 inkscape:export-filename="/Users/parag0n/Documents/svn.hacman.org.uk/Logos/PNG/126/hackspace-white.png"
                 transform="matrix(1.25,0,0,-1.25,54.022365,879.75952)"
                 style="stroke:#ffffff;stroke-opacity:1"
                 id="g47">
                <path
                   id="path49"
                   style="fill:none;stroke:#ffffff;stroke-width:11.31999969;stroke-linecap:butt;stroke-linejoin:round;stroke-miterlimit:10;stroke-opacity:1;stroke-dasharray:none"
                   d="m 425.2,388.5 -10.2,0.5 -9.8,1.5 -9.5,2.4 -9.1,3.4 -8.7,4.1 -8.2,5 -7.6,5.7 -7.1,6.4 -6.4,7.1 -5.7,7.6 -5,8.2 -4.1,8.7 -3.4,9.1 -2.4,9.5 -1.5,9.8 -0.5,10.2 0.5,10.1 1.5,9.9 2.4,9.5 3.4,9.1 4.1,8.7 5,8.1 5.7,7.7 6.4,7 7.1,6.4 7.6,5.7 8.2,5 8.7,4.2 9.1,3.3 9.5,2.5 9.8,1.5 10.2,0.5 10.1,-0.5 9.9,-1.5 9.5,-2.5 9.1,-3.3 8.7,-4.2 8.2,-5 7.6,-5.7 7.1,-6.4 6.4,-7 5.7,-7.7 4.9,-8.1 -87.2,-47.3 87.2,-47.3 -4.9,-8.2 -5.7,-7.6 -6.4,-7.1 -7.1,-6.4 -7.6,-5.7 -8.2,-5 -8.7,-4.1 -9.1,-3.4 -9.5,-2.4 -9.9,-1.5 -10.1,-0.5 z"
                   inkscape:connector-curvature="0" />
              </g>
            </g>
          </g>
        </g>
      </g>
    </g>
  </g>
</svg>
