<?xml version="1.0" encoding="UTF-8" standalone="no"?>
<!-- Created with Inkscape (http://www.inkscape.org/) -->

<svg
   xmlns:dc="http://purl.org/dc/elements/1.1/"
   xmlns:cc="http://creativecommons.org/ns#"
   xmlns:rdf="http://www.w3.org/1999/02/22-rdf-syntax-ns#"
   xmlns:svg="http://www.w3.org/2000/svg"
   xmlns="http://www.w3.org/2000/svg"
   xmlns:sodipodi="http://sodipodi.sourceforge.net/DTD/sodipodi-0.dtd"
   xmlns:inkscape="http://www.inkscape.org/namespaces/inkscape"
   width="437"
   height="189"
   id="svg2"
   version="1.1"
   inkscape:version="0.47pre4 r22446"
   inkscape:export-filename="/home/parag0n/Desktop/hacmanmooback.png"
   inkscape:export-xdpi="300"
   inkscape:export-ydpi="300"
   sodipodi:docname="New document 1">
  <defs
     id="defs4">
    <inkscape:perspective
       sodipodi:type="inkscape:persp3d"
       inkscape:vp_x="0 : 526.18109 : 1"
       inkscape:vp_y="0 : 1000 : 0"
       inkscape:vp_z="744.09448 : 526.18109 : 1"
       inkscape:persp3d-origin="372.04724 : 350.78739 : 1"
       id="perspective10" />
    <inkscape:perspective
       id="perspective2902"
       inkscape:persp3d-origin="0.5 : 0.33333333 : 1"
       inkscape:vp_z="1 : 0.5 : 1"
       inkscape:vp_y="0 : 1000 : 0"
       inkscape:vp_x="0 : 0.5 : 1"
       sodipodi:type="inkscape:persp3d" />
    <inkscape:perspective
       id="perspective3142"
       inkscape:persp3d-origin="0.5 : 0.33333333 : 1"
       inkscape:vp_z="1 : 0.5 : 1"
       inkscape:vp_y="0 : 1000 : 0"
       inkscape:vp_x="0 : 0.5 : 1"
       sodipodi:type="inkscape:persp3d" />
  </defs>
  <sodipodi:namedview
     id="base"
     pagecolor="#000000"
     bordercolor="#666666"
     borderopacity="1.0"
     inkscape:pageopacity="1"
     inkscape:pageshadow="2"
     inkscape:zoom="0.7"
     inkscape:cx="242.86432"
     inkscape:cy="105.29392"
     inkscape:document-units="px"
     inkscape:current-layer="layer1"
     showgrid="false"
     units="px"
     inkscape:window-width="615"
     inkscape:window-height="498"
     inkscape:window-x="204"
     inkscape:window-y="281"
     inkscape:window-maximized="0" />
  <metadata
     id="metadata7">
    <rdf:RDF>
      <cc:Work
         rdf:about="">
        <dc:format>image/svg+xml</dc:format>
        <dc:type
           rdf:resource="http://purl.org/dc/dcmitype/StillImage" />
        <dc:title></dc:title>
      </cc:Work>
    </rdf:RDF>
  </metadata>
  <g
     inkscape:label="Layer 1"
     inkscape:groupmode="layer"
     id="layer1"
     transform="translate(0,-863.36211)">
    <flowRoot
       xml:space="preserve"
       id="flowRoot2924"
       style="font-size:13px;font-style:normal;font-weight:normal;fill:#ffffff;fill-opacity:1;stroke:none;font-family:Bitstream Vera Sans"
       transform="translate(8.0812204,936.09309)"><flowRegion
         id="flowRegion2926"><rect
           id="rect2928"
           width="293.95438"
           height="143.44167"
           x="2.0203052"
           y="43.538033"
           style="font-size:13px;fill:#ffffff" /></flowRegion><flowPara
         id="flowPara2932"
         style="font-size:17px">web: <flowSpan
   style="font-size:17px;font-weight:bold;-inkscape-font-specification:AlArabiya Bold"
   id="flowSpan2936">http://hacman.org.uk</flowSpan></flowPara><flowPara
         id="flowPara2934"
         style="font-size:17px">twitter: <flowSpan
   style="font-size:17px;font-weight:bold;-inkscape-font-specification:AlArabiya Bold"
   id="flowSpan2940">@hacmanchester</flowSpan></flowPara><flowPara
         style="font-size:17px"
         id="flowPara3172">list: <flowSpan
   style="font-weight:bold;-inkscape-font-specification:AlArabiya Bold"
   id="flowSpan3174">http://hacman.org.uk/list/</flowSpan></flowPara></flowRoot>    <g
       id="g29"
       style="stroke:#ffffff;stroke-opacity:1;display:inline"
       transform="matrix(0.80723277,0,0,-0.80723277,13.951423,1351.7638)"
       inkscape:export-filename="/Users/parag0n/Documents/svn.hacman.org.uk/Logos/PNG/126/hackspace-white.png"
       inkscape:export-xdpi="20.968761"
       inkscape:export-ydpi="20.968761">
      <path
         d="m 481.9,530.2 0,-70.9"
         style="fill:none;stroke:#ffffff;stroke-width:14.14999008;stroke-linecap:butt;stroke-linejoin:round;stroke-miterlimit:10;stroke-opacity:1;stroke-dasharray:none"
         id="path31" />
    </g>
    <path
       d="m 357.18679,1038.1539 -8.23378,-0.4037 -7.91088,-1.2108 -7.66871,-1.9374 -7.34582,-2.7446 -7.02292,-3.3096 -6.61931,-4.0362 -6.13497,-4.6012 -5.73135,-5.1663 -5.16629,-5.7313 -4.60123,-6.135 -4.03616,-6.6193 -3.30966,-7.0229 -2.74459,-7.3458 -1.93736,-7.6688 -1.21085,-7.9108 -0.40361,-8.23384 0.40361,-8.15305 1.21085,-7.9916 1.93736,-7.66871 2.74459,-7.34582 3.30966,-7.02293 4.03616,-6.53858 4.60123,-6.21569 5.16629,-5.65063 5.73135,-5.16629 6.13497,-4.60123 6.61931,-4.03616 7.02292,-3.39038 7.34582,-2.66387 7.66871,-2.01808 7.91088,-1.21085 8.23378,-0.40362 8.15305,0.40362 7.9916,1.21085 7.66872,2.01808 7.34581,2.66387 7.02293,3.39038 6.61931,4.03616 6.13497,4.60123 5.73135,5.16629 5.16629,5.65063 4.60123,6.21569 3.95544,6.53858 -70.3907,38.18211 70.3907,38.18214 -3.95544,6.6193 -4.60123,6.135 -5.16629,5.7313 -5.73135,5.1663 -6.13497,4.6012 -6.61931,4.0362 -7.02293,3.3096 -7.34581,2.7446 -7.66872,1.9374 -7.9916,1.2108 -8.15305,0.4037 z"
       style="fill:#e6e64c;fill-opacity:1;fill-rule:evenodd;stroke:none;display:inline"
       id="path45"
       inkscape:export-filename="/Users/parag0n/Documents/svn.hacman.org.uk/Logos/PNG/126/hackspace-white.png"
       inkscape:export-xdpi="20.968761"
       inkscape:export-ydpi="20.968761" />
    <g
       id="g47"
       style="stroke:#ffffff;stroke-opacity:1;display:inline"
       transform="matrix(0.80723277,0,0,-0.80723277,13.951423,1351.7638)"
       inkscape:export-filename="/Users/parag0n/Documents/svn.hacman.org.uk/Logos/PNG/126/hackspace-white.png"
       inkscape:export-xdpi="20.968761"
       inkscape:export-ydpi="20.968761">
      <path
         d="m 425.2,388.5 -10.2,0.5 -9.8,1.5 -9.5,2.4 -9.1,3.4 -8.7,4.1 -8.2,5 -7.6,5.7 -7.1,6.4 -6.4,7.1 -5.7,7.6 -5,8.2 -4.1,8.7 -3.4,9.1 -2.4,9.5 -1.5,9.8 -0.5,10.2 0.5,10.1 1.5,9.9 2.4,9.5 3.4,9.1 4.1,8.7 5,8.1 5.7,7.7 6.4,7 7.1,6.4 7.6,5.7 8.2,5 8.7,4.2 9.1,3.3 9.5,2.5 9.8,1.5 10.2,0.5 10.1,-0.5 9.9,-1.5 9.5,-2.5 9.1,-3.3 8.7,-4.2 8.2,-5 7.6,-5.7 7.1,-6.4 6.4,-7 5.7,-7.7 4.9,-8.1 -87.2,-47.3 87.2,-47.3 -4.9,-8.2 -5.7,-7.6 -6.4,-7.1 -7.1,-6.4 -7.6,-5.7 -8.2,-5 -8.7,-4.1 -9.1,-3.4 -9.5,-2.4 -9.9,-1.5 -10.1,-0.5 z"
         style="fill:none;stroke:#ffffff;stroke-width:11.31999969;stroke-linecap:butt;stroke-linejoin:round;stroke-miterlimit:10;stroke-opacity:1;stroke-dasharray:none"
         id="path49" />
    </g>
    <text
       xml:space="preserve"
       style="font-size:48px;font-style:normal;font-variant:normal;font-weight:bold;font-stretch:normal;fill:#ffffff;fill-opacity:1;stroke:none;font-family:Courier New;-inkscape-font-specification:AlArabiya Bold"
       x="10.203051"
       y="906.10535"
       id="text3176"><tspan
         sodipodi:role="line"
         id="tspan3178"
         x="10.203051"
         y="906.10535">HACMan</tspan></text>
  </g>
</svg>
