<svg id="Layer_1" data-name="Layer 1" xmlns="http://www.w3.org/2000/svg" viewBox="0 0 2462.97 2075.09"><defs><style>.cls-1,.cls-2,.cls-3{isolation:isolate;}.cls-2{font-size:993.54px;}.cls-2,.cls-3,.cls-5{fill:#343434;}.cls-2,.cls-3{font-family:Courier-Bold, Courier;font-weight:700;}.cls-3{font-size:745.15px;}.cls-4{fill:#ffed00;}</style></defs><title>HacmanLogoStandard</title><g id="layer3"><g id="g2413"><g id="text2415" class="cls-1"><text class="cls-2" transform="translate(0 1374.63)">H</text><text class="cls-2" transform="translate(596.13 1374.63)">a</text></g></g><g id="g2423"><g id="text2425" class="cls-1"><text class="cls-3" transform="translate(2162.43 2066.13) rotate(-90)">M</text></g></g><g id="g2429"><g id="text2431" class="cls-1"><text class="cls-3" transform="translate(2162.43 447.16) rotate(-90)">N</text></g></g><g id="g2419"><path id="path2421" class="cls-4" d="M2135.93,1117.35v317.87" transform="translate(-129.48 -224.86)"/><rect class="cls-5" x="1986.45" y="892.49" width="40" height="317.87"/></g><g id="g2437"><path id="path2439" class="cls-4" d="M1854.26,1762.93l-50.67-2.48L1754.9,1753l-47.19-11.92-45.21-16.89-43.22-20.37L1578.55,1679l-37.75-28.32-35.27-31.79-31.79-35.27-28.32-37.75-24.84-40.73-20.37-43.22-16.89-45.21-11.92-47.19-7.45-48.68-2.48-50.67,2.48-50.17,7.45-49.18,11.92-47.19,16.89-45.21,20.37-43.22,24.84-40.24,28.32-38.25,31.79-34.77,35.27-31.79,37.75-28.32L1619.29,837l43.22-20.86,45.21-16.39,47.19-12.42,48.68-7.45,50.67-2.48,50.17,2.48,49.18,7.45,47.19,12.42L2046,816.09,2089.23,837,2130,861.79l37.75,28.32L2203,921.9l31.79,34.77,28.32,38.25,24.34,40.24-433.18,235,433.18,235-24.34,40.73-28.32,37.75L2203,1618.87l-35.27,31.79L2130,1679l-40.74,24.84L2046,1724.18l-45.21,16.89L1953.61,1753l-49.18,7.45Z" transform="translate(-129.48 -224.86)"/><path class="cls-5" d="M1854.26,1782.93l-1,0-50.67-2.48a19.67,19.67,0,0,1-2-.21l-48.68-7.45q-.95-.14-1.87-.38l-47.19-11.92a20,20,0,0,1-2.1-.66l-45.21-16.89q-.78-.29-1.53-.64l-43.22-20.37a20.14,20.14,0,0,1-1.89-1l-40.73-24.84q-.82-.5-1.59-1.08l-37.75-28.32q-.72-.54-1.39-1.14l-35.27-31.79a19.93,19.93,0,0,1-1.46-1.46L1458.88,1597q-.6-.67-1.14-1.39l-28.32-37.75q-.58-.77-1.08-1.59l-24.84-40.73a20,20,0,0,1-1-1.89l-20.37-43.22q-.35-.75-.64-1.53l-16.89-45.21a20,20,0,0,1-.66-2.1L1352,1374.39q-.23-.93-.38-1.87l-7.45-48.68a20,20,0,0,1-.21-2l-2.48-50.67q0-1,0-2L1344,1219a20.05,20.05,0,0,1,.2-2l7.45-49.18q.15-1,.38-1.9l11.92-47.19a20,20,0,0,1,.66-2.1l16.89-45.21q.29-.78.64-1.53l20.37-43.22a20.06,20.06,0,0,1,1.07-2l24.84-40.24q.44-.72.94-1.39l28.32-38.25a20.13,20.13,0,0,1,1.31-1.6l31.79-34.77q.65-.71,1.37-1.36l35.27-31.79q.67-.6,1.39-1.14l37.75-28.32q.77-.58,1.59-1.08l40.73-24.84q.83-.51,1.72-.94l43.22-20.86a19.87,19.87,0,0,1,1.88-.79l45.21-16.39q.85-.31,1.73-.54l47.19-12.42a19.8,19.8,0,0,1,2.06-.43l48.68-7.45a20.1,20.1,0,0,1,2-.21l50.67-2.48q1,0,2,0l50.17,2.48a20,20,0,0,1,2,.2l49.18,7.45a20,20,0,0,1,2.09.43l47.19,12.42q.88.23,1.73.54l45.21,16.39a20,20,0,0,1,1.88.79l43.22,20.86q.88.43,1.72.94l40.73,24.84q.82.5,1.59,1.08l37.75,28.32q.72.54,1.39,1.14L2216.38,907q.72.65,1.37,1.36l31.79,34.77a20.15,20.15,0,0,1,1.31,1.6L2279.17,983q.55.75,1,1.55l24.34,40.24a20,20,0,0,1-7.58,27.93l-400.77,217.39L2297,1487.53a20,20,0,0,1,7.63,27.84l-24.34,40.73a19.83,19.83,0,0,1-1.17,1.74l-28.32,37.75q-.54.72-1.14,1.39l-31.79,35.27a19.93,19.93,0,0,1-1.46,1.46l-35.27,31.79q-.67.6-1.39,1.14L2142,1695q-.77.58-1.59,1.08l-40.73,24.84a20,20,0,0,1-1.89,1l-43.22,20.37q-.75.35-1.53.64l-45.21,16.89a20,20,0,0,1-2.1.66l-47.19,11.92c-.63.16-1.26.29-1.9.38l-49.18,7.45a20,20,0,0,1-2,.2l-50.17,2.48Zm-48.66-42.41,48.66,2.39,48.18-2.39,47.22-7.15,45.18-11.41,43.4-16.21,41.5-19.56,39-23.78,36.27-27.2,33.83-30.49,30.5-33.83,27.15-36.2,13.11-21.93-414.85-225a20,20,0,0,1,0-35.16l414.75-225-13-21.5-27.14-36.67-30.44-33.3L2155,905.57l-36.27-27.2-39.08-23.83-41.42-20-43.4-15.74-45.28-11.92-47.12-7.14-48.18-2.39-48.66,2.38L1759,806.88l-45.3,11.92-43.39,15.74-41.42,20-39.08,23.83-36.27,27.2-33.88,30.54-30.44,33.3-27.2,36.74-23.8,38.56-19.53,41.45-16.21,43.4L1391,1174.74l-7.16,47.22-2.38,48.18,2.38,48.66,7.15,46.72,11.42,45.2,16.21,43.4,19.56,41.5,23.78,39,27.2,36.27,30.5,33.83,33.83,30.49,36.27,27.2,39,23.78,41.5,19.56,43.4,16.21,45.2,11.42Z" transform="translate(-129.48 -224.86)"/></g></g></svg>