<?xml version="1.0" encoding="UTF-8" standalone="no"?>
<!-- Created with Inkscape (http://www.inkscape.org/) -->
<svg
   xmlns:dc="http://purl.org/dc/elements/1.1/"
   xmlns:cc="http://creativecommons.org/ns#"
   xmlns:rdf="http://www.w3.org/1999/02/22-rdf-syntax-ns#"
   xmlns:svg="http://www.w3.org/2000/svg"
   xmlns="http://www.w3.org/2000/svg"
   xmlns:sodipodi="http://sodipodi.sourceforge.net/DTD/sodipodi-0.dtd"
   xmlns:inkscape="http://www.inkscape.org/namespaces/inkscape"
   id="svg2"
   sodipodi:version="0.32"
   inkscape:version="0.46"
   width="1488.189"
   height="1052.3622"
   xml:space="preserve"
   sodipodi:docname="hacmanlogo.svg"
   inkscape:export-filename="/Users/parag0n/Downloads/hackspacew.png"
   inkscape:export-xdpi="20.936071"
   inkscape:export-ydpi="20.936071"
   inkscape:output_extension="org.inkscape.output.svg.inkscape"
   version="1.0"><metadata
     id="metadata7"><rdf:RDF><cc:Work
         rdf:about=""><dc:format>image/svg+xml</dc:format><dc:type
           rdf:resource="http://purl.org/dc/dcmitype/StillImage" /></cc:Work></rdf:RDF></metadata><defs
     id="defs5"><inkscape:perspective
   sodipodi:type="inkscape:persp3d"
   inkscape:vp_x="0 : 526.18109 : 1"
   inkscape:vp_y="0 : 1000 : 0"
   inkscape:vp_z="744.09448 : 526.18109 : 1"
   inkscape:persp3d-origin="372.04724 : 350.78739 : 1"
   id="perspective9" /><clipPath
   clipPathUnits="userSpaceOnUse"
   id="clipPath17"><path
     d="M 0,0 L 595.3,0 L 595.3,842 L 0,842 L 0,0 z"
     clip-rule="evenodd"
     id="path19" /></clipPath>
</defs><sodipodi:namedview
     inkscape:window-height="715"
     inkscape:window-width="916"
     inkscape:pageshadow="2"
     inkscape:pageopacity="0"
     guidetolerance="10.0"
     gridtolerance="10.0"
     objecttolerance="10.0"
     borderopacity="1.0"
     bordercolor="#666666"
     pagecolor="#000000"
     id="base"
     showgrid="false"
     inkscape:zoom="0.5"
     inkscape:cx="316.42286"
     inkscape:cy="288.55735"
     inkscape:window-x="0"
     inkscape:window-y="0"
     inkscape:current-layer="g15" /><g
     id="g11"
     inkscape:groupmode="layer"
     inkscape:label="hacman1"
     transform="matrix(1.25,0,0,-1.25,0,1052.5)"><text
   xml:space="preserve"
   style="font-size:32px;font-style:normal;font-weight:normal;fill:#000000;fill-opacity:1;stroke:none;stroke-width:1px;stroke-linecap:butt;stroke-linejoin:miter;stroke-opacity:1;font-family:Bitstream Vera Sans"
   x="449.52679"
   y="-718.52557"
   id="text2422"
   transform="scale(1,-1)"><tspan
     sodipodi:role="line"
     id="tspan2424"
     x="449.52679"
     y="-718.52557" /></text>

<g
   id="g3234"
   style="fill:#000000"
   transform="translate(-77.25266,-275.30654)"
   inkscape:export-filename="/Users/parag0n/Documents/svn.hacman.org.uk/Logos/PNG/1024/hackspace-black.png"
   inkscape:export-xdpi="170.00293"
   inkscape:export-ydpi="170.00293"><text
   transform="matrix(1,0,0,-1,78,421.4)"
   id="text3236"
   style="fill:#000000"><tspan
     style="font-size:200px;font-variant:normal;font-weight:bold;writing-mode:lr-tb;fill:#000000;fill-opacity:1;fill-rule:nonzero;stroke:none;font-family:Courier;-inkscape-font-specification:Courier-Bold"
     x="0 120"
     y="0"
     sodipodi:role="line"
     id="tspan3238">Ha</tspan></text>


</g><g
   id="g3240"
   style="stroke:#000000;stroke-opacity:1"
   transform="translate(-77.25266,-275.30654)"
   inkscape:export-filename="/Users/parag0n/Documents/svn.hacman.org.uk/Logos/PNG/1024/hackspace-black.png"
   inkscape:export-xdpi="170.00293"
   inkscape:export-ydpi="170.00293"><path
     d="M 481.9,530.2 L 481.9,459.3"
     style="fill:none;stroke:#000000;stroke-width:14.14999008;stroke-linecap:butt;stroke-linejoin:round;stroke-miterlimit:10;stroke-dasharray:none;stroke-opacity:1"
     id="path3242" /></g><g
   id="g3244"
   style="fill:#000000"
   transform="translate(-77.25266,-275.30654)"
   inkscape:export-filename="/Users/parag0n/Documents/svn.hacman.org.uk/Logos/PNG/1024/hackspace-black.png"
   inkscape:export-xdpi="170.00293"
   inkscape:export-ydpi="170.00293"><text
   transform="matrix(0,1,1,0,513.3,282.2)"
   id="text3246"
   style="fill:#000000"><tspan
     style="font-size:150px;font-variant:normal;font-weight:bold;writing-mode:lr-tb;fill:#000000;fill-opacity:1;fill-rule:nonzero;stroke:none;font-family:Courier;-inkscape-font-specification:Courier-Bold"
     x="0"
     y="0"
     id="tspan3248">M</tspan></text>


</g><g
   id="g3250"
   style="fill:#000000;fill-opacity:1;stroke:none;stroke-opacity:1"
   transform="translate(-77.25266,-275.30654)"
   inkscape:export-filename="/Users/parag0n/Documents/svn.hacman.org.uk/Logos/PNG/1024/hackspace-black.png"
   inkscape:export-xdpi="170.00293"
   inkscape:export-ydpi="170.00293"><text
   transform="matrix(0,1,1,0,513.3,608.1)"
   id="text3252"
   style="fill:#000000;fill-opacity:1;stroke:none;stroke-opacity:1"><tspan
     style="font-size:150px;font-variant:normal;font-weight:bold;writing-mode:lr-tb;fill:#000000;fill-opacity:1;fill-rule:nonzero;stroke:none;stroke-opacity:1;font-family:Courier;-inkscape-font-specification:Courier-Bold"
     x="0"
     y="0"
     id="tspan3254">N</tspan></text>


</g><path
   d="M 347.94734,113.19346 L 337.74734,113.69346 L 327.94734,115.19346 L 318.44734,117.59346 L 309.34734,120.99346 L 300.64734,125.09346 L 292.44734,130.09346 L 284.84734,135.79346 L 277.74734,142.19346 L 271.34734,149.29346 L 265.64734,156.89346 L 260.64734,165.09346 L 256.54734,173.79346 L 253.14734,182.89346 L 250.74734,192.39346 L 249.24734,202.19346 L 248.74734,212.39346 L 249.24734,222.49346 L 250.74734,232.39346 L 253.14734,241.89346 L 256.54734,250.99346 L 260.64734,259.69346 L 265.64734,267.79346 L 271.34734,275.49346 L 277.74734,282.49346 L 284.84734,288.89346 L 292.44734,294.59346 L 300.64734,299.59346 L 309.34734,303.79346 L 318.44734,307.09346 L 327.94734,309.59346 L 337.74734,311.09346 L 347.94734,311.59346 L 358.04734,311.09346 L 367.94734,309.59346 L 377.44734,307.09346 L 386.54734,303.79346 L 395.24734,299.59346 L 403.44734,294.59346 L 411.04734,288.89346 L 418.14734,282.49346 L 424.54734,275.49346 L 430.24734,267.79346 L 435.14734,259.69346 L 347.94734,212.39346 L 435.14734,165.09346 L 430.24734,156.89346 L 424.54734,149.29346 L 418.14734,142.19346 L 411.04734,135.79346 L 403.44734,130.09346 L 395.24734,125.09346 L 386.54734,120.99346 L 377.44734,117.59346 L 367.94734,115.19346 L 358.04734,113.69346 L 347.94734,113.19346 z"
   style="fill:#e6e64c;fill-opacity:1;fill-rule:evenodd;stroke:none"
   id="path3256"
   inkscape:export-filename="/Users/parag0n/Documents/svn.hacman.org.uk/Logos/PNG/1024/hackspace-black.png"
   inkscape:export-xdpi="170.00293"
   inkscape:export-ydpi="170.00293" /><g
   id="g3258"
   style="stroke:#020000;stroke-opacity:1"
   transform="translate(-77.25266,-275.30654)"
   inkscape:export-filename="/Users/parag0n/Documents/svn.hacman.org.uk/Logos/PNG/1024/hackspace-black.png"
   inkscape:export-xdpi="170.00293"
   inkscape:export-ydpi="170.00293"><path
     d="M 425.2,388.5 L 415,389 L 405.2,390.5 L 395.7,392.9 L 386.6,396.3 L 377.9,400.4 L 369.7,405.4 L 362.1,411.1 L 355,417.5 L 348.6,424.6 L 342.9,432.2 L 337.9,440.4 L 333.8,449.1 L 330.4,458.2 L 328,467.7 L 326.5,477.5 L 326,487.7 L 326.5,497.8 L 328,507.7 L 330.4,517.2 L 333.8,526.3 L 337.9,535 L 342.9,543.1 L 348.6,550.8 L 355,557.8 L 362.1,564.2 L 369.7,569.9 L 377.9,574.9 L 386.6,579.1 L 395.7,582.4 L 405.2,584.9 L 415,586.4 L 425.2,586.9 L 435.3,586.4 L 445.2,584.9 L 454.7,582.4 L 463.8,579.1 L 472.5,574.9 L 480.7,569.9 L 488.3,564.2 L 495.4,557.8 L 501.8,550.8 L 507.5,543.1 L 512.4,535 L 425.2,487.7 L 512.4,440.4 L 507.5,432.2 L 501.8,424.6 L 495.4,417.5 L 488.3,411.1 L 480.7,405.4 L 472.5,400.4 L 463.8,396.3 L 454.7,392.9 L 445.2,390.5 L 435.3,389 L 425.2,388.5 z"
     style="fill:none;stroke:#020000;stroke-width:11.31999969;stroke-linecap:butt;stroke-linejoin:round;stroke-miterlimit:10;stroke-dasharray:none;stroke-opacity:1"
     id="path3260" /></g></g><g
     inkscape:groupmode="layer"
     id="layer2"
     inkscape:label="hacmangreyl"
     style="display:inline"><g
       id="g2441"
       style="fill:#cccccc;fill-opacity:1"
       transform="matrix(1.25,0,0,-1.25,557.48239,1388.8764)"
       inkscape:export-filename="/Users/parag0n/Documents/svn.hacman.org.uk/Logos/PNG/1024/hackspace-lgrey.png"
       inkscape:export-xdpi="170.00293"
       inkscape:export-ydpi="170.00293"><text
   transform="matrix(1,0,0,-1,78,421.4)"
   id="text2443"
   style="fill:#cccccc;fill-opacity:1"><tspan
     style="font-size:200px;font-variant:normal;font-weight:bold;writing-mode:lr-tb;fill:#cccccc;fill-opacity:1;fill-rule:nonzero;stroke:none;font-family:Courier;-inkscape-font-specification:Courier-Bold"
     x="0 120"
     y="0"
     sodipodi:role="line"
     id="tspan2445">Ha</tspan></text>


</g><g
       id="g2447"
       style="stroke:#cccccc;stroke-opacity:1"
       transform="matrix(1.25,0,0,-1.25,557.48239,1388.8764)"
       inkscape:export-filename="/Users/parag0n/Documents/svn.hacman.org.uk/Logos/PNG/1024/hackspace-lgrey.png"
       inkscape:export-xdpi="170.00293"
       inkscape:export-ydpi="170.00293"><path
         d="M 481.9,530.2 L 481.9,459.3"
         style="fill:none;stroke:#cccccc;stroke-width:14.14999008;stroke-linecap:butt;stroke-linejoin:round;stroke-miterlimit:10;stroke-dasharray:none;stroke-opacity:1"
         id="path2449" /></g><g
       id="g2451"
       style="fill:#cccccc;fill-opacity:1"
       transform="matrix(1.25,0,0,-1.25,557.48239,1388.8764)"
       inkscape:export-filename="/Users/parag0n/Documents/svn.hacman.org.uk/Logos/PNG/1024/hackspace-lgrey.png"
       inkscape:export-xdpi="170.00293"
       inkscape:export-ydpi="170.00293"><text
   transform="matrix(0,1,1,0,513.3,282.2)"
   id="text2453"
   style="fill:#cccccc;fill-opacity:1"><tspan
     style="font-size:150px;font-variant:normal;font-weight:bold;writing-mode:lr-tb;fill:#cccccc;fill-opacity:1;fill-rule:nonzero;stroke:none;font-family:Courier;-inkscape-font-specification:Courier-Bold"
     x="0"
     y="0"
     id="tspan2455">M</tspan></text>


</g><g
       id="g2457"
       style="fill:#cccccc;fill-opacity:1;stroke:none;stroke-opacity:1"
       transform="matrix(1.25,0,0,-1.25,557.48239,1388.8764)"
       inkscape:export-filename="/Users/parag0n/Documents/svn.hacman.org.uk/Logos/PNG/1024/hackspace-lgrey.png"
       inkscape:export-xdpi="170.00293"
       inkscape:export-ydpi="170.00293"><text
   transform="matrix(0,1,1,0,513.3,608.1)"
   id="text2459"
   style="fill:#cccccc;fill-opacity:1;stroke:none;stroke-opacity:1"><tspan
     style="font-size:150px;font-variant:normal;font-weight:bold;writing-mode:lr-tb;fill:#cccccc;fill-opacity:1;fill-rule:nonzero;stroke:none;stroke-opacity:1;font-family:Courier;-inkscape-font-specification:Courier-Bold"
     x="0"
     y="0"
     id="tspan2461">N</tspan></text>


</g><path
       d="M 1088.9824,903.25129 L 1076.2324,902.62629 L 1063.9824,900.75129 L 1052.1074,897.75129 L 1040.7324,893.50129 L 1029.8574,888.37629 L 1019.6074,882.12629 L 1010.1074,875.00129 L 1001.2324,867.00129 L 993.23239,858.12629 L 986.10739,848.62629 L 979.85739,838.37629 L 974.73239,827.50129 L 970.48239,816.12629 L 967.48239,804.25129 L 965.60739,792.00129 L 964.98239,779.25129 L 965.60739,766.62629 L 967.48239,754.25129 L 970.48239,742.37629 L 974.73239,731.00129 L 979.85739,720.12629 L 986.10739,710.00129 L 993.23239,700.37629 L 1001.2324,691.62629 L 1010.1074,683.62629 L 1019.6074,676.50129 L 1029.8574,670.25129 L 1040.7324,665.00129 L 1052.1074,660.87629 L 1063.9824,657.75129 L 1076.2324,655.87629 L 1088.9824,655.25129 L 1101.6074,655.87629 L 1113.9824,657.75129 L 1125.8574,660.87629 L 1137.2324,665.00129 L 1148.1074,670.25129 L 1158.3574,676.50129 L 1167.8574,683.62629 L 1176.7324,691.62629 L 1184.7324,700.37629 L 1191.8574,710.00129 L 1197.9824,720.12629 L 1088.9824,779.25129 L 1197.9824,838.37629 L 1191.8574,848.62629 L 1184.7324,858.12629 L 1176.7324,867.00129 L 1167.8574,875.00129 L 1158.3574,882.12629 L 1148.1074,888.37629 L 1137.2324,893.50129 L 1125.8574,897.75129 L 1113.9824,900.75129 L 1101.6074,902.62629 L 1088.9824,903.25129 z"
       style="fill:#e6e64c;fill-opacity:1;fill-rule:evenodd;stroke:none"
       id="path2463"
       inkscape:export-filename="/Users/parag0n/Documents/svn.hacman.org.uk/Logos/PNG/1024/hackspace-lgrey.png"
       inkscape:export-xdpi="170.00293"
       inkscape:export-ydpi="170.00293" /><g
       id="g2465"
       style="stroke:#cccccc;stroke-opacity:1"
       transform="matrix(1.25,0,0,-1.25,557.48239,1388.8764)"
       inkscape:export-filename="/Users/parag0n/Documents/svn.hacman.org.uk/Logos/PNG/1024/hackspace-lgrey.png"
       inkscape:export-xdpi="170.00293"
       inkscape:export-ydpi="170.00293"><path
         d="M 425.2,388.5 L 415,389 L 405.2,390.5 L 395.7,392.9 L 386.6,396.3 L 377.9,400.4 L 369.7,405.4 L 362.1,411.1 L 355,417.5 L 348.6,424.6 L 342.9,432.2 L 337.9,440.4 L 333.8,449.1 L 330.4,458.2 L 328,467.7 L 326.5,477.5 L 326,487.7 L 326.5,497.8 L 328,507.7 L 330.4,517.2 L 333.8,526.3 L 337.9,535 L 342.9,543.1 L 348.6,550.8 L 355,557.8 L 362.1,564.2 L 369.7,569.9 L 377.9,574.9 L 386.6,579.1 L 395.7,582.4 L 405.2,584.9 L 415,586.4 L 425.2,586.9 L 435.3,586.4 L 445.2,584.9 L 454.7,582.4 L 463.8,579.1 L 472.5,574.9 L 480.7,569.9 L 488.3,564.2 L 495.4,557.8 L 501.8,550.8 L 507.5,543.1 L 512.4,535 L 425.2,487.7 L 512.4,440.4 L 507.5,432.2 L 501.8,424.6 L 495.4,417.5 L 488.3,411.1 L 480.7,405.4 L 472.5,400.4 L 463.8,396.3 L 454.7,392.9 L 445.2,390.5 L 435.3,389 L 425.2,388.5 z"
         style="fill:none;stroke:#cccccc;stroke-width:11.31999969;stroke-linecap:butt;stroke-linejoin:round;stroke-miterlimit:10;stroke-dasharray:none;stroke-opacity:1"
         id="path2467" /></g></g><g
     inkscape:groupmode="layer"
     id="layer3"
     inkscape:label="hacmangreyd"
     style="display:inline"><g
       id="g2413"
       style="fill:#333333;fill-opacity:1"
       transform="matrix(1.25,0,0,-1.25,817.69769,885.41638)"
       inkscape:export-filename="/Users/parag0n/Documents/svn.hacman.org.uk/Logos/PNG/1024/hackspace-dgrey.png"
       inkscape:export-xdpi="170.00293"
       inkscape:export-ydpi="170.00293"><text
   transform="matrix(1,0,0,-1,78,421.4)"
   id="text2415"
   style="fill:#333333;fill-opacity:1"><tspan
     style="font-size:200px;font-variant:normal;font-weight:bold;writing-mode:lr-tb;fill:#333333;fill-opacity:1;fill-rule:nonzero;stroke:none;font-family:Courier;-inkscape-font-specification:Courier-Bold"
     x="0 120"
     y="0"
     sodipodi:role="line"
     id="tspan2417">Ha</tspan></text>


</g><g
       id="g2419"
       style="stroke:#333333;stroke-opacity:1"
       transform="matrix(1.25,0,0,-1.25,817.69769,885.41638)"
       inkscape:export-filename="/Users/parag0n/Documents/svn.hacman.org.uk/Logos/PNG/1024/hackspace-dgrey.png"
       inkscape:export-xdpi="170.00293"
       inkscape:export-ydpi="170.00293"><path
         d="M 481.9,530.2 L 481.9,459.3"
         style="fill:none;stroke:#333333;stroke-width:14.14999008;stroke-linecap:butt;stroke-linejoin:round;stroke-miterlimit:10;stroke-dasharray:none;stroke-opacity:1"
         id="path2421" /></g><g
       id="g2423"
       style="fill:#333333;fill-opacity:1"
       transform="matrix(1.25,0,0,-1.25,817.69769,885.41638)"
       inkscape:export-filename="/Users/parag0n/Documents/svn.hacman.org.uk/Logos/PNG/1024/hackspace-dgrey.png"
       inkscape:export-xdpi="170.00293"
       inkscape:export-ydpi="170.00293"><text
   transform="matrix(0,1,1,0,513.3,282.2)"
   id="text2425"
   style="fill:#333333;fill-opacity:1"><tspan
     style="font-size:150px;font-variant:normal;font-weight:bold;writing-mode:lr-tb;fill:#333333;fill-opacity:1;fill-rule:nonzero;stroke:none;font-family:Courier;-inkscape-font-specification:Courier-Bold"
     x="0"
     y="0"
     id="tspan2427">M</tspan></text>


</g><g
       id="g2429"
       style="fill:#333333;fill-opacity:1;stroke:none;stroke-opacity:1"
       transform="matrix(1.25,0,0,-1.25,817.69769,885.41638)"
       inkscape:export-filename="/Users/parag0n/Documents/svn.hacman.org.uk/Logos/PNG/1024/hackspace-dgrey.png"
       inkscape:export-xdpi="170.00293"
       inkscape:export-ydpi="170.00293"><text
   transform="matrix(0,1,1,0,513.3,608.1)"
   id="text2431"
   style="fill:#333333;fill-opacity:1;stroke:none;stroke-opacity:1"><tspan
     style="font-size:150px;font-variant:normal;font-weight:bold;writing-mode:lr-tb;fill:#333333;fill-opacity:1;fill-rule:nonzero;stroke:none;stroke-opacity:1;font-family:Courier;-inkscape-font-specification:Courier-Bold"
     x="0"
     y="0"
     id="tspan2433">N</tspan></text>


</g><path
       d="M 1349.1977,399.79134 L 1336.4477,399.16634 L 1324.1977,397.29134 L 1312.3227,394.29134 L 1300.9477,390.04134 L 1290.0727,384.91634 L 1279.8227,378.66634 L 1270.3227,371.54134 L 1261.4477,363.54134 L 1253.4477,354.66634 L 1246.3227,345.16634 L 1240.0727,334.91634 L 1234.9477,324.04134 L 1230.6977,312.66634 L 1227.6977,300.79134 L 1225.8227,288.54134 L 1225.1977,275.79134 L 1225.8227,263.16634 L 1227.6977,250.79134 L 1230.6977,238.91634 L 1234.9477,227.54134 L 1240.0727,216.66634 L 1246.3227,206.54134 L 1253.4477,196.91634 L 1261.4477,188.16634 L 1270.3227,180.16634 L 1279.8227,173.04134 L 1290.0727,166.79134 L 1300.9477,161.54134 L 1312.3227,157.41634 L 1324.1977,154.29134 L 1336.4477,152.41634 L 1349.1977,151.79134 L 1361.8227,152.41634 L 1374.1977,154.29134 L 1386.0727,157.41634 L 1397.4477,161.54134 L 1408.3227,166.79134 L 1418.5727,173.04134 L 1428.0727,180.16634 L 1436.9477,188.16634 L 1444.9477,196.91634 L 1452.0727,206.54134 L 1458.1977,216.66634 L 1349.1977,275.79134 L 1458.1977,334.91634 L 1452.0727,345.16634 L 1444.9477,354.66634 L 1436.9477,363.54134 L 1428.0727,371.54134 L 1418.5727,378.66634 L 1408.3227,384.91634 L 1397.4477,390.04134 L 1386.0727,394.29134 L 1374.1977,397.29134 L 1361.8227,399.16634 L 1349.1977,399.79134 z"
       style="fill:#e6e64c;fill-opacity:1;fill-rule:evenodd;stroke:none"
       id="path2435"
       inkscape:export-filename="/Users/parag0n/Documents/svn.hacman.org.uk/Logos/PNG/1024/hackspace-dgrey.png"
       inkscape:export-xdpi="170.00293"
       inkscape:export-ydpi="170.00293" /><g
       id="g2437"
       style="stroke:#333333;stroke-opacity:1"
       transform="matrix(1.25,0,0,-1.25,817.69769,885.41638)"
       inkscape:export-filename="/Users/parag0n/Documents/svn.hacman.org.uk/Logos/PNG/1024/hackspace-dgrey.png"
       inkscape:export-xdpi="170.00293"
       inkscape:export-ydpi="170.00293"><path
         d="M 425.2,388.5 L 415,389 L 405.2,390.5 L 395.7,392.9 L 386.6,396.3 L 377.9,400.4 L 369.7,405.4 L 362.1,411.1 L 355,417.5 L 348.6,424.6 L 342.9,432.2 L 337.9,440.4 L 333.8,449.1 L 330.4,458.2 L 328,467.7 L 326.5,477.5 L 326,487.7 L 326.5,497.8 L 328,507.7 L 330.4,517.2 L 333.8,526.3 L 337.9,535 L 342.9,543.1 L 348.6,550.8 L 355,557.8 L 362.1,564.2 L 369.7,569.9 L 377.9,574.9 L 386.6,579.1 L 395.7,582.4 L 405.2,584.9 L 415,586.4 L 425.2,586.9 L 435.3,586.4 L 445.2,584.9 L 454.7,582.4 L 463.8,579.1 L 472.5,574.9 L 480.7,569.9 L 488.3,564.2 L 495.4,557.8 L 501.8,550.8 L 507.5,543.1 L 512.4,535 L 425.2,487.7 L 512.4,440.4 L 507.5,432.2 L 501.8,424.6 L 495.4,417.5 L 488.3,411.1 L 480.7,405.4 L 472.5,400.4 L 463.8,396.3 L 454.7,392.9 L 445.2,390.5 L 435.3,389 L 425.2,388.5 z"
         style="fill:none;stroke:#333333;stroke-width:11.31999969;stroke-linecap:butt;stroke-linejoin:round;stroke-miterlimit:10;stroke-dasharray:none;stroke-opacity:1"
         id="path2439" /></g></g><g
     inkscape:groupmode="layer"
     id="layer4"
     inkscape:label="hacmanwhite"
     style="display:inline"><g
       id="g23"
       style="fill:#ffffff"
       transform="matrix(1.25,0,0,-1.25,54.022365,879.75952)"
       inkscape:export-filename="/Users/parag0n/Documents/svn.hacman.org.uk/Logos/PNG/126/hackspace-white.png"
       inkscape:export-xdpi="20.968761"
       inkscape:export-ydpi="20.968761"><text
   transform="matrix(1,0,0,-1,78,421.4)"
   id="text25"
   style="fill:#ffffff"><tspan
     style="font-size:200px;font-variant:normal;font-weight:bold;writing-mode:lr-tb;fill:#ffffff;fill-opacity:1;fill-rule:nonzero;stroke:none;font-family:Courier;-inkscape-font-specification:Courier-Bold"
     x="0 120"
     y="0"
     sodipodi:role="line"
     id="tspan27">Ha</tspan></text>


</g><g
       id="g29"
       style="stroke:#ffffff;stroke-opacity:1"
       transform="matrix(1.25,0,0,-1.25,54.022365,879.75952)"
       inkscape:export-filename="/Users/parag0n/Documents/svn.hacman.org.uk/Logos/PNG/126/hackspace-white.png"
       inkscape:export-xdpi="20.968761"
       inkscape:export-ydpi="20.968761"><path
         d="M 481.9,530.2 L 481.9,459.3"
         style="fill:none;stroke:#ffffff;stroke-width:14.14999008;stroke-linecap:butt;stroke-linejoin:round;stroke-miterlimit:10;stroke-dasharray:none;stroke-opacity:1"
         id="path31" /></g><g
       id="g33"
       style="fill:#ffffff"
       transform="matrix(1.25,0,0,-1.25,54.022365,879.75952)"
       inkscape:export-filename="/Users/parag0n/Documents/svn.hacman.org.uk/Logos/PNG/126/hackspace-white.png"
       inkscape:export-xdpi="20.968761"
       inkscape:export-ydpi="20.968761"><text
   transform="matrix(0,1,1,0,513.3,282.2)"
   id="text35"
   style="fill:#ffffff"><tspan
     style="font-size:150px;font-variant:normal;font-weight:bold;writing-mode:lr-tb;fill:#ffffff;fill-opacity:1;fill-rule:nonzero;stroke:none;font-family:Courier;-inkscape-font-specification:Courier-Bold"
     x="0"
     y="0"
     id="tspan37">M</tspan></text>


</g><g
       id="g39"
       style="fill:#ffffff;fill-opacity:1;stroke:none;stroke-opacity:1"
       transform="matrix(1.25,0,0,-1.25,54.022365,879.75952)"
       inkscape:export-filename="/Users/parag0n/Documents/svn.hacman.org.uk/Logos/PNG/126/hackspace-white.png"
       inkscape:export-xdpi="20.968761"
       inkscape:export-ydpi="20.968761"><text
   transform="matrix(0,1,1,0,513.3,608.1)"
   id="text41"
   style="fill:#ffffff;fill-opacity:1;stroke:none;stroke-opacity:1"><tspan
     style="font-size:150px;font-variant:normal;font-weight:bold;writing-mode:lr-tb;fill:#ffffff;fill-opacity:1;fill-rule:nonzero;stroke:none;stroke-opacity:1;font-family:Courier;-inkscape-font-specification:Courier-Bold"
     x="0"
     y="0"
     id="tspan43">N</tspan></text>


</g><path
       d="M 585.52236,394.13449 L 572.77236,393.50949 L 560.52236,391.63449 L 548.64736,388.63449 L 537.27236,384.38449 L 526.39736,379.25949 L 516.14736,373.00949 L 506.64736,365.88449 L 497.77236,357.88449 L 489.77236,349.00948 L 482.64736,339.50948 L 476.39736,329.25948 L 471.27236,318.38448 L 467.02236,307.00948 L 464.02236,295.13448 L 462.14736,282.88448 L 461.52236,270.13448 L 462.14736,257.50948 L 464.02236,245.13448 L 467.02236,233.25948 L 471.27236,221.88448 L 476.39736,211.00948 L 482.64736,200.88448 L 489.77236,191.25948 L 497.77236,182.50948 L 506.64736,174.50948 L 516.14736,167.38448 L 526.39736,161.13448 L 537.27236,155.88448 L 548.64736,151.75948 L 560.52236,148.63448 L 572.77236,146.75948 L 585.52236,146.13448 L 598.14736,146.75948 L 610.52236,148.63448 L 622.39736,151.75948 L 633.77236,155.88448 L 644.64736,161.13448 L 654.89736,167.38448 L 664.39736,174.50948 L 673.27236,182.50948 L 681.27236,191.25948 L 688.39736,200.88448 L 694.52236,211.00948 L 585.52236,270.13448 L 694.52236,329.25948 L 688.39736,339.50948 L 681.27236,349.00948 L 673.27236,357.88449 L 664.39736,365.88449 L 654.89736,373.00949 L 644.64736,379.25949 L 633.77236,384.38449 L 622.39736,388.63449 L 610.52236,391.63449 L 598.14736,393.50949 L 585.52236,394.13449 z"
       style="fill:#e6e64c;fill-opacity:1;fill-rule:evenodd;stroke:none"
       id="path45"
       inkscape:export-filename="/Users/parag0n/Documents/svn.hacman.org.uk/Logos/PNG/126/hackspace-white.png"
       inkscape:export-xdpi="20.968761"
       inkscape:export-ydpi="20.968761" /><g
       id="g47"
       style="stroke:#ffffff;stroke-opacity:1"
       transform="matrix(1.25,0,0,-1.25,54.022365,879.75952)"
       inkscape:export-filename="/Users/parag0n/Documents/svn.hacman.org.uk/Logos/PNG/126/hackspace-white.png"
       inkscape:export-xdpi="20.968761"
       inkscape:export-ydpi="20.968761"><path
         d="M 425.2,388.5 L 415,389 L 405.2,390.5 L 395.7,392.9 L 386.6,396.3 L 377.9,400.4 L 369.7,405.4 L 362.1,411.1 L 355,417.5 L 348.6,424.6 L 342.9,432.2 L 337.9,440.4 L 333.8,449.1 L 330.4,458.2 L 328,467.7 L 326.5,477.5 L 326,487.7 L 326.5,497.8 L 328,507.7 L 330.4,517.2 L 333.8,526.3 L 337.9,535 L 342.9,543.1 L 348.6,550.8 L 355,557.8 L 362.1,564.2 L 369.7,569.9 L 377.9,574.9 L 386.6,579.1 L 395.7,582.4 L 405.2,584.9 L 415,586.4 L 425.2,586.9 L 435.3,586.4 L 445.2,584.9 L 454.7,582.4 L 463.8,579.1 L 472.5,574.9 L 480.7,569.9 L 488.3,564.2 L 495.4,557.8 L 501.8,550.8 L 507.5,543.1 L 512.4,535 L 425.2,487.7 L 512.4,440.4 L 507.5,432.2 L 501.8,424.6 L 495.4,417.5 L 488.3,411.1 L 480.7,405.4 L 472.5,400.4 L 463.8,396.3 L 454.7,392.9 L 445.2,390.5 L 435.3,389 L 425.2,388.5 z"
         style="fill:none;stroke:#ffffff;stroke-width:11.31999969;stroke-linecap:butt;stroke-linejoin:round;stroke-miterlimit:10;stroke-dasharray:none;stroke-opacity:1"
         id="path49" /></g></g></svg>