<?xml version="1.0" encoding="UTF-8" standalone="no"?>
<!-- Created with Inkscape (http://www.inkscape.org/) -->

<svg
   xmlns:dc="http://purl.org/dc/elements/1.1/"
   xmlns:cc="http://creativecommons.org/ns#"
   xmlns:rdf="http://www.w3.org/1999/02/22-rdf-syntax-ns#"
   xmlns:svg="http://www.w3.org/2000/svg"
   xmlns="http://www.w3.org/2000/svg"
   xmlns:sodipodi="http://sodipodi.sourceforge.net/DTD/sodipodi-0.dtd"
   xmlns:inkscape="http://www.inkscape.org/namespaces/inkscape"
   width="350.71027"
   height="322.42429"
   id="svg4348"
   version="1.1"
   inkscape:version="0.48.1 r9760"
   sodipodi:docname="xmas.svg"
   inkscape:export-filename="/home/parag0n/Documents/HACMan/Branding/Logos/SVG/xmas.png"
   inkscape:export-xdpi="89.881569"
   inkscape:export-ydpi="89.881569">
  <defs
     id="defs4350" />
  <sodipodi:namedview
     id="base"
     pagecolor="#ffffff"
     bordercolor="#666666"
     borderopacity="1.0"
     inkscape:pageopacity="0.0"
     inkscape:pageshadow="2"
     inkscape:zoom="0.35"
     inkscape:cx="124.64511"
     inkscape:cy="46.935475"
     inkscape:document-units="px"
     inkscape:current-layer="layer1"
     showgrid="false"
     fit-margin-top="0"
     fit-margin-left="0"
     fit-margin-right="0"
     fit-margin-bottom="0"
     inkscape:window-width="515"
     inkscape:window-height="397"
     inkscape:window-x="0"
     inkscape:window-y="768"
     inkscape:window-maximized="0" />
  <metadata
     id="metadata4353">
    <rdf:RDF>
      <cc:Work
         rdf:about="">
        <dc:format>image/svg+xml</dc:format>
        <dc:type
           rdf:resource="http://purl.org/dc/dcmitype/StillImage" />
        <dc:title></dc:title>
      </cc:Work>
    </rdf:RDF>
  </metadata>
  <g
     inkscape:label="Layer 1"
     inkscape:groupmode="layer"
     id="layer1"
     transform="translate(-250.35489,-256.87338)">
    <g
       id="g4284"
       transform="translate(154.25088,153.91908)"
       inkscape:export-filename="/home/parag0n/path4106-4-9.png"
       inkscape:export-xdpi="90"
       inkscape:export-ydpi="90">
      <g
         inkscape:export-ydpi="170.00293"
         inkscape:export-xdpi="170.00293"
         inkscape:export-filename="/Users/parag0n/Documents/svn.hacman.org.uk/Logos/PNG/1024/hackspace-black.png"
         transform="matrix(1.25,0,0,-1.25,-200.76649,903.92547)"
         style="stroke:#000000;stroke-opacity:1"
         id="g3240">
        <path
           id="path3242"
           style="fill:none;stroke:#000000;stroke-width:14.14999008;stroke-linecap:butt;stroke-linejoin:round;stroke-miterlimit:10;stroke-opacity:1;stroke-dasharray:none"
           d="m 481.9,530.2 0,-70.9"
           inkscape:connector-curvature="0" />
      </g>
      <path
         inkscape:export-ydpi="170.00293"
         inkscape:export-xdpi="170.00293"
         inkscape:export-filename="/Users/parag0n/Documents/svn.hacman.org.uk/Logos/PNG/1024/hackspace-black.png"
         id="path3256"
         style="fill:#e6e64c;fill-opacity:1;fill-rule:evenodd;stroke:none"
         d="m 330.73351,418.30047 -12.75,-0.625 -12.25,-1.875 -11.875,-3 -11.375,-4.25 -10.875,-5.125 -10.25,-6.25 -9.5,-7.125 -8.875,-8 -8,-8.875 -7.125,-9.5 -6.25,-10.25 -5.125,-10.875 -4.25,-11.375 -3,-11.875 -1.875,-12.25 -0.625,-12.75 0.625,-12.625 1.875,-12.375 3,-11.875 4.25,-11.375 5.125,-10.875 6.25,-10.125 7.125,-9.625 8,-8.75 8.875,-8 9.5,-7.125 10.25,-6.25 10.875,-5.25 11.375,-4.125 11.875,-3.125 12.25,-1.875 12.75,-0.625 12.625,0.625 12.375,1.875 11.875,3.125 11.375,4.125 10.875,5.25 10.25,6.25 9.5,7.125 8.875,8 8,8.75 7.125,9.625 6.125,10.125 -109,59.125 109,59.125 -6.125,10.25 -7.125,9.5 -8,8.875 -8.875,8 -9.5,7.125 -10.25,6.25 -10.875,5.125 -11.375,4.25 -11.875,3 -12.375,1.875 -12.625,0.625 z"
         inkscape:connector-curvature="0" />
      <g
         inkscape:export-ydpi="170.00293"
         inkscape:export-xdpi="170.00293"
         inkscape:export-filename="/Users/parag0n/Documents/svn.hacman.org.uk/Logos/PNG/1024/hackspace-black.png"
         transform="matrix(1.25,0,0,-1.25,-200.76649,903.92547)"
         style="stroke:#020000;stroke-opacity:1"
         id="g3258">
        <path
           id="path3260"
           style="fill:none;stroke:#020000;stroke-width:11.31999969;stroke-linecap:butt;stroke-linejoin:round;stroke-miterlimit:10;stroke-opacity:1;stroke-dasharray:none"
           d="m 425.2,388.5 -10.2,0.5 -9.8,1.5 -9.5,2.4 -9.1,3.4 -8.7,4.1 -8.2,5 -7.6,5.7 -7.1,6.4 -6.4,7.1 -5.7,7.6 -5,8.2 -4.1,8.7 -3.4,9.1 -2.4,9.5 -1.5,9.8 -0.5,10.2 0.5,10.1 1.5,9.9 2.4,9.5 3.4,9.1 4.1,8.7 5,8.1 5.7,7.7 6.4,7 7.1,6.4 7.6,5.7 8.2,5 8.7,4.2 9.1,3.3 9.5,2.5 9.8,1.5 10.2,0.5 10.1,-0.5 9.9,-1.5 9.5,-2.5 9.1,-3.3 8.7,-4.2 8.2,-5 7.6,-5.7 7.1,-6.4 6.4,-7 5.7,-7.7 4.9,-8.1 -87.2,-47.3 87.2,-47.3 -4.9,-8.2 -5.7,-7.6 -6.4,-7.1 -7.1,-6.4 -7.6,-5.7 -8.2,-5 -8.7,-4.1 -9.1,-3.4 -9.5,-2.4 -9.9,-1.5 -10.1,-0.5 z"
           inkscape:connector-curvature="0" />
      </g>
    </g>
    <path
       style="fill:#ff0000;stroke:#000000;stroke-width:14.14999962;stroke-miterlimit:4;stroke-opacity:1;stroke-dasharray:none"
       d="m 379.72006,370.48499 c 0,0 -12.05252,-31.50944 -32.14287,-31.42858 -25.23789,0.10158 -50.71428,2.14286 -50.71428,2.14286 l -7.14286,-32.14286 c 0,0 24.28571,-47.85714 101.42858,-45 77.14286,2.85714 105.71429,59.28571 105.71429,59.28571 z"
       id="path4167"
       inkscape:connector-curvature="0"
       sodipodi:nodetypes="csccscc"
       inkscape:export-filename="/home/parag0n/path4106-4-9.png"
       inkscape:export-xdpi="90"
       inkscape:export-ydpi="90" />
    <path
       style="fill:#ffffff;fill-opacity:1;fill-rule:nonzero;stroke:#000000;stroke-width:14.14999962;stroke-miterlimit:4;stroke-opacity:1;stroke-dasharray:none"
       d="m 492.3681,291.55502 c -17.79117,0 -32.54157,12.89952 -35.5,29.84375 -4.24002,-1.75098 -8.90888,-2.6875 -13.78125,-2.6875 -15.79556,0 -29.21053,10.14556 -34.09375,24.28125 -5.22779,-2.94848 -11.2577,-4.65625 -17.6875,-4.65625 -19.9217,0 -36.0625,16.1408 -36.0625,36.06251 0,19.9217 16.1408,36.09375 36.0625,36.09375 15.78771,0 29.20448,-10.15654 34.09375,-24.28125 5.22856,2.94964 11.25633,4.625 17.6875,4.625 17.8029,0 32.58648,-12.88298 35.53125,-29.84375 4.24044,1.75139 8.87704,2.71875 13.75,2.71875 19.9217,0 36.09375,-16.17206 36.09375,-36.09376 0,-19.9217 -16.17205,-36.0625 -36.09375,-36.0625 z"
       id="path4106"
       inkscape:connector-curvature="0"
       inkscape:export-xdpi="90"
       inkscape:export-ydpi="90" />
    <path
       transform="translate(116.72989,-52.724562)"
       d="m 212.85715,388.43362 c 0,19.92171 -16.14973,36.07143 -36.07143,36.07143 -19.9217,0 -36.07143,-16.14972 -36.07143,-36.07143 0,-19.9217 16.14973,-36.07143 36.07143,-36.07143 19.9217,0 36.07143,16.14973 36.07143,36.07143 z"
       sodipodi:ry="36.07143"
       sodipodi:rx="36.07143"
       sodipodi:cy="388.43362"
       sodipodi:cx="176.78572"
       id="path4106-4-9"
       style="fill:#ffffff;fill-opacity:1;fill-rule:nonzero;stroke:#000000;stroke-width:14.14999962;stroke-miterlimit:4;stroke-opacity:1;stroke-dasharray:none"
       sodipodi:type="arc"
       inkscape:export-xdpi="90"
       inkscape:export-ydpi="90" />
  </g>
</svg>
